ISO-10303-21;
HEADER;
/* Generated by software containing ST-Developer
 * from STEP Tools, Inc. (www.steptools.com) 
 */

FILE_DESCRIPTION(
/* description */ (''),
/* implementation_level */ '2;1');

FILE_NAME(
/* name */ '18.stp',
/* time_stamp */ '2026-04-22T17:33:15+02:00',
/* author */ ('irach'),
/* organization */ (''),
/* preprocessor_version */ 'ST-DEVELOPER v20.1',
/* originating_system */ 'Autodesk Inventor 2026',
/* authorisation */ '');

FILE_SCHEMA (('AUTOMOTIVE_DESIGN { 1 0 10303 214 3 1 1 }'));
ENDSEC;

DATA;
#10=MECHANICAL_DESIGN_GEOMETRIC_PRESENTATION_REPRESENTATION('',(#13),#556);
#11=SHAPE_REPRESENTATION_RELATIONSHIP('SRR','None',#563,#12);
#12=ADVANCED_BREP_SHAPE_REPRESENTATION('',(#14),#555);
#13=STYLED_ITEM('',(#572),#14);
#14=MANIFOLD_SOLID_BREP('Solid1',#323);
#15=FACE_BOUND('',#54,.T.);
#16=FACE_BOUND('',#57,.T.);
#17=FACE_BOUND('',#63,.T.);
#18=FACE_BOUND('',#66,.T.);
#19=FACE_BOUND('',#68,.T.);
#20=FACE_BOUND('',#73,.T.);
#21=FACE_BOUND('',#74,.T.);
#22=PLANE('',#352);
#23=PLANE('',#353);
#24=PLANE('',#354);
#25=PLANE('',#360);
#26=PLANE('',#363);
#27=PLANE('',#364);
#28=PLANE('',#369);
#29=PLANE('',#370);
#30=PLANE('',#371);
#31=PLANE('',#372);
#32=PLANE('',#373);
#33=PLANE('',#374);
#34=FACE_OUTER_BOUND('',#51,.T.);
#35=FACE_OUTER_BOUND('',#52,.T.);
#36=FACE_OUTER_BOUND('',#53,.T.);
#37=FACE_OUTER_BOUND('',#55,.T.);
#38=FACE_OUTER_BOUND('',#56,.T.);
#39=FACE_OUTER_BOUND('',#58,.T.);
#40=FACE_OUTER_BOUND('',#59,.T.);
#41=FACE_OUTER_BOUND('',#60,.T.);
#42=FACE_OUTER_BOUND('',#61,.T.);
#43=FACE_OUTER_BOUND('',#62,.T.);
#44=FACE_OUTER_BOUND('',#64,.T.);
#45=FACE_OUTER_BOUND('',#65,.T.);
#46=FACE_OUTER_BOUND('',#67,.T.);
#47=FACE_OUTER_BOUND('',#69,.T.);
#48=FACE_OUTER_BOUND('',#70,.T.);
#49=FACE_OUTER_BOUND('',#71,.T.);
#50=FACE_OUTER_BOUND('',#72,.T.);
#51=EDGE_LOOP('',(#217,#218,#219,#220));
#52=EDGE_LOOP('',(#221,#222,#223,#224));
#53=EDGE_LOOP('',(#225,#226,#227,#228));
#54=EDGE_LOOP('',(#229));
#55=EDGE_LOOP('',(#230,#231,#232,#233));
#56=EDGE_LOOP('',(#234,#235,#236,#237));
#57=EDGE_LOOP('',(#238,#239,#240,#241));
#58=EDGE_LOOP('',(#242,#243,#244,#245));
#59=EDGE_LOOP('',(#246,#247,#248,#249));
#60=EDGE_LOOP('',(#250,#251,#252,#253));
#61=EDGE_LOOP('',(#254,#255,#256,#257));
#62=EDGE_LOOP('',(#258,#259,#260,#261,#262));
#63=EDGE_LOOP('',(#263));
#64=EDGE_LOOP('',(#264,#265,#266,#267,#268,#269,#270,#271));
#65=EDGE_LOOP('',(#272));
#66=EDGE_LOOP('',(#273));
#67=EDGE_LOOP('',(#274,#275,#276,#277));
#68=EDGE_LOOP('',(#278));
#69=EDGE_LOOP('',(#279,#280,#281,#282,#283,#284));
#70=EDGE_LOOP('',(#285,#286,#287,#288));
#71=EDGE_LOOP('',(#289,#290,#291,#292,#293,#294));
#72=EDGE_LOOP('',(#295,#296,#297,#298));
#73=EDGE_LOOP('',(#299));
#74=EDGE_LOOP('',(#300));
#75=LINE('',#470,#105);
#76=LINE('',#476,#106);
#77=LINE('',#481,#107);
#78=LINE('',#483,#108);
#79=LINE('',#485,#109);
#80=LINE('',#486,#110);
#81=LINE('',#489,#111);
#82=LINE('',#491,#112);
#83=LINE('',#492,#113);
#84=LINE('',#495,#114);
#85=LINE('',#497,#115);
#86=LINE('',#498,#116);
#87=LINE('',#501,#117);
#88=LINE('',#505,#118);
#89=LINE('',#511,#119);
#90=LINE('',#515,#120);
#91=LINE('',#517,#121);
#92=LINE('',#518,#122);
#93=LINE('',#521,#123);
#94=LINE('',#525,#124);
#95=LINE('',#526,#125);
#96=LINE('',#533,#126);
#97=LINE('',#539,#127);
#98=LINE('',#540,#128);
#99=LINE('',#541,#129);
#100=LINE('',#544,#130);
#101=LINE('',#545,#131);
#102=LINE('',#548,#132);
#103=LINE('',#549,#133);
#104=LINE('',#551,#134);
#105=VECTOR('',#381,1.);
#106=VECTOR('',#388,1.5);
#107=VECTOR('',#393,10.);
#108=VECTOR('',#394,10.);
#109=VECTOR('',#395,10.);
#110=VECTOR('',#396,10.);
#111=VECTOR('',#399,10.);
#112=VECTOR('',#400,10.);
#113=VECTOR('',#401,10.);
#114=VECTOR('',#404,10.);
#115=VECTOR('',#405,10.);
#116=VECTOR('',#406,10.);
#117=VECTOR('',#407,10.);
#118=VECTOR('',#410,10.);
#119=VECTOR('',#417,1.25);
#120=VECTOR('',#422,10.);
#121=VECTOR('',#423,10.);
#122=VECTOR('',#424,10.);
#123=VECTOR('',#427,10.);
#124=VECTOR('',#432,10.);
#125=VECTOR('',#433,10.);
#126=VECTOR('',#442,3.5);
#127=VECTOR('',#449,10.);
#128=VECTOR('',#450,10.);
#129=VECTOR('',#451,10.);
#130=VECTOR('',#454,10.);
#131=VECTOR('',#455,10.);
#132=VECTOR('',#458,10.);
#133=VECTOR('',#459,10.);
#134=VECTOR('',#462,10.);
#135=CIRCLE('',#347,1.);
#136=CIRCLE('',#348,1.);
#137=CIRCLE('',#350,1.5);
#138=CIRCLE('',#351,1.5);
#139=CIRCLE('',#355,3.00950230042727);
#140=CIRCLE('',#356,3.5);
#141=CIRCLE('',#358,1.25);
#142=CIRCLE('',#359,1.25);
#143=CIRCLE('',#362,3.00950230042727);
#144=CIRCLE('',#365,3.5);
#145=CIRCLE('',#366,3.5);
#146=CIRCLE('',#368,3.5);
#147=VERTEX_POINT('',#467);
#148=VERTEX_POINT('',#469);
#149=VERTEX_POINT('',#473);
#150=VERTEX_POINT('',#475);
#151=VERTEX_POINT('',#479);
#152=VERTEX_POINT('',#480);
#153=VERTEX_POINT('',#482);
#154=VERTEX_POINT('',#484);
#155=VERTEX_POINT('',#488);
#156=VERTEX_POINT('',#490);
#157=VERTEX_POINT('',#494);
#158=VERTEX_POINT('',#496);
#159=VERTEX_POINT('',#499);
#160=VERTEX_POINT('',#500);
#161=VERTEX_POINT('',#502);
#162=VERTEX_POINT('',#504);
#163=VERTEX_POINT('',#508);
#164=VERTEX_POINT('',#510);
#165=VERTEX_POINT('',#514);
#166=VERTEX_POINT('',#516);
#167=VERTEX_POINT('',#520);
#168=VERTEX_POINT('',#524);
#169=VERTEX_POINT('',#528);
#170=VERTEX_POINT('',#532);
#171=VERTEX_POINT('',#537);
#172=VERTEX_POINT('',#538);
#173=VERTEX_POINT('',#543);
#174=VERTEX_POINT('',#547);
#175=EDGE_CURVE('',#147,#147,#135,.T.);
#176=EDGE_CURVE('',#147,#148,#75,.T.);
#177=EDGE_CURVE('',#148,#148,#136,.T.);
#178=EDGE_CURVE('',#149,#149,#137,.T.);
#179=EDGE_CURVE('',#149,#150,#76,.T.);
#180=EDGE_CURVE('',#150,#150,#138,.T.);
#181=EDGE_CURVE('',#151,#152,#77,.T.);
#182=EDGE_CURVE('',#151,#153,#78,.T.);
#183=EDGE_CURVE('',#154,#153,#79,.T.);
#184=EDGE_CURVE('',#152,#154,#80,.T.);
#185=EDGE_CURVE('',#155,#154,#81,.T.);
#186=EDGE_CURVE('',#153,#156,#82,.T.);
#187=EDGE_CURVE('',#156,#155,#83,.T.);
#188=EDGE_CURVE('',#152,#157,#84,.T.);
#189=EDGE_CURVE('',#157,#158,#85,.T.);
#190=EDGE_CURVE('',#158,#151,#86,.T.);
#191=EDGE_CURVE('',#159,#160,#87,.T.);
#192=EDGE_CURVE('',#160,#161,#139,.T.);
#193=EDGE_CURVE('',#161,#162,#88,.T.);
#194=EDGE_CURVE('',#162,#159,#140,.T.);
#195=EDGE_CURVE('',#163,#163,#141,.T.);
#196=EDGE_CURVE('',#163,#164,#89,.T.);
#197=EDGE_CURVE('',#164,#164,#142,.T.);
#198=EDGE_CURVE('',#161,#165,#90,.T.);
#199=EDGE_CURVE('',#165,#166,#91,.T.);
#200=EDGE_CURVE('',#162,#166,#92,.T.);
#201=EDGE_CURVE('',#160,#167,#93,.T.);
#202=EDGE_CURVE('',#167,#165,#143,.T.);
#203=EDGE_CURVE('',#168,#159,#94,.T.);
#204=EDGE_CURVE('',#168,#167,#95,.T.);
#205=EDGE_CURVE('',#169,#168,#144,.T.);
#206=EDGE_CURVE('',#166,#169,#145,.T.);
#207=EDGE_CURVE('',#169,#170,#96,.T.);
#208=EDGE_CURVE('',#170,#170,#146,.T.);
#209=EDGE_CURVE('',#171,#172,#97,.T.);
#210=EDGE_CURVE('',#172,#155,#98,.T.);
#211=EDGE_CURVE('',#171,#156,#99,.T.);
#212=EDGE_CURVE('',#173,#171,#100,.T.);
#213=EDGE_CURVE('',#173,#158,#101,.T.);
#214=EDGE_CURVE('',#174,#173,#102,.T.);
#215=EDGE_CURVE('',#174,#157,#103,.T.);
#216=EDGE_CURVE('',#172,#174,#104,.T.);
#217=ORIENTED_EDGE('',*,*,#175,.F.);
#218=ORIENTED_EDGE('',*,*,#176,.T.);
#219=ORIENTED_EDGE('',*,*,#177,.F.);
#220=ORIENTED_EDGE('',*,*,#176,.F.);
#221=ORIENTED_EDGE('',*,*,#178,.F.);
#222=ORIENTED_EDGE('',*,*,#179,.T.);
#223=ORIENTED_EDGE('',*,*,#180,.F.);
#224=ORIENTED_EDGE('',*,*,#179,.F.);
#225=ORIENTED_EDGE('',*,*,#181,.F.);
#226=ORIENTED_EDGE('',*,*,#182,.T.);
#227=ORIENTED_EDGE('',*,*,#183,.F.);
#228=ORIENTED_EDGE('',*,*,#184,.F.);
#229=ORIENTED_EDGE('',*,*,#180,.T.);
#230=ORIENTED_EDGE('',*,*,#185,.T.);
#231=ORIENTED_EDGE('',*,*,#183,.T.);
#232=ORIENTED_EDGE('',*,*,#186,.T.);
#233=ORIENTED_EDGE('',*,*,#187,.T.);
#234=ORIENTED_EDGE('',*,*,#181,.T.);
#235=ORIENTED_EDGE('',*,*,#188,.T.);
#236=ORIENTED_EDGE('',*,*,#189,.T.);
#237=ORIENTED_EDGE('',*,*,#190,.T.);
#238=ORIENTED_EDGE('',*,*,#191,.T.);
#239=ORIENTED_EDGE('',*,*,#192,.T.);
#240=ORIENTED_EDGE('',*,*,#193,.T.);
#241=ORIENTED_EDGE('',*,*,#194,.T.);
#242=ORIENTED_EDGE('',*,*,#195,.F.);
#243=ORIENTED_EDGE('',*,*,#196,.T.);
#244=ORIENTED_EDGE('',*,*,#197,.F.);
#245=ORIENTED_EDGE('',*,*,#196,.F.);
#246=ORIENTED_EDGE('',*,*,#193,.F.);
#247=ORIENTED_EDGE('',*,*,#198,.T.);
#248=ORIENTED_EDGE('',*,*,#199,.T.);
#249=ORIENTED_EDGE('',*,*,#200,.F.);
#250=ORIENTED_EDGE('',*,*,#192,.F.);
#251=ORIENTED_EDGE('',*,*,#201,.T.);
#252=ORIENTED_EDGE('',*,*,#202,.T.);
#253=ORIENTED_EDGE('',*,*,#198,.F.);
#254=ORIENTED_EDGE('',*,*,#191,.F.);
#255=ORIENTED_EDGE('',*,*,#203,.F.);
#256=ORIENTED_EDGE('',*,*,#204,.T.);
#257=ORIENTED_EDGE('',*,*,#201,.F.);
#258=ORIENTED_EDGE('',*,*,#204,.F.);
#259=ORIENTED_EDGE('',*,*,#205,.F.);
#260=ORIENTED_EDGE('',*,*,#206,.F.);
#261=ORIENTED_EDGE('',*,*,#199,.F.);
#262=ORIENTED_EDGE('',*,*,#202,.F.);
#263=ORIENTED_EDGE('',*,*,#175,.T.);
#264=ORIENTED_EDGE('',*,*,#203,.T.);
#265=ORIENTED_EDGE('',*,*,#194,.F.);
#266=ORIENTED_EDGE('',*,*,#200,.T.);
#267=ORIENTED_EDGE('',*,*,#206,.T.);
#268=ORIENTED_EDGE('',*,*,#207,.T.);
#269=ORIENTED_EDGE('',*,*,#208,.T.);
#270=ORIENTED_EDGE('',*,*,#207,.F.);
#271=ORIENTED_EDGE('',*,*,#205,.T.);
#272=ORIENTED_EDGE('',*,*,#208,.F.);
#273=ORIENTED_EDGE('',*,*,#197,.T.);
#274=ORIENTED_EDGE('',*,*,#209,.T.);
#275=ORIENTED_EDGE('',*,*,#210,.T.);
#276=ORIENTED_EDGE('',*,*,#187,.F.);
#277=ORIENTED_EDGE('',*,*,#211,.F.);
#278=ORIENTED_EDGE('',*,*,#178,.T.);
#279=ORIENTED_EDGE('',*,*,#212,.T.);
#280=ORIENTED_EDGE('',*,*,#211,.T.);
#281=ORIENTED_EDGE('',*,*,#186,.F.);
#282=ORIENTED_EDGE('',*,*,#182,.F.);
#283=ORIENTED_EDGE('',*,*,#190,.F.);
#284=ORIENTED_EDGE('',*,*,#213,.F.);
#285=ORIENTED_EDGE('',*,*,#214,.T.);
#286=ORIENTED_EDGE('',*,*,#213,.T.);
#287=ORIENTED_EDGE('',*,*,#189,.F.);
#288=ORIENTED_EDGE('',*,*,#215,.F.);
#289=ORIENTED_EDGE('',*,*,#216,.T.);
#290=ORIENTED_EDGE('',*,*,#215,.T.);
#291=ORIENTED_EDGE('',*,*,#188,.F.);
#292=ORIENTED_EDGE('',*,*,#184,.T.);
#293=ORIENTED_EDGE('',*,*,#185,.F.);
#294=ORIENTED_EDGE('',*,*,#210,.F.);
#295=ORIENTED_EDGE('',*,*,#216,.F.);
#296=ORIENTED_EDGE('',*,*,#209,.F.);
#297=ORIENTED_EDGE('',*,*,#212,.F.);
#298=ORIENTED_EDGE('',*,*,#214,.F.);
#299=ORIENTED_EDGE('',*,*,#177,.T.);
#300=ORIENTED_EDGE('',*,*,#195,.T.);
#301=CYLINDRICAL_SURFACE('',#346,1.);
#302=CYLINDRICAL_SURFACE('',#349,1.5);
#303=CYLINDRICAL_SURFACE('',#357,1.25);
#304=CYLINDRICAL_SURFACE('',#361,3.00950230042727);
#305=CYLINDRICAL_SURFACE('',#367,3.5);
#306=ADVANCED_FACE('',(#34),#301,.F.);
#307=ADVANCED_FACE('',(#35),#302,.F.);
#308=ADVANCED_FACE('',(#36,#15),#22,.T.);
#309=ADVANCED_FACE('',(#37),#23,.T.);
#310=ADVANCED_FACE('',(#38,#16),#24,.T.);
#311=ADVANCED_FACE('',(#39),#303,.F.);
#312=ADVANCED_FACE('',(#40),#25,.F.);
#313=ADVANCED_FACE('',(#41),#304,.F.);
#314=ADVANCED_FACE('',(#42),#26,.F.);
#315=ADVANCED_FACE('',(#43,#17),#27,.T.);
#316=ADVANCED_FACE('',(#44),#305,.F.);
#317=ADVANCED_FACE('',(#45,#18),#28,.T.);
#318=ADVANCED_FACE('',(#46,#19),#29,.T.);
#319=ADVANCED_FACE('',(#47),#30,.T.);
#320=ADVANCED_FACE('',(#48),#31,.T.);
#321=ADVANCED_FACE('',(#49),#32,.T.);
#322=ADVANCED_FACE('',(#50,#20,#21),#33,.F.);
#323=CLOSED_SHELL('',(#306,#307,#308,#309,#310,#311,#312,#313,#314,#315,
#316,#317,#318,#319,#320,#321,#322));
#324=DERIVED_UNIT_ELEMENT(#327,1.);
#325=DERIVED_UNIT_ELEMENT(#558,-3.);
#326=DIMENSIONAL_EXPONENTS(0.,1.,0.,0.,0.,0.,0.);
#327=(
CONVERSION_BASED_UNIT('gram',#329)
MASS_UNIT()
NAMED_UNIT(#326)
);
#328=(
MASS_UNIT()
NAMED_UNIT(*)
SI_UNIT(.KILO.,.GRAM.)
);
#329=MASS_MEASURE_WITH_UNIT(MASS_MEASURE(0.001),#328);
#330=DERIVED_UNIT((#324,#325));
#331=MEASURE_REPRESENTATION_ITEM('density measure',
POSITIVE_RATIO_MEASURE(1.),#330);
#332=PROPERTY_DEFINITION_REPRESENTATION(#337,#334);
#333=PROPERTY_DEFINITION_REPRESENTATION(#338,#335);
#334=REPRESENTATION('material name',(#336),#555);
#335=REPRESENTATION('density',(#331),#555);
#336=DESCRIPTIVE_REPRESENTATION_ITEM('Generic','Generic');
#337=PROPERTY_DEFINITION('material property','material name',#565);
#338=PROPERTY_DEFINITION('material property','density of part',#565);
#339=DATE_TIME_ROLE('creation_date');
#340=APPLIED_DATE_AND_TIME_ASSIGNMENT(#341,#339,(#565));
#341=DATE_AND_TIME(#342,#343);
#342=CALENDAR_DATE(2026,11,4);
#343=LOCAL_TIME(0,0,0.,#344);
#344=COORDINATED_UNIVERSAL_TIME_OFFSET(0,0,.BEHIND.);
#345=AXIS2_PLACEMENT_3D('',#465,#375,#376);
#346=AXIS2_PLACEMENT_3D('',#466,#377,#378);
#347=AXIS2_PLACEMENT_3D('',#468,#379,#380);
#348=AXIS2_PLACEMENT_3D('',#471,#382,#383);
#349=AXIS2_PLACEMENT_3D('',#472,#384,#385);
#350=AXIS2_PLACEMENT_3D('',#474,#386,#387);
#351=AXIS2_PLACEMENT_3D('',#477,#389,#390);
#352=AXIS2_PLACEMENT_3D('',#478,#391,#392);
#353=AXIS2_PLACEMENT_3D('',#487,#397,#398);
#354=AXIS2_PLACEMENT_3D('',#493,#402,#403);
#355=AXIS2_PLACEMENT_3D('',#503,#408,#409);
#356=AXIS2_PLACEMENT_3D('',#506,#411,#412);
#357=AXIS2_PLACEMENT_3D('',#507,#413,#414);
#358=AXIS2_PLACEMENT_3D('',#509,#415,#416);
#359=AXIS2_PLACEMENT_3D('',#512,#418,#419);
#360=AXIS2_PLACEMENT_3D('',#513,#420,#421);
#361=AXIS2_PLACEMENT_3D('',#519,#425,#426);
#362=AXIS2_PLACEMENT_3D('',#522,#428,#429);
#363=AXIS2_PLACEMENT_3D('',#523,#430,#431);
#364=AXIS2_PLACEMENT_3D('',#527,#434,#435);
#365=AXIS2_PLACEMENT_3D('',#529,#436,#437);
#366=AXIS2_PLACEMENT_3D('',#530,#438,#439);
#367=AXIS2_PLACEMENT_3D('',#531,#440,#441);
#368=AXIS2_PLACEMENT_3D('',#534,#443,#444);
#369=AXIS2_PLACEMENT_3D('',#535,#445,#446);
#370=AXIS2_PLACEMENT_3D('',#536,#447,#448);
#371=AXIS2_PLACEMENT_3D('',#542,#452,#453);
#372=AXIS2_PLACEMENT_3D('',#546,#456,#457);
#373=AXIS2_PLACEMENT_3D('',#550,#460,#461);
#374=AXIS2_PLACEMENT_3D('',#552,#463,#464);
#375=DIRECTION('axis',(0.,0.,1.));
#376=DIRECTION('refdir',(1.,0.,0.));
#377=DIRECTION('center_axis',(-1.,0.,0.));
#378=DIRECTION('ref_axis',(0.,0.,-1.));
#379=DIRECTION('center_axis',(-1.,0.,0.));
#380=DIRECTION('ref_axis',(0.,0.,-1.));
#381=DIRECTION('',(-1.,0.,0.));
#382=DIRECTION('center_axis',(1.,0.,0.));
#383=DIRECTION('ref_axis',(0.,0.,-1.));
#384=DIRECTION('center_axis',(0.,1.85181731060524E-16,-1.));
#385=DIRECTION('ref_axis',(1.,0.,0.));
#386=DIRECTION('center_axis',(0.,1.85037170770859E-16,-1.));
#387=DIRECTION('ref_axis',(1.,0.,0.));
#388=DIRECTION('',(0.,1.85181731060524E-16,-1.));
#389=DIRECTION('center_axis',(0.,-1.85037170770859E-16,1.));
#390=DIRECTION('ref_axis',(1.,0.,0.));
#391=DIRECTION('center_axis',(0.,1.85037170770859E-16,-1.));
#392=DIRECTION('ref_axis',(0.,1.,1.85037170770859E-16));
#393=DIRECTION('',(0.,-1.,-1.85037170770859E-16));
#394=DIRECTION('',(1.,0.,0.));
#395=DIRECTION('',(0.,1.,1.85037170770859E-16));
#396=DIRECTION('',(1.,0.,0.));
#397=DIRECTION('center_axis',(1.,0.,0.));
#398=DIRECTION('ref_axis',(0.,0.,-1.));
#399=DIRECTION('',(0.,1.91417762866406E-16,-1.));
#400=DIRECTION('',(0.,-4.97686183452656E-16,1.));
#401=DIRECTION('',(0.,-1.,0.));
#402=DIRECTION('center_axis',(1.,0.,0.));
#403=DIRECTION('ref_axis',(0.,0.,-1.));
#404=DIRECTION('',(0.,1.14850657719844E-16,-1.));
#405=DIRECTION('',(0.,1.,0.));
#406=DIRECTION('',(0.,3.0626842058625E-16,1.));
#407=DIRECTION('',(0.,0.0965612556208501,0.995327043696154));
#408=DIRECTION('center_axis',(-1.,0.,0.));
#409=DIRECTION('ref_axis',(0.,0.581491497697657,0.813552480240418));
#410=DIRECTION('',(0.,0.0965612556208508,-0.995327043696154));
#411=DIRECTION('center_axis',(-1.,0.,0.));
#412=DIRECTION('ref_axis',(0.,0.,1.));
#413=DIRECTION('center_axis',(1.,0.,0.));
#414=DIRECTION('ref_axis',(0.,0.,1.));
#415=DIRECTION('center_axis',(1.,0.,0.));
#416=DIRECTION('ref_axis',(0.,0.,1.));
#417=DIRECTION('',(1.,0.,0.));
#418=DIRECTION('center_axis',(-1.,0.,0.));
#419=DIRECTION('ref_axis',(0.,0.,1.));
#420=DIRECTION('center_axis',(0.,0.995327043696154,0.0965612556208508));
#421=DIRECTION('ref_axis',(0.,0.0965612556208508,-0.995327043696154));
#422=DIRECTION('',(-1.,0.,0.));
#423=DIRECTION('',(0.,0.0965612556208508,-0.995327043696154));
#424=DIRECTION('',(-1.,0.,0.));
#425=DIRECTION('center_axis',(-1.,0.,0.));
#426=DIRECTION('ref_axis',(0.,0.581491497697657,0.813552480240418));
#427=DIRECTION('',(-1.,0.,0.));
#428=DIRECTION('center_axis',(-1.,0.,0.));
#429=DIRECTION('ref_axis',(0.,0.581491497697657,0.813552480240418));
#430=DIRECTION('center_axis',(0.,-0.995327043696154,0.0965612556208501));
#431=DIRECTION('ref_axis',(0.,0.0965612556208501,0.995327043696154));
#432=DIRECTION('',(1.,0.,0.));
#433=DIRECTION('',(0.,0.0965612556208501,0.995327043696154));
#434=DIRECTION('center_axis',(1.,0.,0.));
#435=DIRECTION('ref_axis',(0.,0.,-1.));
#436=DIRECTION('center_axis',(1.,0.,0.));
#437=DIRECTION('ref_axis',(0.,0.,-1.));
#438=DIRECTION('center_axis',(1.,0.,0.));
#439=DIRECTION('ref_axis',(0.,0.,-1.));
#440=DIRECTION('center_axis',(-1.,0.,0.));
#441=DIRECTION('ref_axis',(0.,0.,-1.));
#442=DIRECTION('',(-1.,0.,0.));
#443=DIRECTION('center_axis',(-1.,0.,0.));
#444=DIRECTION('ref_axis',(0.,0.,-1.));
#445=DIRECTION('center_axis',(1.,0.,0.));
#446=DIRECTION('ref_axis',(0.,0.,-1.));
#447=DIRECTION('center_axis',(0.,-1.85037170770859E-16,1.));
#448=DIRECTION('ref_axis',(0.,-1.,-1.85037170770859E-16));
#449=DIRECTION('',(0.,-1.,-1.85037170770859E-16));
#450=DIRECTION('',(1.,0.,0.));
#451=DIRECTION('',(1.,0.,0.));
#452=DIRECTION('center_axis',(0.,1.,4.21119078306094E-16));
#453=DIRECTION('ref_axis',(0.,-4.21119078306094E-16,1.));
#454=DIRECTION('',(0.,-4.21119078306094E-16,1.));
#455=DIRECTION('',(1.,0.,0.));
#456=DIRECTION('center_axis',(0.,0.,-1.));
#457=DIRECTION('ref_axis',(0.,1.,0.));
#458=DIRECTION('',(0.,1.,0.));
#459=DIRECTION('',(1.,0.,0.));
#460=DIRECTION('center_axis',(0.,-1.,-1.91417762866406E-16));
#461=DIRECTION('ref_axis',(0.,1.91417762866406E-16,-1.));
#462=DIRECTION('',(0.,1.91417762866406E-16,-1.));
#463=DIRECTION('center_axis',(1.,0.,0.));
#464=DIRECTION('ref_axis',(0.,0.,-1.));
#465=CARTESIAN_POINT('',(0.,0.,0.));
#466=CARTESIAN_POINT('Origin',(1.8,0.132352941176467,-25.7794089387941));
#467=CARTESIAN_POINT('',(1.8,0.132352941176467,-24.7794089387941));
#468=CARTESIAN_POINT('Origin',(1.8,0.132352941176467,-25.7794089387941));
#469=CARTESIAN_POINT('',(0.,0.132352941176467,-24.7794089387941));
#470=CARTESIAN_POINT('',(1.8,0.132352941176467,-24.7794089387941));
#471=CARTESIAN_POINT('Origin',(0.,0.132352941176467,-25.7794089387941));
#472=CARTESIAN_POINT('Origin',(35.3,0.132352941176458,-14.2794089387941));
#473=CARTESIAN_POINT('',(33.8,0.132352941176458,-14.2794089387941));
#474=CARTESIAN_POINT('Origin',(35.3,0.132352941176458,-14.2794089387941));
#475=CARTESIAN_POINT('',(33.8,0.132352941176458,-17.2794089387941));
#476=CARTESIAN_POINT('',(33.8,0.132352941176458,-14.2794089387941));
#477=CARTESIAN_POINT('Origin',(35.3,0.132352941176458,-17.2794089387941));
#478=CARTESIAN_POINT('Origin',(4.3,-5.86764705882354,-17.2794089387941));
#479=CARTESIAN_POINT('',(4.3,6.13235294117646,-17.2794089387941));
#480=CARTESIAN_POINT('',(4.3,-5.86764705882354,-17.2794089387941));
#481=CARTESIAN_POINT('',(4.3,-2.86764705882353,-17.2794089387941));
#482=CARTESIAN_POINT('',(39.3,6.13235294117646,-17.2794089387941));
#483=CARTESIAN_POINT('',(4.3,6.13235294117646,-17.2794089387941));
#484=CARTESIAN_POINT('',(39.3,-5.86764705882354,-17.2794089387941));
#485=CARTESIAN_POINT('',(39.3,-5.86764705882354,-17.2794089387941));
#486=CARTESIAN_POINT('',(4.3,-5.86764705882354,-17.2794089387941));
#487=CARTESIAN_POINT('Origin',(39.3,0.132352941176461,-15.7794089387941));
#488=CARTESIAN_POINT('',(39.3,-5.86764705882354,-14.2794089387941));
#489=CARTESIAN_POINT('',(39.3,-5.86764705882354,-14.2794089387941));
#490=CARTESIAN_POINT('',(39.3,6.13235294117646,-14.2794089387941));
#491=CARTESIAN_POINT('',(39.3,6.13235294117647,-43.2794089387941));
#492=CARTESIAN_POINT('',(39.3,6.13235294117646,-14.2794089387941));
#493=CARTESIAN_POINT('Origin',(4.3,0.13235294117647,-28.7794089387941));
#494=CARTESIAN_POINT('',(4.3,-5.86764705882353,-43.2794089387941));
#495=CARTESIAN_POINT('',(4.3,-5.86764705882354,-14.2794089387941));
#496=CARTESIAN_POINT('',(4.3,6.13235294117647,-43.2794089387941));
#497=CARTESIAN_POINT('',(4.3,-5.86764705882353,-43.2794089387941));
#498=CARTESIAN_POINT('',(4.3,6.13235294117645,-43.2794089387941));
#499=CARTESIAN_POINT('',(4.3,-3.01551935610625,-36.7494089387941));
#500=CARTESIAN_POINT('',(4.3,-1.61764705882354,-22.3405231784195));
#501=CARTESIAN_POINT('',(4.3,-2.61784538976576,-32.6502943329651));
#502=CARTESIAN_POINT('',(4.3,1.88235294117646,-22.3405231784195));
#503=CARTESIAN_POINT('Origin',(4.3,0.132352941176463,-24.7889112392213));
#504=CARTESIAN_POINT('',(4.3,3.28022523845919,-36.7494089387941));
#505=CARTESIAN_POINT('',(4.3,2.18361512347733,-25.4458514527778));
#506=CARTESIAN_POINT('Origin',(4.3,0.132352941176468,-38.2794089387941));
#507=CARTESIAN_POINT('Origin',(0.,0.132352941176468,-38.2794089387941));
#508=CARTESIAN_POINT('',(0.,0.132352941176468,-39.5294089387941));
#509=CARTESIAN_POINT('Origin',(0.,0.132352941176468,-38.2794089387941));
#510=CARTESIAN_POINT('',(1.,0.132352941176468,-39.5294089387941));
#511=CARTESIAN_POINT('',(0.,0.132352941176468,-39.5294089387941));
#512=CARTESIAN_POINT('Origin',(1.,0.132352941176468,-38.2794089387941));
#513=CARTESIAN_POINT('Origin',(4.3,1.88235294117646,-22.3405231784195));
#514=CARTESIAN_POINT('',(1.8,1.88235294117646,-22.3405231784195));
#515=CARTESIAN_POINT('',(4.3,1.88235294117646,-22.3405231784195));
#516=CARTESIAN_POINT('',(1.8,3.28022523845919,-36.7494089387941));
#517=CARTESIAN_POINT('',(1.8,3.28022523845919,-36.7494089387941));
#518=CARTESIAN_POINT('',(1.8,3.28022523845919,-36.7494089387941));
#519=CARTESIAN_POINT('Origin',(4.3,0.132352941176463,-24.7889112392213));
#520=CARTESIAN_POINT('',(1.8,-1.61764705882354,-22.3405231784195));
#521=CARTESIAN_POINT('',(4.3,-1.61764705882354,-22.3405231784195));
#522=CARTESIAN_POINT('Origin',(1.8,0.132352941176463,-24.7889112392213));
#523=CARTESIAN_POINT('Origin',(4.3,-3.01551935610625,-36.7494089387941));
#524=CARTESIAN_POINT('',(1.8,-3.01551935610625,-36.7494089387941));
#525=CARTESIAN_POINT('',(1.8,-3.01551935610625,-36.7494089387941));
#526=CARTESIAN_POINT('',(1.8,-1.61764705882354,-22.3405231784195));
#527=CARTESIAN_POINT('Origin',(1.8,0.132352941176468,-29.2644089387941));
#528=CARTESIAN_POINT('',(1.8,0.132352941176468,-34.7794089387941));
#529=CARTESIAN_POINT('Origin',(1.8,0.132352941176468,-38.2794089387941));
#530=CARTESIAN_POINT('Origin',(1.8,0.132352941176468,-38.2794089387941));
#531=CARTESIAN_POINT('Origin',(1.8,0.132352941176468,-38.2794089387941));
#532=CARTESIAN_POINT('',(1.,0.132352941176468,-34.7794089387941));
#533=CARTESIAN_POINT('',(1.8,0.132352941176468,-34.7794089387941));
#534=CARTESIAN_POINT('Origin',(1.,0.132352941176468,-38.2794089387941));
#535=CARTESIAN_POINT('Origin',(1.,0.132352941176468,-38.2794089387941));
#536=CARTESIAN_POINT('Origin',(0.,6.13235294117646,-14.2794089387941));
#537=CARTESIAN_POINT('',(0.,6.13235294117646,-14.2794089387941));
#538=CARTESIAN_POINT('',(0.,-5.86764705882354,-14.2794089387941));
#539=CARTESIAN_POINT('',(0.,6.13235294117646,-14.2794089387941));
#540=CARTESIAN_POINT('',(0.,-5.86764705882354,-14.2794089387941));
#541=CARTESIAN_POINT('',(0.,6.13235294117646,-14.2794089387941));
#542=CARTESIAN_POINT('Origin',(0.,6.13235294117647,-43.2794089387941));
#543=CARTESIAN_POINT('',(0.,6.13235294117647,-43.2794089387941));
#544=CARTESIAN_POINT('',(0.,6.13235294117647,-43.2794089387941));
#545=CARTESIAN_POINT('',(0.,6.13235294117647,-43.2794089387941));
#546=CARTESIAN_POINT('Origin',(0.,-5.86764705882353,-43.2794089387941));
#547=CARTESIAN_POINT('',(0.,-5.86764705882353,-43.2794089387941));
#548=CARTESIAN_POINT('',(0.,-5.86764705882353,-43.2794089387941));
#549=CARTESIAN_POINT('',(0.,-5.86764705882353,-43.2794089387941));
#550=CARTESIAN_POINT('Origin',(0.,-5.86764705882354,-14.2794089387941));
#551=CARTESIAN_POINT('',(0.,-5.86764705882354,-14.2794089387941));
#552=CARTESIAN_POINT('Origin',(0.,0.132352941176468,-28.7794089387941));
#553=UNCERTAINTY_MEASURE_WITH_UNIT(LENGTH_MEASURE(0.01),#557,
'DISTANCE_ACCURACY_VALUE',
'Maximum model space distance between geometric entities at asserted c
onnectivities');
#554=UNCERTAINTY_MEASURE_WITH_UNIT(LENGTH_MEASURE(0.01),#557,
'DISTANCE_ACCURACY_VALUE',
'Maximum model space distance between geometric entities at asserted c
onnectivities');
#555=(
GEOMETRIC_REPRESENTATION_CONTEXT(3)
GLOBAL_UNCERTAINTY_ASSIGNED_CONTEXT((#553))
GLOBAL_UNIT_ASSIGNED_CONTEXT((#557,#559,#560))
REPRESENTATION_CONTEXT('','3D')
);
#556=(
GEOMETRIC_REPRESENTATION_CONTEXT(3)
GLOBAL_UNCERTAINTY_ASSIGNED_CONTEXT((#554))
GLOBAL_UNIT_ASSIGNED_CONTEXT((#557,#559,#560))
REPRESENTATION_CONTEXT('','3D')
);
#557=(
LENGTH_UNIT()
NAMED_UNIT(*)
SI_UNIT(.MILLI.,.METRE.)
);
#558=(
LENGTH_UNIT()
NAMED_UNIT(*)
SI_UNIT(.CENTI.,.METRE.)
);
#559=(
NAMED_UNIT(*)
PLANE_ANGLE_UNIT()
SI_UNIT($,.RADIAN.)
);
#560=(
NAMED_UNIT(*)
SI_UNIT($,.STERADIAN.)
SOLID_ANGLE_UNIT()
);
#561=SHAPE_DEFINITION_REPRESENTATION(#562,#563);
#562=PRODUCT_DEFINITION_SHAPE('',$,#565);
#563=SHAPE_REPRESENTATION('',(#345),#555);
#564=PRODUCT_DEFINITION_CONTEXT('part definition',#569,'design');
#565=PRODUCT_DEFINITION('18_2','18',#566,#564);
#566=PRODUCT_DEFINITION_FORMATION('',$,#571);
#567=PRODUCT_RELATED_PRODUCT_CATEGORY('18','18',(#571));
#568=APPLICATION_PROTOCOL_DEFINITION('international standard',
'automotive_design',2009,#569);
#569=APPLICATION_CONTEXT(
'Core Data for Automotive Mechanical Design Process');
#570=PRODUCT_CONTEXT('part definition',#569,'mechanical');
#571=PRODUCT('18_2','18',$,(#570));
#572=PRESENTATION_STYLE_ASSIGNMENT((#573));
#573=SURFACE_STYLE_USAGE(.BOTH.,#576);
#574=SURFACE_STYLE_RENDERING_WITH_PROPERTIES($,#580,(#575));
#575=SURFACE_STYLE_TRANSPARENT(0.);
#576=SURFACE_SIDE_STYLE('',(#577,#574));
#577=SURFACE_STYLE_FILL_AREA(#578);
#578=FILL_AREA_STYLE('',(#579));
#579=FILL_AREA_STYLE_COLOUR('',#580);
#580=COLOUR_RGB('',0.749019607843137,0.749019607843137,0.749019607843137);
ENDSEC;
END-ISO-10303-21;
