ISO-10303-21;
HEADER;
/* Generated by software containing ST-Developer
 * from STEP Tools, Inc. (www.steptools.com) 
 */

FILE_DESCRIPTION(
/* description */ (''),
/* implementation_level */ '2;1');

FILE_NAME(
/* name */ '18_2.stp',
/* time_stamp */ '2026-04-22T17:33:24+02:00',
/* author */ ('irach'),
/* organization */ (''),
/* preprocessor_version */ 'ST-DEVELOPER v20.1',
/* originating_system */ 'Autodesk Inventor 2026',
/* authorisation */ '');

FILE_SCHEMA (('AUTOMOTIVE_DESIGN { 1 0 10303 214 3 1 1 }'));
ENDSEC;

DATA;
#10=MECHANICAL_DESIGN_GEOMETRIC_PRESENTATION_REPRESENTATION('',(#13),#594);
#11=SHAPE_REPRESENTATION_RELATIONSHIP('SRR','None',#601,#12);
#12=ADVANCED_BREP_SHAPE_REPRESENTATION('',(#14),#593);
#13=STYLED_ITEM('',(#610),#14);
#14=MANIFOLD_SOLID_BREP('Solid1',#347);
#15=FACE_BOUND('',#55,.T.);
#16=FACE_BOUND('',#64,.T.);
#17=FACE_BOUND('',#67,.T.);
#18=FACE_BOUND('',#69,.T.);
#19=FACE_BOUND('',#74,.T.);
#20=FACE_BOUND('',#75,.T.);
#21=PLANE('',#376);
#22=PLANE('',#377);
#23=PLANE('',#378);
#24=PLANE('',#380);
#25=PLANE('',#385);
#26=PLANE('',#388);
#27=PLANE('',#389);
#28=PLANE('',#394);
#29=PLANE('',#395);
#30=PLANE('',#396);
#31=PLANE('',#397);
#32=PLANE('',#398);
#33=PLANE('',#399);
#34=FACE_OUTER_BOUND('',#52,.T.);
#35=FACE_OUTER_BOUND('',#53,.T.);
#36=FACE_OUTER_BOUND('',#54,.T.);
#37=FACE_OUTER_BOUND('',#56,.T.);
#38=FACE_OUTER_BOUND('',#57,.T.);
#39=FACE_OUTER_BOUND('',#58,.T.);
#40=FACE_OUTER_BOUND('',#59,.T.);
#41=FACE_OUTER_BOUND('',#60,.T.);
#42=FACE_OUTER_BOUND('',#61,.T.);
#43=FACE_OUTER_BOUND('',#62,.T.);
#44=FACE_OUTER_BOUND('',#63,.T.);
#45=FACE_OUTER_BOUND('',#65,.T.);
#46=FACE_OUTER_BOUND('',#66,.T.);
#47=FACE_OUTER_BOUND('',#68,.T.);
#48=FACE_OUTER_BOUND('',#70,.T.);
#49=FACE_OUTER_BOUND('',#71,.T.);
#50=FACE_OUTER_BOUND('',#72,.T.);
#51=FACE_OUTER_BOUND('',#73,.T.);
#52=EDGE_LOOP('',(#232,#233,#234,#235));
#53=EDGE_LOOP('',(#236,#237,#238,#239));
#54=EDGE_LOOP('',(#240,#241,#242,#243,#244,#245));
#55=EDGE_LOOP('',(#246));
#56=EDGE_LOOP('',(#247,#248,#249,#250));
#57=EDGE_LOOP('',(#251,#252,#253,#254));
#58=EDGE_LOOP('',(#255,#256,#257,#258,#259,#260,#261,#262));
#59=EDGE_LOOP('',(#263,#264,#265,#266));
#60=EDGE_LOOP('',(#267,#268,#269,#270,#271));
#61=EDGE_LOOP('',(#272,#273,#274,#275));
#62=EDGE_LOOP('',(#276,#277,#278,#279,#280));
#63=EDGE_LOOP('',(#281,#282,#283,#284,#285));
#64=EDGE_LOOP('',(#286));
#65=EDGE_LOOP('',(#287,#288,#289,#290,#291,#292,#293,#294));
#66=EDGE_LOOP('',(#295));
#67=EDGE_LOOP('',(#296));
#68=EDGE_LOOP('',(#297,#298,#299,#300));
#69=EDGE_LOOP('',(#301));
#70=EDGE_LOOP('',(#302,#303,#304,#305,#306,#307));
#71=EDGE_LOOP('',(#308,#309,#310,#311));
#72=EDGE_LOOP('',(#312,#313,#314,#315,#316,#317));
#73=EDGE_LOOP('',(#318,#319,#320,#321));
#74=EDGE_LOOP('',(#322));
#75=EDGE_LOOP('',(#323));
#76=LINE('',#501,#110);
#77=LINE('',#507,#111);
#78=LINE('',#512,#112);
#79=LINE('',#514,#113);
#80=LINE('',#516,#114);
#81=LINE('',#518,#115);
#82=LINE('',#520,#116);
#83=LINE('',#521,#117);
#84=LINE('',#524,#118);
#85=LINE('',#526,#119);
#86=LINE('',#527,#120);
#87=LINE('',#530,#121);
#88=LINE('',#532,#122);
#89=LINE('',#536,#123);
#90=LINE('',#539,#124);
#91=LINE('',#541,#125);
#92=LINE('',#543,#126);
#93=LINE('',#544,#127);
#94=LINE('',#549,#128);
#95=LINE('',#553,#129);
#96=LINE('',#555,#130);
#97=LINE('',#556,#131);
#98=LINE('',#559,#132);
#99=LINE('',#563,#133);
#100=LINE('',#564,#134);
#101=LINE('',#571,#135);
#102=LINE('',#577,#136);
#103=LINE('',#578,#137);
#104=LINE('',#579,#138);
#105=LINE('',#582,#139);
#106=LINE('',#583,#140);
#107=LINE('',#586,#141);
#108=LINE('',#587,#142);
#109=LINE('',#589,#143);
#110=VECTOR('',#406,1.);
#111=VECTOR('',#413,1.5);
#112=VECTOR('',#418,10.);
#113=VECTOR('',#419,10.);
#114=VECTOR('',#420,10.);
#115=VECTOR('',#421,10.);
#116=VECTOR('',#422,10.);
#117=VECTOR('',#423,10.);
#118=VECTOR('',#426,10.);
#119=VECTOR('',#427,10.);
#120=VECTOR('',#428,10.);
#121=VECTOR('',#431,10.);
#122=VECTOR('',#432,10.);
#123=VECTOR('',#437,10.);
#124=VECTOR('',#440,10.);
#125=VECTOR('',#441,10.);
#126=VECTOR('',#442,10.);
#127=VECTOR('',#443,10.);
#128=VECTOR('',#448,1.25);
#129=VECTOR('',#453,10.);
#130=VECTOR('',#454,10.);
#131=VECTOR('',#455,10.);
#132=VECTOR('',#458,10.);
#133=VECTOR('',#463,10.);
#134=VECTOR('',#464,10.);
#135=VECTOR('',#473,3.5);
#136=VECTOR('',#480,10.);
#137=VECTOR('',#481,10.);
#138=VECTOR('',#482,10.);
#139=VECTOR('',#485,10.);
#140=VECTOR('',#486,10.);
#141=VECTOR('',#489,10.);
#142=VECTOR('',#490,10.);
#143=VECTOR('',#493,10.);
#144=CIRCLE('',#371,1.);
#145=CIRCLE('',#372,1.);
#146=CIRCLE('',#374,1.5);
#147=CIRCLE('',#375,1.5);
#148=CIRCLE('',#379,3.42951852856523);
#149=CIRCLE('',#381,3.5);
#150=CIRCLE('',#383,1.25);
#151=CIRCLE('',#384,1.25);
#152=CIRCLE('',#387,3.42951852856523);
#153=CIRCLE('',#390,3.5);
#154=CIRCLE('',#391,3.5);
#155=CIRCLE('',#393,3.5);
#156=VERTEX_POINT('',#498);
#157=VERTEX_POINT('',#500);
#158=VERTEX_POINT('',#504);
#159=VERTEX_POINT('',#506);
#160=VERTEX_POINT('',#510);
#161=VERTEX_POINT('',#511);
#162=VERTEX_POINT('',#513);
#163=VERTEX_POINT('',#515);
#164=VERTEX_POINT('',#517);
#165=VERTEX_POINT('',#519);
#166=VERTEX_POINT('',#523);
#167=VERTEX_POINT('',#525);
#168=VERTEX_POINT('',#529);
#169=VERTEX_POINT('',#531);
#170=VERTEX_POINT('',#535);
#171=VERTEX_POINT('',#537);
#172=VERTEX_POINT('',#540);
#173=VERTEX_POINT('',#542);
#174=VERTEX_POINT('',#546);
#175=VERTEX_POINT('',#548);
#176=VERTEX_POINT('',#552);
#177=VERTEX_POINT('',#554);
#178=VERTEX_POINT('',#558);
#179=VERTEX_POINT('',#562);
#180=VERTEX_POINT('',#566);
#181=VERTEX_POINT('',#570);
#182=VERTEX_POINT('',#575);
#183=VERTEX_POINT('',#576);
#184=VERTEX_POINT('',#581);
#185=VERTEX_POINT('',#585);
#186=EDGE_CURVE('',#156,#156,#144,.T.);
#187=EDGE_CURVE('',#156,#157,#76,.T.);
#188=EDGE_CURVE('',#157,#157,#145,.T.);
#189=EDGE_CURVE('',#158,#158,#146,.T.);
#190=EDGE_CURVE('',#158,#159,#77,.T.);
#191=EDGE_CURVE('',#159,#159,#147,.T.);
#192=EDGE_CURVE('',#160,#161,#78,.T.);
#193=EDGE_CURVE('',#160,#162,#79,.T.);
#194=EDGE_CURVE('',#163,#162,#80,.T.);
#195=EDGE_CURVE('',#163,#164,#81,.T.);
#196=EDGE_CURVE('',#165,#164,#82,.T.);
#197=EDGE_CURVE('',#161,#165,#83,.T.);
#198=EDGE_CURVE('',#166,#165,#84,.T.);
#199=EDGE_CURVE('',#164,#167,#85,.T.);
#200=EDGE_CURVE('',#167,#166,#86,.T.);
#201=EDGE_CURVE('',#168,#162,#87,.T.);
#202=EDGE_CURVE('',#160,#169,#88,.T.);
#203=EDGE_CURVE('',#169,#168,#148,.T.);
#204=EDGE_CURVE('',#162,#170,#89,.T.);
#205=EDGE_CURVE('',#170,#171,#149,.T.);
#206=EDGE_CURVE('',#171,#160,#90,.T.);
#207=EDGE_CURVE('',#161,#172,#91,.T.);
#208=EDGE_CURVE('',#172,#173,#92,.T.);
#209=EDGE_CURVE('',#173,#163,#93,.T.);
#210=EDGE_CURVE('',#174,#174,#150,.T.);
#211=EDGE_CURVE('',#174,#175,#94,.T.);
#212=EDGE_CURVE('',#175,#175,#151,.T.);
#213=EDGE_CURVE('',#168,#176,#95,.T.);
#214=EDGE_CURVE('',#176,#177,#96,.T.);
#215=EDGE_CURVE('',#170,#177,#97,.T.);
#216=EDGE_CURVE('',#169,#178,#98,.T.);
#217=EDGE_CURVE('',#178,#176,#152,.T.);
#218=EDGE_CURVE('',#179,#171,#99,.T.);
#219=EDGE_CURVE('',#179,#178,#100,.T.);
#220=EDGE_CURVE('',#180,#179,#153,.T.);
#221=EDGE_CURVE('',#177,#180,#154,.T.);
#222=EDGE_CURVE('',#180,#181,#101,.T.);
#223=EDGE_CURVE('',#181,#181,#155,.T.);
#224=EDGE_CURVE('',#182,#183,#102,.T.);
#225=EDGE_CURVE('',#183,#166,#103,.T.);
#226=EDGE_CURVE('',#182,#167,#104,.T.);
#227=EDGE_CURVE('',#184,#182,#105,.T.);
#228=EDGE_CURVE('',#184,#173,#106,.T.);
#229=EDGE_CURVE('',#185,#184,#107,.T.);
#230=EDGE_CURVE('',#185,#172,#108,.T.);
#231=EDGE_CURVE('',#183,#185,#109,.T.);
#232=ORIENTED_EDGE('',*,*,#186,.F.);
#233=ORIENTED_EDGE('',*,*,#187,.T.);
#234=ORIENTED_EDGE('',*,*,#188,.F.);
#235=ORIENTED_EDGE('',*,*,#187,.F.);
#236=ORIENTED_EDGE('',*,*,#189,.F.);
#237=ORIENTED_EDGE('',*,*,#190,.T.);
#238=ORIENTED_EDGE('',*,*,#191,.F.);
#239=ORIENTED_EDGE('',*,*,#190,.F.);
#240=ORIENTED_EDGE('',*,*,#192,.F.);
#241=ORIENTED_EDGE('',*,*,#193,.T.);
#242=ORIENTED_EDGE('',*,*,#194,.F.);
#243=ORIENTED_EDGE('',*,*,#195,.T.);
#244=ORIENTED_EDGE('',*,*,#196,.F.);
#245=ORIENTED_EDGE('',*,*,#197,.F.);
#246=ORIENTED_EDGE('',*,*,#191,.T.);
#247=ORIENTED_EDGE('',*,*,#198,.T.);
#248=ORIENTED_EDGE('',*,*,#196,.T.);
#249=ORIENTED_EDGE('',*,*,#199,.T.);
#250=ORIENTED_EDGE('',*,*,#200,.T.);
#251=ORIENTED_EDGE('',*,*,#201,.T.);
#252=ORIENTED_EDGE('',*,*,#193,.F.);
#253=ORIENTED_EDGE('',*,*,#202,.T.);
#254=ORIENTED_EDGE('',*,*,#203,.T.);
#255=ORIENTED_EDGE('',*,*,#194,.T.);
#256=ORIENTED_EDGE('',*,*,#204,.T.);
#257=ORIENTED_EDGE('',*,*,#205,.T.);
#258=ORIENTED_EDGE('',*,*,#206,.T.);
#259=ORIENTED_EDGE('',*,*,#192,.T.);
#260=ORIENTED_EDGE('',*,*,#207,.T.);
#261=ORIENTED_EDGE('',*,*,#208,.T.);
#262=ORIENTED_EDGE('',*,*,#209,.T.);
#263=ORIENTED_EDGE('',*,*,#210,.F.);
#264=ORIENTED_EDGE('',*,*,#211,.T.);
#265=ORIENTED_EDGE('',*,*,#212,.F.);
#266=ORIENTED_EDGE('',*,*,#211,.F.);
#267=ORIENTED_EDGE('',*,*,#201,.F.);
#268=ORIENTED_EDGE('',*,*,#213,.T.);
#269=ORIENTED_EDGE('',*,*,#214,.T.);
#270=ORIENTED_EDGE('',*,*,#215,.F.);
#271=ORIENTED_EDGE('',*,*,#204,.F.);
#272=ORIENTED_EDGE('',*,*,#203,.F.);
#273=ORIENTED_EDGE('',*,*,#216,.T.);
#274=ORIENTED_EDGE('',*,*,#217,.T.);
#275=ORIENTED_EDGE('',*,*,#213,.F.);
#276=ORIENTED_EDGE('',*,*,#206,.F.);
#277=ORIENTED_EDGE('',*,*,#218,.F.);
#278=ORIENTED_EDGE('',*,*,#219,.T.);
#279=ORIENTED_EDGE('',*,*,#216,.F.);
#280=ORIENTED_EDGE('',*,*,#202,.F.);
#281=ORIENTED_EDGE('',*,*,#219,.F.);
#282=ORIENTED_EDGE('',*,*,#220,.F.);
#283=ORIENTED_EDGE('',*,*,#221,.F.);
#284=ORIENTED_EDGE('',*,*,#214,.F.);
#285=ORIENTED_EDGE('',*,*,#217,.F.);
#286=ORIENTED_EDGE('',*,*,#186,.T.);
#287=ORIENTED_EDGE('',*,*,#218,.T.);
#288=ORIENTED_EDGE('',*,*,#205,.F.);
#289=ORIENTED_EDGE('',*,*,#215,.T.);
#290=ORIENTED_EDGE('',*,*,#221,.T.);
#291=ORIENTED_EDGE('',*,*,#222,.T.);
#292=ORIENTED_EDGE('',*,*,#223,.T.);
#293=ORIENTED_EDGE('',*,*,#222,.F.);
#294=ORIENTED_EDGE('',*,*,#220,.T.);
#295=ORIENTED_EDGE('',*,*,#223,.F.);
#296=ORIENTED_EDGE('',*,*,#212,.T.);
#297=ORIENTED_EDGE('',*,*,#224,.T.);
#298=ORIENTED_EDGE('',*,*,#225,.T.);
#299=ORIENTED_EDGE('',*,*,#200,.F.);
#300=ORIENTED_EDGE('',*,*,#226,.F.);
#301=ORIENTED_EDGE('',*,*,#189,.T.);
#302=ORIENTED_EDGE('',*,*,#227,.T.);
#303=ORIENTED_EDGE('',*,*,#226,.T.);
#304=ORIENTED_EDGE('',*,*,#199,.F.);
#305=ORIENTED_EDGE('',*,*,#195,.F.);
#306=ORIENTED_EDGE('',*,*,#209,.F.);
#307=ORIENTED_EDGE('',*,*,#228,.F.);
#308=ORIENTED_EDGE('',*,*,#229,.T.);
#309=ORIENTED_EDGE('',*,*,#228,.T.);
#310=ORIENTED_EDGE('',*,*,#208,.F.);
#311=ORIENTED_EDGE('',*,*,#230,.F.);
#312=ORIENTED_EDGE('',*,*,#231,.T.);
#313=ORIENTED_EDGE('',*,*,#230,.T.);
#314=ORIENTED_EDGE('',*,*,#207,.F.);
#315=ORIENTED_EDGE('',*,*,#197,.T.);
#316=ORIENTED_EDGE('',*,*,#198,.F.);
#317=ORIENTED_EDGE('',*,*,#225,.F.);
#318=ORIENTED_EDGE('',*,*,#231,.F.);
#319=ORIENTED_EDGE('',*,*,#224,.F.);
#320=ORIENTED_EDGE('',*,*,#227,.F.);
#321=ORIENTED_EDGE('',*,*,#229,.F.);
#322=ORIENTED_EDGE('',*,*,#188,.T.);
#323=ORIENTED_EDGE('',*,*,#210,.T.);
#324=CYLINDRICAL_SURFACE('',#370,1.);
#325=CYLINDRICAL_SURFACE('',#373,1.5);
#326=CYLINDRICAL_SURFACE('',#382,1.25);
#327=CYLINDRICAL_SURFACE('',#386,3.42951852856523);
#328=CYLINDRICAL_SURFACE('',#392,3.5);
#329=ADVANCED_FACE('',(#34),#324,.F.);
#330=ADVANCED_FACE('',(#35),#325,.F.);
#331=ADVANCED_FACE('',(#36,#15),#21,.T.);
#332=ADVANCED_FACE('',(#37),#22,.T.);
#333=ADVANCED_FACE('',(#38),#23,.F.);
#334=ADVANCED_FACE('',(#39),#24,.T.);
#335=ADVANCED_FACE('',(#40),#326,.F.);
#336=ADVANCED_FACE('',(#41),#25,.F.);
#337=ADVANCED_FACE('',(#42),#327,.F.);
#338=ADVANCED_FACE('',(#43),#26,.F.);
#339=ADVANCED_FACE('',(#44,#16),#27,.T.);
#340=ADVANCED_FACE('',(#45),#328,.F.);
#341=ADVANCED_FACE('',(#46,#17),#28,.T.);
#342=ADVANCED_FACE('',(#47,#18),#29,.T.);
#343=ADVANCED_FACE('',(#48),#30,.T.);
#344=ADVANCED_FACE('',(#49),#31,.T.);
#345=ADVANCED_FACE('',(#50),#32,.T.);
#346=ADVANCED_FACE('',(#51,#19,#20),#33,.F.);
#347=CLOSED_SHELL('',(#329,#330,#331,#332,#333,#334,#335,#336,#337,#338,
#339,#340,#341,#342,#343,#344,#345,#346));
#348=DERIVED_UNIT_ELEMENT(#351,1.);
#349=DERIVED_UNIT_ELEMENT(#596,-3.);
#350=DIMENSIONAL_EXPONENTS(0.,1.,0.,0.,0.,0.,0.);
#351=(
CONVERSION_BASED_UNIT('gram',#353)
MASS_UNIT()
NAMED_UNIT(#350)
);
#352=(
MASS_UNIT()
NAMED_UNIT(*)
SI_UNIT(.KILO.,.GRAM.)
);
#353=MASS_MEASURE_WITH_UNIT(MASS_MEASURE(0.001),#352);
#354=DERIVED_UNIT((#348,#349));
#355=MEASURE_REPRESENTATION_ITEM('density measure',
POSITIVE_RATIO_MEASURE(1.),#354);
#356=PROPERTY_DEFINITION_REPRESENTATION(#361,#358);
#357=PROPERTY_DEFINITION_REPRESENTATION(#362,#359);
#358=REPRESENTATION('material name',(#360),#593);
#359=REPRESENTATION('density',(#355),#593);
#360=DESCRIPTIVE_REPRESENTATION_ITEM('Generic','Generic');
#361=PROPERTY_DEFINITION('material property','material name',#603);
#362=PROPERTY_DEFINITION('material property','density of part',#603);
#363=DATE_TIME_ROLE('creation_date');
#364=APPLIED_DATE_AND_TIME_ASSIGNMENT(#365,#363,(#603));
#365=DATE_AND_TIME(#366,#367);
#366=CALENDAR_DATE(2026,11,4);
#367=LOCAL_TIME(0,0,0.,#368);
#368=COORDINATED_UNIVERSAL_TIME_OFFSET(0,0,.BEHIND.);
#369=AXIS2_PLACEMENT_3D('',#496,#400,#401);
#370=AXIS2_PLACEMENT_3D('',#497,#402,#403);
#371=AXIS2_PLACEMENT_3D('',#499,#404,#405);
#372=AXIS2_PLACEMENT_3D('',#502,#407,#408);
#373=AXIS2_PLACEMENT_3D('',#503,#409,#410);
#374=AXIS2_PLACEMENT_3D('',#505,#411,#412);
#375=AXIS2_PLACEMENT_3D('',#508,#414,#415);
#376=AXIS2_PLACEMENT_3D('',#509,#416,#417);
#377=AXIS2_PLACEMENT_3D('',#522,#424,#425);
#378=AXIS2_PLACEMENT_3D('',#528,#429,#430);
#379=AXIS2_PLACEMENT_3D('',#533,#433,#434);
#380=AXIS2_PLACEMENT_3D('',#534,#435,#436);
#381=AXIS2_PLACEMENT_3D('',#538,#438,#439);
#382=AXIS2_PLACEMENT_3D('',#545,#444,#445);
#383=AXIS2_PLACEMENT_3D('',#547,#446,#447);
#384=AXIS2_PLACEMENT_3D('',#550,#449,#450);
#385=AXIS2_PLACEMENT_3D('',#551,#451,#452);
#386=AXIS2_PLACEMENT_3D('',#557,#456,#457);
#387=AXIS2_PLACEMENT_3D('',#560,#459,#460);
#388=AXIS2_PLACEMENT_3D('',#561,#461,#462);
#389=AXIS2_PLACEMENT_3D('',#565,#465,#466);
#390=AXIS2_PLACEMENT_3D('',#567,#467,#468);
#391=AXIS2_PLACEMENT_3D('',#568,#469,#470);
#392=AXIS2_PLACEMENT_3D('',#569,#471,#472);
#393=AXIS2_PLACEMENT_3D('',#572,#474,#475);
#394=AXIS2_PLACEMENT_3D('',#573,#476,#477);
#395=AXIS2_PLACEMENT_3D('',#574,#478,#479);
#396=AXIS2_PLACEMENT_3D('',#580,#483,#484);
#397=AXIS2_PLACEMENT_3D('',#584,#487,#488);
#398=AXIS2_PLACEMENT_3D('',#588,#491,#492);
#399=AXIS2_PLACEMENT_3D('',#590,#494,#495);
#400=DIRECTION('axis',(0.,0.,1.));
#401=DIRECTION('refdir',(1.,0.,0.));
#402=DIRECTION('center_axis',(-1.,0.,0.));
#403=DIRECTION('ref_axis',(0.,0.,-1.));
#404=DIRECTION('center_axis',(-1.,0.,0.));
#405=DIRECTION('ref_axis',(0.,0.,-1.));
#406=DIRECTION('',(-1.,0.,0.));
#407=DIRECTION('center_axis',(1.,0.,0.));
#408=DIRECTION('ref_axis',(0.,0.,-1.));
#409=DIRECTION('center_axis',(0.,0.,-1.));
#410=DIRECTION('ref_axis',(1.,0.,0.));
#411=DIRECTION('center_axis',(0.,0.,-1.));
#412=DIRECTION('ref_axis',(1.,0.,0.));
#413=DIRECTION('',(0.,0.,-1.));
#414=DIRECTION('center_axis',(0.,0.,1.));
#415=DIRECTION('ref_axis',(1.,0.,0.));
#416=DIRECTION('center_axis',(0.,0.,-1.));
#417=DIRECTION('ref_axis',(0.,1.,0.));
#418=DIRECTION('',(0.,-1.,0.));
#419=DIRECTION('',(0.,1.,0.));
#420=DIRECTION('',(0.,-1.,0.));
#421=DIRECTION('',(1.,0.,0.));
#422=DIRECTION('',(0.,1.,0.));
#423=DIRECTION('',(1.,0.,0.));
#424=DIRECTION('center_axis',(1.,0.,0.));
#425=DIRECTION('ref_axis',(0.,0.,-1.));
#426=DIRECTION('',(0.,1.38777878078145E-16,-1.));
#427=DIRECTION('',(0.,-5.08852219619863E-16,1.));
#428=DIRECTION('',(0.,-1.,0.));
#429=DIRECTION('center_axis',(1.,0.,0.));
#430=DIRECTION('ref_axis',(0.,0.,-1.));
#431=DIRECTION('',(0.,0.0960263349254589,-0.995378793726682));
#432=DIRECTION('',(0.,0.0960263349254582,0.995378793726682));
#433=DIRECTION('center_axis',(-1.,0.,0.));
#434=DIRECTION('ref_axis',(0.,0.51027570938132,0.860010872265805));
#435=DIRECTION('center_axis',(1.,0.,0.));
#436=DIRECTION('ref_axis',(0.,0.,-1.));
#437=DIRECTION('',(0.,0.0960263349254589,-0.995378793726682));
#438=DIRECTION('center_axis',(-1.,0.,0.));
#439=DIRECTION('ref_axis',(0.,0.,1.));
#440=DIRECTION('',(0.,0.0960263349254582,0.995378793726682));
#441=DIRECTION('',(0.,1.38777878078145E-16,-1.));
#442=DIRECTION('',(0.,1.,0.));
#443=DIRECTION('',(0.,4.62592926927148E-16,1.));
#444=DIRECTION('center_axis',(1.,0.,0.));
#445=DIRECTION('ref_axis',(0.,0.,1.));
#446=DIRECTION('center_axis',(1.,0.,0.));
#447=DIRECTION('ref_axis',(0.,0.,1.));
#448=DIRECTION('',(1.,0.,0.));
#449=DIRECTION('center_axis',(-1.,0.,0.));
#450=DIRECTION('ref_axis',(0.,0.,1.));
#451=DIRECTION('center_axis',(0.,0.995378793726682,0.0960263349254589));
#452=DIRECTION('ref_axis',(0.,0.0960263349254589,-0.995378793726682));
#453=DIRECTION('',(-1.,0.,0.));
#454=DIRECTION('',(0.,0.0960263349254589,-0.995378793726682));
#455=DIRECTION('',(-1.,0.,0.));
#456=DIRECTION('center_axis',(-1.,0.,0.));
#457=DIRECTION('ref_axis',(0.,0.51027570938132,0.860010872265805));
#458=DIRECTION('',(-1.,0.,0.));
#459=DIRECTION('center_axis',(-1.,0.,0.));
#460=DIRECTION('ref_axis',(0.,0.51027570938132,0.860010872265805));
#461=DIRECTION('center_axis',(0.,-0.995378793726682,0.0960263349254582));
#462=DIRECTION('ref_axis',(0.,0.0960263349254582,0.995378793726682));
#463=DIRECTION('',(1.,0.,0.));
#464=DIRECTION('',(0.,0.0960263349254582,0.995378793726682));
#465=DIRECTION('center_axis',(1.,0.,0.));
#466=DIRECTION('ref_axis',(0.,0.,-1.));
#467=DIRECTION('center_axis',(1.,0.,0.));
#468=DIRECTION('ref_axis',(0.,0.,-1.));
#469=DIRECTION('center_axis',(1.,0.,0.));
#470=DIRECTION('ref_axis',(0.,0.,-1.));
#471=DIRECTION('center_axis',(-1.,0.,0.));
#472=DIRECTION('ref_axis',(0.,0.,-1.));
#473=DIRECTION('',(-1.,0.,0.));
#474=DIRECTION('center_axis',(-1.,0.,0.));
#475=DIRECTION('ref_axis',(0.,0.,-1.));
#476=DIRECTION('center_axis',(1.,0.,0.));
#477=DIRECTION('ref_axis',(0.,0.,-1.));
#478=DIRECTION('center_axis',(0.,0.,1.));
#479=DIRECTION('ref_axis',(0.,-1.,0.));
#480=DIRECTION('',(0.,-1.,0.));
#481=DIRECTION('',(1.,0.,0.));
#482=DIRECTION('',(1.,0.,0.));
#483=DIRECTION('center_axis',(0.,1.,4.16333634234434E-16));
#484=DIRECTION('ref_axis',(0.,-4.16333634234434E-16,1.));
#485=DIRECTION('',(0.,-4.16333634234434E-16,1.));
#486=DIRECTION('',(1.,0.,0.));
#487=DIRECTION('center_axis',(0.,0.,-1.));
#488=DIRECTION('ref_axis',(0.,1.,0.));
#489=DIRECTION('',(0.,1.,0.));
#490=DIRECTION('',(1.,0.,0.));
#491=DIRECTION('center_axis',(0.,-1.,-1.38777878078145E-16));
#492=DIRECTION('ref_axis',(0.,1.38777878078145E-16,-1.));
#493=DIRECTION('',(0.,1.38777878078145E-16,-1.));
#494=DIRECTION('center_axis',(1.,0.,0.));
#495=DIRECTION('ref_axis',(0.,0.,-1.));
#496=CARTESIAN_POINT('',(0.,0.,0.));
#497=CARTESIAN_POINT('Origin',(1.8,0.132352941176468,-25.7794089387941));
#498=CARTESIAN_POINT('',(1.8,0.132352941176468,-24.7794089387941));
#499=CARTESIAN_POINT('Origin',(1.8,0.132352941176468,-25.7794089387941));
#500=CARTESIAN_POINT('',(0.,0.132352941176468,-24.7794089387941));
#501=CARTESIAN_POINT('',(1.8,0.132352941176468,-24.7794089387941));
#502=CARTESIAN_POINT('Origin',(0.,0.132352941176468,-25.7794089387941));
#503=CARTESIAN_POINT('Origin',(45.279,0.13235294117646,-19.2794089387941));
#504=CARTESIAN_POINT('',(43.779,0.13235294117646,-19.2794089387941));
#505=CARTESIAN_POINT('Origin',(45.279,0.13235294117646,-19.2794089387941));
#506=CARTESIAN_POINT('',(43.779,0.13235294117646,-22.2794089387941));
#507=CARTESIAN_POINT('',(43.779,0.13235294117646,-19.2794089387941));
#508=CARTESIAN_POINT('Origin',(45.279,0.13235294117646,-22.2794089387941));
#509=CARTESIAN_POINT('Origin',(4.3,-5.86764705882354,-22.2794089387941));
#510=CARTESIAN_POINT('',(4.3,-1.61956730737,-22.2794089387941));
#511=CARTESIAN_POINT('',(4.3,-5.86764705882354,-22.2794089387941));
#512=CARTESIAN_POINT('',(4.3,-2.86764705882353,-22.2794089387941));
#513=CARTESIAN_POINT('',(4.3,1.88427318972293,-22.2794089387941));
#514=CARTESIAN_POINT('',(4.3,-5.86764705882354,-22.2794089387941));
#515=CARTESIAN_POINT('',(4.3,6.13235294117646,-22.2794089387941));
#516=CARTESIAN_POINT('',(4.3,-2.86764705882353,-22.2794089387941));
#517=CARTESIAN_POINT('',(49.8,6.13235294117646,-22.2794089387941));
#518=CARTESIAN_POINT('',(4.3,6.13235294117646,-22.2794089387941));
#519=CARTESIAN_POINT('',(49.8,-5.86764705882354,-22.2794089387941));
#520=CARTESIAN_POINT('',(49.8,-5.86764705882354,-22.2794089387941));
#521=CARTESIAN_POINT('',(4.3,-5.86764705882354,-22.2794089387941));
#522=CARTESIAN_POINT('Origin',(49.8,0.132352941176463,-20.7794089387941));
#523=CARTESIAN_POINT('',(49.8,-5.86764705882354,-19.2794089387941));
#524=CARTESIAN_POINT('',(49.8,-5.86764705882354,-19.2794089387941));
#525=CARTESIAN_POINT('',(49.8,6.13235294117646,-19.2794089387941));
#526=CARTESIAN_POINT('',(49.8,6.13235294117647,-43.2794089387941));
#527=CARTESIAN_POINT('',(49.8,6.13235294117646,-19.2794089387941));
#528=CARTESIAN_POINT('Origin',(4.3,0.132352941176464,-20.7794089387941));
#529=CARTESIAN_POINT('',(4.3,1.88235294117646,-22.2595042461562));
#530=CARTESIAN_POINT('',(4.3,2.30535738562317,-26.6442353095799));
#531=CARTESIAN_POINT('',(4.3,-1.61764705882354,-22.2595042461562));
#532=CARTESIAN_POINT('',(4.3,-2.7395876519116,-33.8891876558988));
#533=CARTESIAN_POINT('Origin',(4.3,0.132352941176463,-25.2089274673593));
#534=CARTESIAN_POINT('Origin',(4.3,0.13235294117647,-31.2794089387941));
#535=CARTESIAN_POINT('',(4.3,3.28022523845919,-36.7494089387941));
#536=CARTESIAN_POINT('',(4.3,2.30535738562317,-26.6442353095799));
#537=CARTESIAN_POINT('',(4.3,-3.01551935610625,-36.7494089387941));
#538=CARTESIAN_POINT('Origin',(4.3,0.132352941176468,-38.2794089387941));
#539=CARTESIAN_POINT('',(4.3,-2.7395876519116,-33.8891876558988));
#540=CARTESIAN_POINT('',(4.3,-5.86764705882353,-43.2794089387941));
#541=CARTESIAN_POINT('',(4.3,-5.86764705882354,-19.2794089387941));
#542=CARTESIAN_POINT('',(4.3,6.13235294117647,-43.2794089387941));
#543=CARTESIAN_POINT('',(4.3,-5.86764705882353,-43.2794089387941));
#544=CARTESIAN_POINT('',(4.3,6.13235294117645,-43.2794089387941));
#545=CARTESIAN_POINT('Origin',(0.,0.132352941176468,-38.2794089387941));
#546=CARTESIAN_POINT('',(0.,0.132352941176468,-39.5294089387941));
#547=CARTESIAN_POINT('Origin',(0.,0.132352941176468,-38.2794089387941));
#548=CARTESIAN_POINT('',(1.,0.132352941176468,-39.5294089387941));
#549=CARTESIAN_POINT('',(0.,0.132352941176468,-39.5294089387941));
#550=CARTESIAN_POINT('Origin',(1.,0.132352941176468,-38.2794089387941));
#551=CARTESIAN_POINT('Origin',(4.3,1.88235294117646,-22.2595042461562));
#552=CARTESIAN_POINT('',(1.8,1.88235294117646,-22.2595042461562));
#553=CARTESIAN_POINT('',(4.3,1.88235294117646,-22.2595042461562));
#554=CARTESIAN_POINT('',(1.8,3.28022523845919,-36.7494089387941));
#555=CARTESIAN_POINT('',(1.8,3.28022523845919,-36.7494089387941));
#556=CARTESIAN_POINT('',(1.8,3.28022523845919,-36.7494089387941));
#557=CARTESIAN_POINT('Origin',(4.3,0.132352941176463,-25.2089274673593));
#558=CARTESIAN_POINT('',(1.8,-1.61764705882354,-22.2595042461562));
#559=CARTESIAN_POINT('',(4.3,-1.61764705882354,-22.2595042461562));
#560=CARTESIAN_POINT('Origin',(1.8,0.132352941176463,-25.2089274673593));
#561=CARTESIAN_POINT('Origin',(4.3,-3.01551935610625,-36.7494089387941));
#562=CARTESIAN_POINT('',(1.8,-3.01551935610625,-36.7494089387941));
#563=CARTESIAN_POINT('',(1.8,-3.01551935610625,-36.7494089387941));
#564=CARTESIAN_POINT('',(1.8,-1.61764705882354,-22.2595042461562));
#565=CARTESIAN_POINT('Origin',(1.8,0.132352941176468,-29.2644089387941));
#566=CARTESIAN_POINT('',(1.8,0.132352941176468,-34.7794089387941));
#567=CARTESIAN_POINT('Origin',(1.8,0.132352941176468,-38.2794089387941));
#568=CARTESIAN_POINT('Origin',(1.8,0.132352941176468,-38.2794089387941));
#569=CARTESIAN_POINT('Origin',(1.8,0.132352941176468,-38.2794089387941));
#570=CARTESIAN_POINT('',(1.,0.132352941176468,-34.7794089387941));
#571=CARTESIAN_POINT('',(1.8,0.132352941176468,-34.7794089387941));
#572=CARTESIAN_POINT('Origin',(1.,0.132352941176468,-38.2794089387941));
#573=CARTESIAN_POINT('Origin',(1.,0.132352941176468,-38.2794089387941));
#574=CARTESIAN_POINT('Origin',(0.,6.13235294117646,-19.2794089387941));
#575=CARTESIAN_POINT('',(0.,6.13235294117646,-19.2794089387941));
#576=CARTESIAN_POINT('',(0.,-5.86764705882354,-19.2794089387941));
#577=CARTESIAN_POINT('',(0.,6.13235294117646,-19.2794089387941));
#578=CARTESIAN_POINT('',(0.,-5.86764705882354,-19.2794089387941));
#579=CARTESIAN_POINT('',(0.,6.13235294117646,-19.2794089387941));
#580=CARTESIAN_POINT('Origin',(0.,6.13235294117647,-43.2794089387941));
#581=CARTESIAN_POINT('',(0.,6.13235294117647,-43.2794089387941));
#582=CARTESIAN_POINT('',(0.,6.13235294117647,-43.2794089387941));
#583=CARTESIAN_POINT('',(0.,6.13235294117647,-43.2794089387941));
#584=CARTESIAN_POINT('Origin',(0.,-5.86764705882353,-43.2794089387941));
#585=CARTESIAN_POINT('',(0.,-5.86764705882353,-43.2794089387941));
#586=CARTESIAN_POINT('',(0.,-5.86764705882353,-43.2794089387941));
#587=CARTESIAN_POINT('',(0.,-5.86764705882353,-43.2794089387941));
#588=CARTESIAN_POINT('Origin',(0.,-5.86764705882354,-19.2794089387941));
#589=CARTESIAN_POINT('',(0.,-5.86764705882354,-19.2794089387941));
#590=CARTESIAN_POINT('Origin',(0.,0.13235294117647,-31.2794089387941));
#591=UNCERTAINTY_MEASURE_WITH_UNIT(LENGTH_MEASURE(0.01),#595,
'DISTANCE_ACCURACY_VALUE',
'Maximum model space distance between geometric entities at asserted c
onnectivities');
#592=UNCERTAINTY_MEASURE_WITH_UNIT(LENGTH_MEASURE(0.01),#595,
'DISTANCE_ACCURACY_VALUE',
'Maximum model space distance between geometric entities at asserted c
onnectivities');
#593=(
GEOMETRIC_REPRESENTATION_CONTEXT(3)
GLOBAL_UNCERTAINTY_ASSIGNED_CONTEXT((#591))
GLOBAL_UNIT_ASSIGNED_CONTEXT((#595,#597,#598))
REPRESENTATION_CONTEXT('','3D')
);
#594=(
GEOMETRIC_REPRESENTATION_CONTEXT(3)
GLOBAL_UNCERTAINTY_ASSIGNED_CONTEXT((#592))
GLOBAL_UNIT_ASSIGNED_CONTEXT((#595,#597,#598))
REPRESENTATION_CONTEXT('','3D')
);
#595=(
LENGTH_UNIT()
NAMED_UNIT(*)
SI_UNIT(.MILLI.,.METRE.)
);
#596=(
LENGTH_UNIT()
NAMED_UNIT(*)
SI_UNIT(.CENTI.,.METRE.)
);
#597=(
NAMED_UNIT(*)
PLANE_ANGLE_UNIT()
SI_UNIT($,.RADIAN.)
);
#598=(
NAMED_UNIT(*)
SI_UNIT($,.STERADIAN.)
SOLID_ANGLE_UNIT()
);
#599=SHAPE_DEFINITION_REPRESENTATION(#600,#601);
#600=PRODUCT_DEFINITION_SHAPE('',$,#603);
#601=SHAPE_REPRESENTATION('',(#369),#593);
#602=PRODUCT_DEFINITION_CONTEXT('part definition',#607,'design');
#603=PRODUCT_DEFINITION('18_2','18_2',#604,#602);
#604=PRODUCT_DEFINITION_FORMATION('',$,#609);
#605=PRODUCT_RELATED_PRODUCT_CATEGORY('18_2','18_2',(#609));
#606=APPLICATION_PROTOCOL_DEFINITION('international standard',
'automotive_design',2009,#607);
#607=APPLICATION_CONTEXT(
'Core Data for Automotive Mechanical Design Process');
#608=PRODUCT_CONTEXT('part definition',#607,'mechanical');
#609=PRODUCT('18_2','18_2',$,(#608));
#610=PRESENTATION_STYLE_ASSIGNMENT((#611));
#611=SURFACE_STYLE_USAGE(.BOTH.,#614);
#612=SURFACE_STYLE_RENDERING_WITH_PROPERTIES($,#618,(#613));
#613=SURFACE_STYLE_TRANSPARENT(0.);
#614=SURFACE_SIDE_STYLE('',(#615,#612));
#615=SURFACE_STYLE_FILL_AREA(#616);
#616=FILL_AREA_STYLE('',(#617));
#617=FILL_AREA_STYLE_COLOUR('',#618);
#618=COLOUR_RGB('',0.749019607843137,0.749019607843137,0.749019607843137);
ENDSEC;
END-ISO-10303-21;
