ISO-10303-21;
HEADER;
/* Generated by software containing ST-Developer
 * from STEP Tools, Inc. (www.steptools.com) 
 */

FILE_DESCRIPTION(
/* description */ (''),
/* implementation_level */ '2;1');

FILE_NAME(
/* name */ '4_1.stp',
/* time_stamp */ '2026-04-22T14:01:51+02:00',
/* author */ ('irach'),
/* organization */ (''),
/* preprocessor_version */ 'ST-DEVELOPER v20.1',
/* originating_system */ 'Autodesk Inventor 2026',
/* authorisation */ '');

FILE_SCHEMA (('AUTOMOTIVE_DESIGN { 1 0 10303 214 3 1 1 }'));
ENDSEC;

DATA;
#10=MECHANICAL_DESIGN_GEOMETRIC_PRESENTATION_REPRESENTATION('',(#17,#18,
#19,#20,#21,#22,#23,#24,#25,#26,#27,#28,#29,#30,#31,#32,#33,#34,#35,#36,
#37,#38,#39,#40,#41,#42,#43,#44,#45),#1067);
#11=GEOMETRICALLY_BOUNDED_WIREFRAME_SHAPE_REPRESENTATION('',(#12),#1066);
#12=GEOMETRIC_CURVE_SET('Sketch13',(#1063));
#13=SHAPE_REPRESENTATION_RELATIONSHIP('SRR','None',#1074,#15);
#14=SHAPE_REPRESENTATION_RELATIONSHIP('SRR','None',#1074,#11);
#15=ADVANCED_BREP_SHAPE_REPRESENTATION('',(#16),#1066);
#16=MANIFOLD_SOLID_BREP('Solid1',#641);
#17=STYLED_ITEM('',(#1084),#612);
#18=STYLED_ITEM('',(#1084),#614);
#19=STYLED_ITEM('',(#1084),#615);
#20=STYLED_ITEM('',(#1084),#616);
#21=STYLED_ITEM('',(#1084),#617);
#22=STYLED_ITEM('',(#1084),#618);
#23=STYLED_ITEM('',(#1084),#619);
#24=STYLED_ITEM('',(#1084),#620);
#25=STYLED_ITEM('',(#1084),#621);
#26=STYLED_ITEM('',(#1084),#622);
#27=STYLED_ITEM('',(#1084),#623);
#28=STYLED_ITEM('',(#1084),#624);
#29=STYLED_ITEM('',(#1084),#625);
#30=STYLED_ITEM('',(#1084),#626);
#31=STYLED_ITEM('',(#1084),#627);
#32=STYLED_ITEM('',(#1084),#628);
#33=STYLED_ITEM('',(#1084),#629);
#34=STYLED_ITEM('',(#1084),#630);
#35=STYLED_ITEM('',(#1084),#631);
#36=STYLED_ITEM('',(#1084),#632);
#37=STYLED_ITEM('',(#1084),#633);
#38=STYLED_ITEM('',(#1084),#634);
#39=STYLED_ITEM('',(#1084),#635);
#40=STYLED_ITEM('',(#1084),#636);
#41=STYLED_ITEM('',(#1084),#637);
#42=STYLED_ITEM('',(#1084),#638);
#43=STYLED_ITEM('',(#1084),#639);
#44=STYLED_ITEM('',(#1084),#640);
#45=STYLED_ITEM('',(#1083),#16);
#46=FACE_BOUND('',#115,.T.);
#47=FACE_BOUND('',#120,.T.);
#48=FACE_BOUND('',#121,.T.);
#49=FACE_BOUND('',#131,.T.);
#50=FACE_BOUND('',#136,.T.);
#51=FACE_BOUND('',#139,.T.);
#52=FACE_BOUND('',#140,.T.);
#53=FACE_BOUND('',#151,.T.);
#54=FACE_BOUND('',#152,.T.);
#55=FACE_BOUND('',#153,.T.);
#56=FACE_BOUND('',#154,.T.);
#57=PLANE('',#667);
#58=PLANE('',#668);
#59=PLANE('',#670);
#60=PLANE('',#674);
#61=PLANE('',#681);
#62=PLANE('',#688);
#63=PLANE('',#701);
#64=PLANE('',#702);
#65=PLANE('',#703);
#66=PLANE('',#704);
#67=PLANE('',#705);
#68=PLANE('',#706);
#69=PLANE('',#707);
#70=PLANE('',#708);
#71=PLANE('',#709);
#72=PLANE('',#710);
#73=PLANE('',#711);
#74=PLANE('',#712);
#75=PLANE('',#715);
#76=PLANE('',#716);
#77=PLANE('',#717);
#78=PLANE('',#718);
#79=PLANE('',#719);
#80=FACE_OUTER_BOUND('',#112,.T.);
#81=FACE_OUTER_BOUND('',#113,.T.);
#82=FACE_OUTER_BOUND('',#114,.T.);
#83=FACE_OUTER_BOUND('',#116,.T.);
#84=FACE_OUTER_BOUND('',#117,.T.);
#85=FACE_OUTER_BOUND('',#118,.T.);
#86=FACE_OUTER_BOUND('',#119,.T.);
#87=FACE_OUTER_BOUND('',#122,.T.);
#88=FACE_OUTER_BOUND('',#123,.T.);
#89=FACE_OUTER_BOUND('',#124,.T.);
#90=FACE_OUTER_BOUND('',#125,.T.);
#91=FACE_OUTER_BOUND('',#126,.T.);
#92=FACE_OUTER_BOUND('',#127,.T.);
#93=FACE_OUTER_BOUND('',#128,.T.);
#94=FACE_OUTER_BOUND('',#129,.T.);
#95=FACE_OUTER_BOUND('',#130,.T.);
#96=FACE_OUTER_BOUND('',#132,.T.);
#97=FACE_OUTER_BOUND('',#133,.T.);
#98=FACE_OUTER_BOUND('',#134,.T.);
#99=FACE_OUTER_BOUND('',#135,.T.);
#100=FACE_OUTER_BOUND('',#137,.T.);
#101=FACE_OUTER_BOUND('',#138,.T.);
#102=FACE_OUTER_BOUND('',#141,.T.);
#103=FACE_OUTER_BOUND('',#142,.T.);
#104=FACE_OUTER_BOUND('',#143,.T.);
#105=FACE_OUTER_BOUND('',#144,.T.);
#106=FACE_OUTER_BOUND('',#145,.T.);
#107=FACE_OUTER_BOUND('',#146,.T.);
#108=FACE_OUTER_BOUND('',#147,.T.);
#109=FACE_OUTER_BOUND('',#148,.T.);
#110=FACE_OUTER_BOUND('',#149,.T.);
#111=FACE_OUTER_BOUND('',#150,.T.);
#112=EDGE_LOOP('',(#434,#435,#436,#437));
#113=EDGE_LOOP('',(#438));
#114=EDGE_LOOP('',(#439));
#115=EDGE_LOOP('',(#440));
#116=EDGE_LOOP('',(#441,#442,#443));
#117=EDGE_LOOP('',(#444,#445,#446,#447,#448));
#118=EDGE_LOOP('',(#449,#450,#451,#452,#453,#454,#455,#456));
#119=EDGE_LOOP('',(#457,#458,#459,#460,#461,#462,#463,#464,#465,#466,#467,
#468,#469,#470,#471,#472,#473,#474));
#120=EDGE_LOOP('',(#475));
#121=EDGE_LOOP('',(#476));
#122=EDGE_LOOP('',(#477,#478,#479,#480));
#123=EDGE_LOOP('',(#481));
#124=EDGE_LOOP('',(#482,#483,#484,#485));
#125=EDGE_LOOP('',(#486,#487,#488,#489,#490,#491));
#126=EDGE_LOOP('',(#492,#493,#494,#495));
#127=EDGE_LOOP('',(#496,#497,#498,#499));
#128=EDGE_LOOP('',(#500,#501,#502,#503));
#129=EDGE_LOOP('',(#504,#505,#506,#507));
#130=EDGE_LOOP('',(#508,#509,#510,#511));
#131=EDGE_LOOP('',(#512));
#132=EDGE_LOOP('',(#513,#514,#515,#516));
#133=EDGE_LOOP('',(#517,#518,#519,#520));
#134=EDGE_LOOP('',(#521,#522,#523,#524));
#135=EDGE_LOOP('',(#525,#526,#527,#528));
#136=EDGE_LOOP('',(#529));
#137=EDGE_LOOP('',(#530,#531,#532,#533));
#138=EDGE_LOOP('',(#534,#535,#536,#537,#538,#539,#540,#541,#542,#543));
#139=EDGE_LOOP('',(#544));
#140=EDGE_LOOP('',(#545));
#141=EDGE_LOOP('',(#546,#547,#548,#549));
#142=EDGE_LOOP('',(#550,#551,#552,#553));
#143=EDGE_LOOP('',(#554,#555,#556,#557));
#144=EDGE_LOOP('',(#558,#559,#560,#561,#562));
#145=EDGE_LOOP('',(#563,#564,#565,#566));
#146=EDGE_LOOP('',(#567,#568,#569,#570,#571));
#147=EDGE_LOOP('',(#572,#573,#574,#575));
#148=EDGE_LOOP('',(#576,#577,#578,#579));
#149=EDGE_LOOP('',(#580,#581,#582,#583,#584,#585));
#150=EDGE_LOOP('',(#586,#587,#588,#589,#590,#591,#592,#593,#594,#595));
#151=EDGE_LOOP('',(#596));
#152=EDGE_LOOP('',(#597));
#153=EDGE_LOOP('',(#598));
#154=EDGE_LOOP('',(#599));
#155=LINE('',#898,#214);
#156=LINE('',#914,#215);
#157=LINE('',#918,#216);
#158=LINE('',#923,#217);
#159=LINE('',#929,#218);
#160=LINE('',#931,#219);
#161=LINE('',#933,#220);
#162=LINE('',#935,#221);
#163=LINE('',#937,#222);
#164=LINE('',#939,#223);
#165=LINE('',#941,#224);
#166=LINE('',#943,#225);
#167=LINE('',#945,#226);
#168=LINE('',#947,#227);
#169=LINE('',#949,#228);
#170=LINE('',#951,#229);
#171=LINE('',#953,#230);
#172=LINE('',#955,#231);
#173=LINE('',#956,#232);
#174=LINE('',#965,#233);
#175=LINE('',#970,#234);
#176=LINE('',#974,#235);
#177=LINE('',#978,#236);
#178=LINE('',#984,#237);
#179=LINE('',#990,#238);
#180=LINE('',#994,#239);
#181=LINE('',#996,#240);
#182=LINE('',#997,#241);
#183=LINE('',#1000,#242);
#184=LINE('',#1001,#243);
#185=LINE('',#1004,#244);
#186=LINE('',#1005,#245);
#187=LINE('',#1007,#246);
#188=LINE('',#1010,#247);
#189=LINE('',#1012,#248);
#190=LINE('',#1013,#249);
#191=LINE('',#1016,#250);
#192=LINE('',#1017,#251);
#193=LINE('',#1020,#252);
#194=LINE('',#1021,#253);
#195=LINE('',#1025,#254);
#196=LINE('',#1026,#255);
#197=LINE('',#1027,#256);
#198=LINE('',#1030,#257);
#199=LINE('',#1031,#258);
#200=LINE('',#1034,#259);
#201=LINE('',#1035,#260);
#202=LINE('',#1038,#261);
#203=LINE('',#1039,#262);
#204=LINE('',#1042,#263);
#205=LINE('',#1043,#264);
#206=LINE('',#1046,#265);
#207=LINE('',#1050,#266);
#208=LINE('',#1051,#267);
#209=LINE('',#1054,#268);
#210=LINE('',#1055,#269);
#211=LINE('',#1058,#270);
#212=LINE('',#1059,#271);
#213=LINE('',#1061,#272);
#214=VECTOR('',#726,1.9);
#215=VECTOR('',#745,10.);
#216=VECTOR('',#748,10.);
#217=VECTOR('',#755,5.);
#218=VECTOR('',#764,10.);
#219=VECTOR('',#765,10.);
#220=VECTOR('',#766,10.);
#221=VECTOR('',#767,10.);
#222=VECTOR('',#768,10.);
#223=VECTOR('',#769,10.);
#224=VECTOR('',#770,10.);
#225=VECTOR('',#771,10.);
#226=VECTOR('',#772,10.);
#227=VECTOR('',#773,10.);
#228=VECTOR('',#774,10.);
#229=VECTOR('',#775,10.);
#230=VECTOR('',#776,10.);
#231=VECTOR('',#777,10.);
#232=VECTOR('',#778,10.);
#233=VECTOR('',#787,2.);
#234=VECTOR('',#794,1.);
#235=VECTOR('',#799,1.);
#236=VECTOR('',#804,1.);
#237=VECTOR('',#811,0.999999999999999);
#238=VECTOR('',#818,1.);
#239=VECTOR('',#823,10.);
#240=VECTOR('',#824,10.);
#241=VECTOR('',#825,10.);
#242=VECTOR('',#828,10.);
#243=VECTOR('',#829,10.);
#244=VECTOR('',#832,10.);
#245=VECTOR('',#833,10.);
#246=VECTOR('',#836,10.);
#247=VECTOR('',#839,10.);
#248=VECTOR('',#840,10.);
#249=VECTOR('',#841,10.);
#250=VECTOR('',#844,10.);
#251=VECTOR('',#845,10.);
#252=VECTOR('',#848,10.);
#253=VECTOR('',#849,10.);
#254=VECTOR('',#852,10.);
#255=VECTOR('',#853,10.);
#256=VECTOR('',#854,10.);
#257=VECTOR('',#857,10.);
#258=VECTOR('',#858,10.);
#259=VECTOR('',#861,10.);
#260=VECTOR('',#862,10.);
#261=VECTOR('',#865,10.);
#262=VECTOR('',#866,10.);
#263=VECTOR('',#869,10.);
#264=VECTOR('',#870,10.);
#265=VECTOR('',#873,10.);
#266=VECTOR('',#878,10.);
#267=VECTOR('',#879,10.);
#268=VECTOR('',#882,10.);
#269=VECTOR('',#883,10.);
#270=VECTOR('',#886,10.);
#271=VECTOR('',#887,10.);
#272=VECTOR('',#890,10.);
#273=CIRCLE('',#665,1.9);
#274=CIRCLE('',#666,1.9);
#275=CIRCLE('',#669,5.);
#276=CIRCLE('',#671,1.);
#277=CIRCLE('',#672,1.);
#278=CIRCLE('',#673,5.);
#279=CIRCLE('',#675,4.7);
#280=CIRCLE('',#676,5.);
#281=CIRCLE('',#677,5.);
#282=CIRCLE('',#679,5.);
#283=CIRCLE('',#680,5.);
#284=CIRCLE('',#682,1.);
#285=CIRCLE('',#683,1.);
#286=CIRCLE('',#684,1.);
#287=CIRCLE('',#686,2.);
#288=CIRCLE('',#687,2.);
#289=CIRCLE('',#690,1.);
#290=CIRCLE('',#692,1.);
#291=CIRCLE('',#694,1.);
#292=CIRCLE('',#696,0.999999999999999);
#293=CIRCLE('',#697,0.999999999999999);
#294=CIRCLE('',#699,1.);
#295=CIRCLE('',#700,1.);
#296=CIRCLE('',#714,4.7);
#297=VERTEX_POINT('',#895);
#298=VERTEX_POINT('',#897);
#299=VERTEX_POINT('',#902);
#300=VERTEX_POINT('',#905);
#301=VERTEX_POINT('',#906);
#302=VERTEX_POINT('',#908);
#303=VERTEX_POINT('',#912);
#304=VERTEX_POINT('',#913);
#305=VERTEX_POINT('',#915);
#306=VERTEX_POINT('',#917);
#307=VERTEX_POINT('',#919);
#308=VERTEX_POINT('',#928);
#309=VERTEX_POINT('',#930);
#310=VERTEX_POINT('',#932);
#311=VERTEX_POINT('',#934);
#312=VERTEX_POINT('',#936);
#313=VERTEX_POINT('',#938);
#314=VERTEX_POINT('',#940);
#315=VERTEX_POINT('',#942);
#316=VERTEX_POINT('',#944);
#317=VERTEX_POINT('',#946);
#318=VERTEX_POINT('',#948);
#319=VERTEX_POINT('',#950);
#320=VERTEX_POINT('',#952);
#321=VERTEX_POINT('',#954);
#322=VERTEX_POINT('',#957);
#323=VERTEX_POINT('',#959);
#324=VERTEX_POINT('',#962);
#325=VERTEX_POINT('',#964);
#326=VERTEX_POINT('',#969);
#327=VERTEX_POINT('',#973);
#328=VERTEX_POINT('',#977);
#329=VERTEX_POINT('',#981);
#330=VERTEX_POINT('',#983);
#331=VERTEX_POINT('',#987);
#332=VERTEX_POINT('',#989);
#333=VERTEX_POINT('',#993);
#334=VERTEX_POINT('',#995);
#335=VERTEX_POINT('',#999);
#336=VERTEX_POINT('',#1003);
#337=VERTEX_POINT('',#1009);
#338=VERTEX_POINT('',#1011);
#339=VERTEX_POINT('',#1015);
#340=VERTEX_POINT('',#1019);
#341=VERTEX_POINT('',#1023);
#342=VERTEX_POINT('',#1024);
#343=VERTEX_POINT('',#1029);
#344=VERTEX_POINT('',#1033);
#345=VERTEX_POINT('',#1037);
#346=VERTEX_POINT('',#1041);
#347=VERTEX_POINT('',#1045);
#348=VERTEX_POINT('',#1049);
#349=VERTEX_POINT('',#1053);
#350=VERTEX_POINT('',#1057);
#351=EDGE_CURVE('',#297,#297,#273,.T.);
#352=EDGE_CURVE('',#297,#298,#155,.T.);
#353=EDGE_CURVE('',#298,#298,#274,.T.);
#354=EDGE_CURVE('',#299,#299,#275,.T.);
#355=EDGE_CURVE('',#300,#301,#276,.T.);
#356=EDGE_CURVE('',#301,#302,#277,.T.);
#357=EDGE_CURVE('',#302,#300,#278,.T.);
#358=EDGE_CURVE('',#303,#304,#156,.T.);
#359=EDGE_CURVE('',#304,#305,#279,.T.);
#360=EDGE_CURVE('',#305,#306,#157,.T.);
#361=EDGE_CURVE('',#306,#307,#280,.T.);
#362=EDGE_CURVE('',#307,#303,#281,.T.);
#363=EDGE_CURVE('',#299,#307,#158,.T.);
#364=EDGE_CURVE('',#300,#306,#282,.T.);
#365=EDGE_CURVE('',#303,#302,#283,.T.);
#366=EDGE_CURVE('',#302,#300,#284,.T.);
#367=EDGE_CURVE('',#306,#308,#159,.T.);
#368=EDGE_CURVE('',#308,#309,#160,.T.);
#369=EDGE_CURVE('',#309,#310,#161,.T.);
#370=EDGE_CURVE('',#310,#311,#162,.T.);
#371=EDGE_CURVE('',#311,#312,#163,.T.);
#372=EDGE_CURVE('',#312,#313,#164,.T.);
#373=EDGE_CURVE('',#313,#314,#165,.T.);
#374=EDGE_CURVE('',#314,#315,#166,.T.);
#375=EDGE_CURVE('',#315,#316,#167,.T.);
#376=EDGE_CURVE('',#316,#317,#168,.T.);
#377=EDGE_CURVE('',#317,#318,#169,.T.);
#378=EDGE_CURVE('',#318,#319,#170,.T.);
#379=EDGE_CURVE('',#319,#320,#171,.T.);
#380=EDGE_CURVE('',#320,#321,#172,.T.);
#381=EDGE_CURVE('',#321,#303,#173,.T.);
#382=EDGE_CURVE('',#322,#322,#285,.T.);
#383=EDGE_CURVE('',#323,#323,#286,.T.);
#384=EDGE_CURVE('',#324,#324,#287,.T.);
#385=EDGE_CURVE('',#324,#325,#174,.T.);
#386=EDGE_CURVE('',#325,#325,#288,.T.);
#387=EDGE_CURVE('',#323,#326,#175,.T.);
#388=EDGE_CURVE('',#326,#326,#289,.T.);
#389=EDGE_CURVE('',#301,#327,#176,.T.);
#390=EDGE_CURVE('',#327,#327,#290,.T.);
#391=EDGE_CURVE('',#322,#328,#177,.T.);
#392=EDGE_CURVE('',#328,#328,#291,.T.);
#393=EDGE_CURVE('',#329,#329,#292,.T.);
#394=EDGE_CURVE('',#329,#330,#178,.T.);
#395=EDGE_CURVE('',#330,#330,#293,.T.);
#396=EDGE_CURVE('',#331,#331,#294,.T.);
#397=EDGE_CURVE('',#331,#332,#179,.T.);
#398=EDGE_CURVE('',#332,#332,#295,.T.);
#399=EDGE_CURVE('',#312,#333,#180,.T.);
#400=EDGE_CURVE('',#334,#333,#181,.T.);
#401=EDGE_CURVE('',#313,#334,#182,.T.);
#402=EDGE_CURVE('',#335,#334,#183,.T.);
#403=EDGE_CURVE('',#314,#335,#184,.T.);
#404=EDGE_CURVE('',#336,#335,#185,.T.);
#405=EDGE_CURVE('',#315,#336,#186,.T.);
#406=EDGE_CURVE('',#333,#336,#187,.T.);
#407=EDGE_CURVE('',#316,#337,#188,.T.);
#408=EDGE_CURVE('',#338,#337,#189,.T.);
#409=EDGE_CURVE('',#317,#338,#190,.T.);
#410=EDGE_CURVE('',#339,#338,#191,.T.);
#411=EDGE_CURVE('',#318,#339,#192,.T.);
#412=EDGE_CURVE('',#337,#340,#193,.T.);
#413=EDGE_CURVE('',#340,#339,#194,.T.);
#414=EDGE_CURVE('',#341,#342,#195,.T.);
#415=EDGE_CURVE('',#342,#340,#196,.T.);
#416=EDGE_CURVE('',#341,#311,#197,.T.);
#417=EDGE_CURVE('',#343,#341,#198,.T.);
#418=EDGE_CURVE('',#343,#310,#199,.T.);
#419=EDGE_CURVE('',#344,#343,#200,.T.);
#420=EDGE_CURVE('',#344,#309,#201,.T.);
#421=EDGE_CURVE('',#345,#344,#202,.T.);
#422=EDGE_CURVE('',#345,#308,#203,.T.);
#423=EDGE_CURVE('',#346,#345,#204,.T.);
#424=EDGE_CURVE('',#346,#305,#205,.T.);
#425=EDGE_CURVE('',#347,#304,#206,.T.);
#426=EDGE_CURVE('',#347,#346,#296,.T.);
#427=EDGE_CURVE('',#348,#347,#207,.T.);
#428=EDGE_CURVE('',#348,#321,#208,.T.);
#429=EDGE_CURVE('',#349,#348,#209,.T.);
#430=EDGE_CURVE('',#349,#320,#210,.T.);
#431=EDGE_CURVE('',#350,#349,#211,.T.);
#432=EDGE_CURVE('',#350,#319,#212,.T.);
#433=EDGE_CURVE('',#342,#350,#213,.T.);
#434=ORIENTED_EDGE('',*,*,#351,.F.);
#435=ORIENTED_EDGE('',*,*,#352,.T.);
#436=ORIENTED_EDGE('',*,*,#353,.F.);
#437=ORIENTED_EDGE('',*,*,#352,.F.);
#438=ORIENTED_EDGE('',*,*,#351,.T.);
#439=ORIENTED_EDGE('',*,*,#354,.T.);
#440=ORIENTED_EDGE('',*,*,#353,.T.);
#441=ORIENTED_EDGE('',*,*,#355,.T.);
#442=ORIENTED_EDGE('',*,*,#356,.T.);
#443=ORIENTED_EDGE('',*,*,#357,.T.);
#444=ORIENTED_EDGE('',*,*,#358,.T.);
#445=ORIENTED_EDGE('',*,*,#359,.T.);
#446=ORIENTED_EDGE('',*,*,#360,.T.);
#447=ORIENTED_EDGE('',*,*,#361,.T.);
#448=ORIENTED_EDGE('',*,*,#362,.T.);
#449=ORIENTED_EDGE('',*,*,#354,.F.);
#450=ORIENTED_EDGE('',*,*,#363,.T.);
#451=ORIENTED_EDGE('',*,*,#361,.F.);
#452=ORIENTED_EDGE('',*,*,#364,.F.);
#453=ORIENTED_EDGE('',*,*,#357,.F.);
#454=ORIENTED_EDGE('',*,*,#365,.F.);
#455=ORIENTED_EDGE('',*,*,#362,.F.);
#456=ORIENTED_EDGE('',*,*,#363,.F.);
#457=ORIENTED_EDGE('',*,*,#365,.T.);
#458=ORIENTED_EDGE('',*,*,#366,.T.);
#459=ORIENTED_EDGE('',*,*,#364,.T.);
#460=ORIENTED_EDGE('',*,*,#367,.T.);
#461=ORIENTED_EDGE('',*,*,#368,.T.);
#462=ORIENTED_EDGE('',*,*,#369,.T.);
#463=ORIENTED_EDGE('',*,*,#370,.T.);
#464=ORIENTED_EDGE('',*,*,#371,.T.);
#465=ORIENTED_EDGE('',*,*,#372,.T.);
#466=ORIENTED_EDGE('',*,*,#373,.T.);
#467=ORIENTED_EDGE('',*,*,#374,.T.);
#468=ORIENTED_EDGE('',*,*,#375,.T.);
#469=ORIENTED_EDGE('',*,*,#376,.T.);
#470=ORIENTED_EDGE('',*,*,#377,.T.);
#471=ORIENTED_EDGE('',*,*,#378,.T.);
#472=ORIENTED_EDGE('',*,*,#379,.T.);
#473=ORIENTED_EDGE('',*,*,#380,.T.);
#474=ORIENTED_EDGE('',*,*,#381,.T.);
#475=ORIENTED_EDGE('',*,*,#382,.T.);
#476=ORIENTED_EDGE('',*,*,#383,.T.);
#477=ORIENTED_EDGE('',*,*,#384,.F.);
#478=ORIENTED_EDGE('',*,*,#385,.T.);
#479=ORIENTED_EDGE('',*,*,#386,.T.);
#480=ORIENTED_EDGE('',*,*,#385,.F.);
#481=ORIENTED_EDGE('',*,*,#386,.F.);
#482=ORIENTED_EDGE('',*,*,#383,.F.);
#483=ORIENTED_EDGE('',*,*,#387,.T.);
#484=ORIENTED_EDGE('',*,*,#388,.F.);
#485=ORIENTED_EDGE('',*,*,#387,.F.);
#486=ORIENTED_EDGE('',*,*,#366,.F.);
#487=ORIENTED_EDGE('',*,*,#356,.F.);
#488=ORIENTED_EDGE('',*,*,#389,.T.);
#489=ORIENTED_EDGE('',*,*,#390,.F.);
#490=ORIENTED_EDGE('',*,*,#389,.F.);
#491=ORIENTED_EDGE('',*,*,#355,.F.);
#492=ORIENTED_EDGE('',*,*,#382,.F.);
#493=ORIENTED_EDGE('',*,*,#391,.T.);
#494=ORIENTED_EDGE('',*,*,#392,.F.);
#495=ORIENTED_EDGE('',*,*,#391,.F.);
#496=ORIENTED_EDGE('',*,*,#393,.F.);
#497=ORIENTED_EDGE('',*,*,#394,.T.);
#498=ORIENTED_EDGE('',*,*,#395,.F.);
#499=ORIENTED_EDGE('',*,*,#394,.F.);
#500=ORIENTED_EDGE('',*,*,#396,.F.);
#501=ORIENTED_EDGE('',*,*,#397,.T.);
#502=ORIENTED_EDGE('',*,*,#398,.F.);
#503=ORIENTED_EDGE('',*,*,#397,.F.);
#504=ORIENTED_EDGE('',*,*,#372,.F.);
#505=ORIENTED_EDGE('',*,*,#399,.T.);
#506=ORIENTED_EDGE('',*,*,#400,.F.);
#507=ORIENTED_EDGE('',*,*,#401,.F.);
#508=ORIENTED_EDGE('',*,*,#373,.F.);
#509=ORIENTED_EDGE('',*,*,#401,.T.);
#510=ORIENTED_EDGE('',*,*,#402,.F.);
#511=ORIENTED_EDGE('',*,*,#403,.F.);
#512=ORIENTED_EDGE('',*,*,#393,.T.);
#513=ORIENTED_EDGE('',*,*,#374,.F.);
#514=ORIENTED_EDGE('',*,*,#403,.T.);
#515=ORIENTED_EDGE('',*,*,#404,.F.);
#516=ORIENTED_EDGE('',*,*,#405,.F.);
#517=ORIENTED_EDGE('',*,*,#404,.T.);
#518=ORIENTED_EDGE('',*,*,#402,.T.);
#519=ORIENTED_EDGE('',*,*,#400,.T.);
#520=ORIENTED_EDGE('',*,*,#406,.T.);
#521=ORIENTED_EDGE('',*,*,#376,.F.);
#522=ORIENTED_EDGE('',*,*,#407,.T.);
#523=ORIENTED_EDGE('',*,*,#408,.F.);
#524=ORIENTED_EDGE('',*,*,#409,.F.);
#525=ORIENTED_EDGE('',*,*,#377,.F.);
#526=ORIENTED_EDGE('',*,*,#409,.T.);
#527=ORIENTED_EDGE('',*,*,#410,.F.);
#528=ORIENTED_EDGE('',*,*,#411,.F.);
#529=ORIENTED_EDGE('',*,*,#396,.T.);
#530=ORIENTED_EDGE('',*,*,#412,.T.);
#531=ORIENTED_EDGE('',*,*,#413,.T.);
#532=ORIENTED_EDGE('',*,*,#410,.T.);
#533=ORIENTED_EDGE('',*,*,#408,.T.);
#534=ORIENTED_EDGE('',*,*,#414,.T.);
#535=ORIENTED_EDGE('',*,*,#415,.T.);
#536=ORIENTED_EDGE('',*,*,#412,.F.);
#537=ORIENTED_EDGE('',*,*,#407,.F.);
#538=ORIENTED_EDGE('',*,*,#375,.F.);
#539=ORIENTED_EDGE('',*,*,#405,.T.);
#540=ORIENTED_EDGE('',*,*,#406,.F.);
#541=ORIENTED_EDGE('',*,*,#399,.F.);
#542=ORIENTED_EDGE('',*,*,#371,.F.);
#543=ORIENTED_EDGE('',*,*,#416,.F.);
#544=ORIENTED_EDGE('',*,*,#395,.T.);
#545=ORIENTED_EDGE('',*,*,#398,.T.);
#546=ORIENTED_EDGE('',*,*,#417,.T.);
#547=ORIENTED_EDGE('',*,*,#416,.T.);
#548=ORIENTED_EDGE('',*,*,#370,.F.);
#549=ORIENTED_EDGE('',*,*,#418,.F.);
#550=ORIENTED_EDGE('',*,*,#419,.T.);
#551=ORIENTED_EDGE('',*,*,#418,.T.);
#552=ORIENTED_EDGE('',*,*,#369,.F.);
#553=ORIENTED_EDGE('',*,*,#420,.F.);
#554=ORIENTED_EDGE('',*,*,#421,.T.);
#555=ORIENTED_EDGE('',*,*,#420,.T.);
#556=ORIENTED_EDGE('',*,*,#368,.F.);
#557=ORIENTED_EDGE('',*,*,#422,.F.);
#558=ORIENTED_EDGE('',*,*,#423,.T.);
#559=ORIENTED_EDGE('',*,*,#422,.T.);
#560=ORIENTED_EDGE('',*,*,#367,.F.);
#561=ORIENTED_EDGE('',*,*,#360,.F.);
#562=ORIENTED_EDGE('',*,*,#424,.F.);
#563=ORIENTED_EDGE('',*,*,#359,.F.);
#564=ORIENTED_EDGE('',*,*,#425,.F.);
#565=ORIENTED_EDGE('',*,*,#426,.T.);
#566=ORIENTED_EDGE('',*,*,#424,.T.);
#567=ORIENTED_EDGE('',*,*,#427,.T.);
#568=ORIENTED_EDGE('',*,*,#425,.T.);
#569=ORIENTED_EDGE('',*,*,#358,.F.);
#570=ORIENTED_EDGE('',*,*,#381,.F.);
#571=ORIENTED_EDGE('',*,*,#428,.F.);
#572=ORIENTED_EDGE('',*,*,#429,.T.);
#573=ORIENTED_EDGE('',*,*,#428,.T.);
#574=ORIENTED_EDGE('',*,*,#380,.F.);
#575=ORIENTED_EDGE('',*,*,#430,.F.);
#576=ORIENTED_EDGE('',*,*,#431,.T.);
#577=ORIENTED_EDGE('',*,*,#430,.T.);
#578=ORIENTED_EDGE('',*,*,#379,.F.);
#579=ORIENTED_EDGE('',*,*,#432,.F.);
#580=ORIENTED_EDGE('',*,*,#433,.T.);
#581=ORIENTED_EDGE('',*,*,#432,.T.);
#582=ORIENTED_EDGE('',*,*,#378,.F.);
#583=ORIENTED_EDGE('',*,*,#411,.T.);
#584=ORIENTED_EDGE('',*,*,#413,.F.);
#585=ORIENTED_EDGE('',*,*,#415,.F.);
#586=ORIENTED_EDGE('',*,*,#433,.F.);
#587=ORIENTED_EDGE('',*,*,#414,.F.);
#588=ORIENTED_EDGE('',*,*,#417,.F.);
#589=ORIENTED_EDGE('',*,*,#419,.F.);
#590=ORIENTED_EDGE('',*,*,#421,.F.);
#591=ORIENTED_EDGE('',*,*,#423,.F.);
#592=ORIENTED_EDGE('',*,*,#426,.F.);
#593=ORIENTED_EDGE('',*,*,#427,.F.);
#594=ORIENTED_EDGE('',*,*,#429,.F.);
#595=ORIENTED_EDGE('',*,*,#431,.F.);
#596=ORIENTED_EDGE('',*,*,#384,.T.);
#597=ORIENTED_EDGE('',*,*,#388,.T.);
#598=ORIENTED_EDGE('',*,*,#390,.T.);
#599=ORIENTED_EDGE('',*,*,#392,.T.);
#600=CYLINDRICAL_SURFACE('',#664,1.9);
#601=CYLINDRICAL_SURFACE('',#678,5.);
#602=CYLINDRICAL_SURFACE('',#685,2.);
#603=CYLINDRICAL_SURFACE('',#689,1.);
#604=CYLINDRICAL_SURFACE('',#691,1.);
#605=CYLINDRICAL_SURFACE('',#693,1.);
#606=CYLINDRICAL_SURFACE('',#695,0.999999999999999);
#607=CYLINDRICAL_SURFACE('',#698,1.);
#608=CYLINDRICAL_SURFACE('',#713,4.7);
#609=ADVANCED_FACE('',(#80),#600,.T.);
#610=ADVANCED_FACE('',(#81),#57,.T.);
#611=ADVANCED_FACE('',(#82,#46),#58,.T.);
#612=ADVANCED_FACE('',(#83),#59,.F.);
#613=ADVANCED_FACE('',(#84),#60,.F.);
#614=ADVANCED_FACE('',(#85),#601,.T.);
#615=ADVANCED_FACE('',(#86,#47,#48),#61,.T.);
#616=ADVANCED_FACE('',(#87),#602,.F.);
#617=ADVANCED_FACE('',(#88),#62,.T.);
#618=ADVANCED_FACE('',(#89),#603,.F.);
#619=ADVANCED_FACE('',(#90),#604,.F.);
#620=ADVANCED_FACE('',(#91),#605,.F.);
#621=ADVANCED_FACE('',(#92),#606,.F.);
#622=ADVANCED_FACE('',(#93),#607,.F.);
#623=ADVANCED_FACE('',(#94),#63,.T.);
#624=ADVANCED_FACE('',(#95,#49),#64,.T.);
#625=ADVANCED_FACE('',(#96),#65,.T.);
#626=ADVANCED_FACE('',(#97),#66,.T.);
#627=ADVANCED_FACE('',(#98),#67,.T.);
#628=ADVANCED_FACE('',(#99,#50),#68,.T.);
#629=ADVANCED_FACE('',(#100),#69,.T.);
#630=ADVANCED_FACE('',(#101,#51,#52),#70,.T.);
#631=ADVANCED_FACE('',(#102),#71,.T.);
#632=ADVANCED_FACE('',(#103),#72,.T.);
#633=ADVANCED_FACE('',(#104),#73,.T.);
#634=ADVANCED_FACE('',(#105),#74,.T.);
#635=ADVANCED_FACE('',(#106),#608,.T.);
#636=ADVANCED_FACE('',(#107),#75,.T.);
#637=ADVANCED_FACE('',(#108),#76,.T.);
#638=ADVANCED_FACE('',(#109),#77,.T.);
#639=ADVANCED_FACE('',(#110),#78,.T.);
#640=ADVANCED_FACE('',(#111,#53,#54,#55,#56),#79,.F.);
#641=CLOSED_SHELL('',(#609,#610,#611,#612,#613,#614,#615,#616,#617,#618,
#619,#620,#621,#622,#623,#624,#625,#626,#627,#628,#629,#630,#631,#632,#633,
#634,#635,#636,#637,#638,#639,#640));
#642=DERIVED_UNIT_ELEMENT(#645,1.);
#643=DERIVED_UNIT_ELEMENT(#1069,-3.);
#644=DIMENSIONAL_EXPONENTS(0.,1.,0.,0.,0.,0.,0.);
#645=(
CONVERSION_BASED_UNIT('gram',#647)
MASS_UNIT()
NAMED_UNIT(#644)
);
#646=(
MASS_UNIT()
NAMED_UNIT(*)
SI_UNIT(.KILO.,.GRAM.)
);
#647=MASS_MEASURE_WITH_UNIT(MASS_MEASURE(0.001),#646);
#648=DERIVED_UNIT((#642,#643));
#649=MEASURE_REPRESENTATION_ITEM('density measure',
POSITIVE_RATIO_MEASURE(1.),#648);
#650=PROPERTY_DEFINITION_REPRESENTATION(#655,#652);
#651=PROPERTY_DEFINITION_REPRESENTATION(#656,#653);
#652=REPRESENTATION('material name',(#654),#1066);
#653=REPRESENTATION('density',(#649),#1066);
#654=DESCRIPTIVE_REPRESENTATION_ITEM('Generic','Generic');
#655=PROPERTY_DEFINITION('material property','material name',#1076);
#656=PROPERTY_DEFINITION('material property','density of part',#1076);
#657=DATE_TIME_ROLE('creation_date');
#658=APPLIED_DATE_AND_TIME_ASSIGNMENT(#659,#657,(#1076));
#659=DATE_AND_TIME(#660,#661);
#660=CALENDAR_DATE(2025,5,7);
#661=LOCAL_TIME(0,0,0.,#662);
#662=COORDINATED_UNIVERSAL_TIME_OFFSET(0,0,.BEHIND.);
#663=AXIS2_PLACEMENT_3D('',#893,#720,#721);
#664=AXIS2_PLACEMENT_3D('',#894,#722,#723);
#665=AXIS2_PLACEMENT_3D('',#896,#724,#725);
#666=AXIS2_PLACEMENT_3D('',#899,#727,#728);
#667=AXIS2_PLACEMENT_3D('',#900,#729,#730);
#668=AXIS2_PLACEMENT_3D('',#901,#731,#732);
#669=AXIS2_PLACEMENT_3D('',#903,#733,#734);
#670=AXIS2_PLACEMENT_3D('',#904,#735,#736);
#671=AXIS2_PLACEMENT_3D('',#907,#737,#738);
#672=AXIS2_PLACEMENT_3D('',#909,#739,#740);
#673=AXIS2_PLACEMENT_3D('',#910,#741,#742);
#674=AXIS2_PLACEMENT_3D('',#911,#743,#744);
#675=AXIS2_PLACEMENT_3D('',#916,#746,#747);
#676=AXIS2_PLACEMENT_3D('',#920,#749,#750);
#677=AXIS2_PLACEMENT_3D('',#921,#751,#752);
#678=AXIS2_PLACEMENT_3D('',#922,#753,#754);
#679=AXIS2_PLACEMENT_3D('',#924,#756,#757);
#680=AXIS2_PLACEMENT_3D('',#925,#758,#759);
#681=AXIS2_PLACEMENT_3D('',#926,#760,#761);
#682=AXIS2_PLACEMENT_3D('',#927,#762,#763);
#683=AXIS2_PLACEMENT_3D('',#958,#779,#780);
#684=AXIS2_PLACEMENT_3D('',#960,#781,#782);
#685=AXIS2_PLACEMENT_3D('',#961,#783,#784);
#686=AXIS2_PLACEMENT_3D('',#963,#785,#786);
#687=AXIS2_PLACEMENT_3D('',#966,#788,#789);
#688=AXIS2_PLACEMENT_3D('',#967,#790,#791);
#689=AXIS2_PLACEMENT_3D('',#968,#792,#793);
#690=AXIS2_PLACEMENT_3D('',#971,#795,#796);
#691=AXIS2_PLACEMENT_3D('',#972,#797,#798);
#692=AXIS2_PLACEMENT_3D('',#975,#800,#801);
#693=AXIS2_PLACEMENT_3D('',#976,#802,#803);
#694=AXIS2_PLACEMENT_3D('',#979,#805,#806);
#695=AXIS2_PLACEMENT_3D('',#980,#807,#808);
#696=AXIS2_PLACEMENT_3D('',#982,#809,#810);
#697=AXIS2_PLACEMENT_3D('',#985,#812,#813);
#698=AXIS2_PLACEMENT_3D('',#986,#814,#815);
#699=AXIS2_PLACEMENT_3D('',#988,#816,#817);
#700=AXIS2_PLACEMENT_3D('',#991,#819,#820);
#701=AXIS2_PLACEMENT_3D('',#992,#821,#822);
#702=AXIS2_PLACEMENT_3D('',#998,#826,#827);
#703=AXIS2_PLACEMENT_3D('',#1002,#830,#831);
#704=AXIS2_PLACEMENT_3D('',#1006,#834,#835);
#705=AXIS2_PLACEMENT_3D('',#1008,#837,#838);
#706=AXIS2_PLACEMENT_3D('',#1014,#842,#843);
#707=AXIS2_PLACEMENT_3D('',#1018,#846,#847);
#708=AXIS2_PLACEMENT_3D('',#1022,#850,#851);
#709=AXIS2_PLACEMENT_3D('',#1028,#855,#856);
#710=AXIS2_PLACEMENT_3D('',#1032,#859,#860);
#711=AXIS2_PLACEMENT_3D('',#1036,#863,#864);
#712=AXIS2_PLACEMENT_3D('',#1040,#867,#868);
#713=AXIS2_PLACEMENT_3D('',#1044,#871,#872);
#714=AXIS2_PLACEMENT_3D('',#1047,#874,#875);
#715=AXIS2_PLACEMENT_3D('',#1048,#876,#877);
#716=AXIS2_PLACEMENT_3D('',#1052,#880,#881);
#717=AXIS2_PLACEMENT_3D('',#1056,#884,#885);
#718=AXIS2_PLACEMENT_3D('',#1060,#888,#889);
#719=AXIS2_PLACEMENT_3D('',#1062,#891,#892);
#720=DIRECTION('axis',(0.,0.,1.));
#721=DIRECTION('refdir',(1.,0.,0.));
#722=DIRECTION('center_axis',(0.,1.,0.));
#723=DIRECTION('ref_axis',(1.,0.,0.));
#724=DIRECTION('center_axis',(0.,1.,0.));
#725=DIRECTION('ref_axis',(1.,0.,0.));
#726=DIRECTION('',(0.,-1.,0.));
#727=DIRECTION('center_axis',(0.,-1.,0.));
#728=DIRECTION('ref_axis',(1.,0.,0.));
#729=DIRECTION('center_axis',(0.,1.,0.));
#730=DIRECTION('ref_axis',(0.,0.,1.));
#731=DIRECTION('center_axis',(0.,1.,0.));
#732=DIRECTION('ref_axis',(0.,0.,1.));
#733=DIRECTION('center_axis',(0.,1.,0.));
#734=DIRECTION('ref_axis',(1.,0.,0.));
#735=DIRECTION('center_axis',(0.,1.,0.));
#736=DIRECTION('ref_axis',(0.,0.,1.));
#737=DIRECTION('center_axis',(0.,-1.,0.));
#738=DIRECTION('ref_axis',(1.,0.,0.));
#739=DIRECTION('center_axis',(0.,-1.,0.));
#740=DIRECTION('ref_axis',(1.,0.,0.));
#741=DIRECTION('center_axis',(0.,-1.,0.));
#742=DIRECTION('ref_axis',(1.,0.,0.));
#743=DIRECTION('center_axis',(0.,1.,0.));
#744=DIRECTION('ref_axis',(0.,0.,1.));
#745=DIRECTION('',(1.76785654127503E-15,0.,-1.));
#746=DIRECTION('center_axis',(0.,1.,0.));
#747=DIRECTION('ref_axis',(0.638297872340425,0.,0.769789468728746));
#748=DIRECTION('',(0.,0.,1.));
#749=DIRECTION('center_axis',(0.,-1.,0.));
#750=DIRECTION('ref_axis',(1.,0.,0.));
#751=DIRECTION('center_axis',(0.,-1.,0.));
#752=DIRECTION('ref_axis',(1.,0.,0.));
#753=DIRECTION('center_axis',(0.,1.,0.));
#754=DIRECTION('ref_axis',(1.,0.,0.));
#755=DIRECTION('',(0.,-1.,0.));
#756=DIRECTION('center_axis',(0.,-1.,0.));
#757=DIRECTION('ref_axis',(1.,0.,0.));
#758=DIRECTION('center_axis',(0.,-1.,0.));
#759=DIRECTION('ref_axis',(1.,0.,0.));
#760=DIRECTION('center_axis',(0.,1.,0.));
#761=DIRECTION('ref_axis',(0.,0.,1.));
#762=DIRECTION('center_axis',(0.,-1.,0.));
#763=DIRECTION('ref_axis',(1.,0.,0.));
#764=DIRECTION('',(0.,0.,1.));
#765=DIRECTION('',(-1.,0.,4.03717463500057E-16));
#766=DIRECTION('',(3.70074341541719E-16,0.,-1.));
#767=DIRECTION('',(-1.,0.,0.));
#768=DIRECTION('',(4.26015811774769E-16,0.,1.));
#769=DIRECTION('',(1.,0.,0.));
#770=DIRECTION('',(5.55111512312578E-17,0.,1.));
#771=DIRECTION('',(-1.,0.,1.85037170770859E-16));
#772=DIRECTION('',(4.26015811774769E-16,0.,1.));
#773=DIRECTION('',(1.,0.,0.));
#774=DIRECTION('',(2.77555756156289E-16,0.,1.));
#775=DIRECTION('',(1.,0.,0.));
#776=DIRECTION('',(-3.33066907387547E-16,0.,-1.));
#777=DIRECTION('',(1.,0.,-4.22942104619109E-16));
#778=DIRECTION('',(1.76785654127503E-15,0.,-1.));
#779=DIRECTION('center_axis',(0.,-1.,0.));
#780=DIRECTION('ref_axis',(1.,0.,0.));
#781=DIRECTION('center_axis',(0.,-1.,0.));
#782=DIRECTION('ref_axis',(1.,0.,0.));
#783=DIRECTION('center_axis',(0.,1.,0.));
#784=DIRECTION('ref_axis',(1.,0.,0.));
#785=DIRECTION('center_axis',(0.,1.,0.));
#786=DIRECTION('ref_axis',(1.,0.,0.));
#787=DIRECTION('',(0.,1.,0.));
#788=DIRECTION('center_axis',(0.,1.,0.));
#789=DIRECTION('ref_axis',(1.,0.,0.));
#790=DIRECTION('center_axis',(0.,-1.,0.));
#791=DIRECTION('ref_axis',(0.,0.,-1.));
#792=DIRECTION('center_axis',(0.,-1.,0.));
#793=DIRECTION('ref_axis',(1.,0.,0.));
#794=DIRECTION('',(0.,-1.,0.));
#795=DIRECTION('center_axis',(0.,1.,0.));
#796=DIRECTION('ref_axis',(1.,0.,0.));
#797=DIRECTION('center_axis',(0.,-1.,0.));
#798=DIRECTION('ref_axis',(1.,0.,0.));
#799=DIRECTION('',(0.,-1.,0.));
#800=DIRECTION('center_axis',(0.,1.,0.));
#801=DIRECTION('ref_axis',(1.,0.,0.));
#802=DIRECTION('center_axis',(0.,-1.,0.));
#803=DIRECTION('ref_axis',(1.,0.,0.));
#804=DIRECTION('',(0.,-1.,0.));
#805=DIRECTION('center_axis',(0.,1.,0.));
#806=DIRECTION('ref_axis',(1.,0.,0.));
#807=DIRECTION('center_axis',(-1.,0.,2.76427480724759E-16));
#808=DIRECTION('ref_axis',(-2.76427480724759E-16,0.,-1.));
#809=DIRECTION('center_axis',(-1.,0.,5.55111512312578E-17));
#810=DIRECTION('ref_axis',(-2.76427480724759E-16,0.,-1.));
#811=DIRECTION('',(-1.,0.,2.76427480724759E-16));
#812=DIRECTION('center_axis',(1.,0.,-4.26015811774769E-16));
#813=DIRECTION('ref_axis',(-2.76427480724759E-16,0.,-1.));
#814=DIRECTION('center_axis',(-1.,0.,3.61048138089482E-16));
#815=DIRECTION('ref_axis',(-3.61048138089482E-16,0.,-1.));
#816=DIRECTION('center_axis',(-1.,0.,2.77555756156289E-16));
#817=DIRECTION('ref_axis',(-3.61048138089482E-16,0.,-1.));
#818=DIRECTION('',(-1.,0.,3.61048138089482E-16));
#819=DIRECTION('center_axis',(1.,0.,-4.26015811774769E-16));
#820=DIRECTION('ref_axis',(-3.61048138089482E-16,0.,-1.));
#821=DIRECTION('center_axis',(0.,0.,-1.));
#822=DIRECTION('ref_axis',(-1.,0.,0.));
#823=DIRECTION('',(0.,1.,0.));
#824=DIRECTION('',(-1.,0.,0.));
#825=DIRECTION('',(0.,1.,0.));
#826=DIRECTION('center_axis',(1.,0.,-5.55111512312578E-17));
#827=DIRECTION('ref_axis',(-5.55111512312578E-17,0.,-1.));
#828=DIRECTION('',(-5.55111512312578E-17,0.,-1.));
#829=DIRECTION('',(0.,1.,0.));
#830=DIRECTION('center_axis',(1.85037170770859E-16,0.,1.));
#831=DIRECTION('ref_axis',(1.,0.,-1.85037170770859E-16));
#832=DIRECTION('',(1.,0.,-1.85037170770859E-16));
#833=DIRECTION('',(0.,1.,0.));
#834=DIRECTION('center_axis',(0.,1.,0.));
#835=DIRECTION('ref_axis',(0.,0.,1.));
#836=DIRECTION('',(2.22044604925031E-16,0.,1.));
#837=DIRECTION('center_axis',(0.,0.,-1.));
#838=DIRECTION('ref_axis',(-1.,0.,0.));
#839=DIRECTION('',(0.,1.,0.));
#840=DIRECTION('',(-1.,0.,0.));
#841=DIRECTION('',(0.,1.,0.));
#842=DIRECTION('center_axis',(1.,0.,-2.77555756156289E-16));
#843=DIRECTION('ref_axis',(-2.77555756156289E-16,0.,-1.));
#844=DIRECTION('',(-2.77555756156289E-16,0.,-1.));
#845=DIRECTION('',(0.,1.,0.));
#846=DIRECTION('center_axis',(0.,1.,0.));
#847=DIRECTION('ref_axis',(0.,0.,1.));
#848=DIRECTION('',(2.22044604925031E-16,0.,1.));
#849=DIRECTION('',(1.,0.,0.));
#850=DIRECTION('center_axis',(-1.,0.,4.26015811774769E-16));
#851=DIRECTION('ref_axis',(4.26015811774769E-16,0.,1.));
#852=DIRECTION('',(4.26015811774769E-16,0.,1.));
#853=DIRECTION('',(0.,1.,0.));
#854=DIRECTION('',(0.,1.,0.));
#855=DIRECTION('center_axis',(0.,0.,-1.));
#856=DIRECTION('ref_axis',(-1.,0.,0.));
#857=DIRECTION('',(-1.,0.,0.));
#858=DIRECTION('',(0.,1.,0.));
#859=DIRECTION('center_axis',(1.,0.,3.70074341541719E-16));
#860=DIRECTION('ref_axis',(3.70074341541719E-16,0.,-1.));
#861=DIRECTION('',(3.70074341541719E-16,0.,-1.));
#862=DIRECTION('',(0.,1.,0.));
#863=DIRECTION('center_axis',(-4.03717463500057E-16,0.,-1.));
#864=DIRECTION('ref_axis',(-1.,0.,4.03717463500057E-16));
#865=DIRECTION('',(-1.,0.,4.03717463500057E-16));
#866=DIRECTION('',(0.,1.,0.));
#867=DIRECTION('center_axis',(-1.,0.,0.));
#868=DIRECTION('ref_axis',(0.,0.,1.));
#869=DIRECTION('',(0.,0.,1.));
#870=DIRECTION('',(0.,1.,0.));
#871=DIRECTION('center_axis',(0.,1.,0.));
#872=DIRECTION('ref_axis',(1.77163248610397E-16,0.,-1.));
#873=DIRECTION('',(0.,1.,0.));
#874=DIRECTION('center_axis',(0.,1.,0.));
#875=DIRECTION('ref_axis',(0.638297872340425,0.,0.769789468728746));
#876=DIRECTION('center_axis',(1.,0.,1.76785654127503E-15));
#877=DIRECTION('ref_axis',(1.76785654127503E-15,0.,-1.));
#878=DIRECTION('',(1.76785654127503E-15,0.,-1.));
#879=DIRECTION('',(0.,1.,0.));
#880=DIRECTION('center_axis',(4.22942104619109E-16,0.,1.));
#881=DIRECTION('ref_axis',(1.,0.,-4.22942104619109E-16));
#882=DIRECTION('',(1.,0.,-4.22942104619109E-16));
#883=DIRECTION('',(0.,1.,0.));
#884=DIRECTION('center_axis',(1.,0.,-3.33066907387547E-16));
#885=DIRECTION('ref_axis',(-3.33066907387547E-16,0.,-1.));
#886=DIRECTION('',(-3.33066907387547E-16,0.,-1.));
#887=DIRECTION('',(0.,1.,0.));
#888=DIRECTION('center_axis',(0.,0.,1.));
#889=DIRECTION('ref_axis',(1.,0.,0.));
#890=DIRECTION('',(1.,0.,0.));
#891=DIRECTION('center_axis',(0.,1.,0.));
#892=DIRECTION('ref_axis',(0.,0.,1.));
#893=CARTESIAN_POINT('',(0.,0.,0.));
#894=CARTESIAN_POINT('Origin',(19.,50.5,-15.0914774729847));
#895=CARTESIAN_POINT('',(17.1,55.5,-15.0914774729847));
#896=CARTESIAN_POINT('Origin',(19.,55.5,-15.0914774729847));
#897=CARTESIAN_POINT('',(17.1,50.5,-15.0914774729847));
#898=CARTESIAN_POINT('',(17.1,50.5,-15.0914774729847));
#899=CARTESIAN_POINT('Origin',(19.,50.5,-15.0914774729847));
#900=CARTESIAN_POINT('Origin',(19.,55.5,-15.0914774729847));
#901=CARTESIAN_POINT('Origin',(19.,50.5,-15.0914774729847));
#902=CARTESIAN_POINT('',(14.,50.5,-15.0914774729847));
#903=CARTESIAN_POINT('Origin',(19.,50.5,-15.0914774729847));
#904=CARTESIAN_POINT('Origin',(19.,13.,-15.0914774729847));
#905=CARTESIAN_POINT('',(18.4103938828146,13.,-10.1263627082912));
#906=CARTESIAN_POINT('',(18.4,13.,-10.2701672034546));
#907=CARTESIAN_POINT('Origin',(19.4,13.,-10.2701672034546));
#908=CARTESIAN_POINT('',(20.3997743112173,13.,-10.2914116528468));
#909=CARTESIAN_POINT('Origin',(19.4,13.,-10.2701672034546));
#910=CARTESIAN_POINT('Origin',(19.,13.,-15.0914774729847));
#911=CARTESIAN_POINT('Origin',(19.,13.,-15.0914774729847));
#912=CARTESIAN_POINT('',(22.,13.,-11.0914774729847));
#913=CARTESIAN_POINT('',(22.,13.,-11.4734669699596));
#914=CARTESIAN_POINT('',(22.,13.,25.9298327965452));
#915=CARTESIAN_POINT('',(16.,13.,-11.4734669699596));
#916=CARTESIAN_POINT('Origin',(19.,13.,-15.0914774729847));
#917=CARTESIAN_POINT('',(16.,13.,-11.0914774729847));
#918=CARTESIAN_POINT('',(16.,13.,-11.4734669699596));
#919=CARTESIAN_POINT('',(14.,13.,-15.0914774729847));
#920=CARTESIAN_POINT('Origin',(19.,13.,-15.0914774729847));
#921=CARTESIAN_POINT('Origin',(19.,13.,-15.0914774729847));
#922=CARTESIAN_POINT('Origin',(19.,25.5,-15.0914774729847));
#923=CARTESIAN_POINT('',(14.,25.5,-15.0914774729847));
#924=CARTESIAN_POINT('Origin',(19.,13.,-15.0914774729847));
#925=CARTESIAN_POINT('Origin',(19.,13.,-15.0914774729847));
#926=CARTESIAN_POINT('Origin',(9.85000000000002,13.,5.56917766178029));
#927=CARTESIAN_POINT('Origin',(19.4,13.,-10.2701672034546));
#928=CARTESIAN_POINT('',(16.,13.,-9.07016720345477));
#929=CARTESIAN_POINT('',(16.,13.,-11.4734669699596));
#930=CARTESIAN_POINT('',(5.00000000000001,13.,-9.07016720345476));
#931=CARTESIAN_POINT('',(16.,13.,-9.07016720345476));
#932=CARTESIAN_POINT('',(5.00000000000001,13.,-12.0701672034548));
#933=CARTESIAN_POINT('',(5.00000000000001,13.,-9.07016720345476));
#934=CARTESIAN_POINT('',(-3.99999999999996,13.,-12.0701672034548));
#935=CARTESIAN_POINT('',(5.00000000000001,13.,-12.0701672034548));
#936=CARTESIAN_POINT('',(-3.99999999999999,13.,-1.87016720345476));
#937=CARTESIAN_POINT('',(-3.99999999999996,13.,-12.0701672034548));
#938=CARTESIAN_POINT('',(-0.999999999999993,13.,-1.87016720345476));
#939=CARTESIAN_POINT('',(4.42500000000001,13.,-1.87016720345476));
#940=CARTESIAN_POINT('',(-0.999999999999993,13.,3.12983279654524));
#941=CARTESIAN_POINT('',(-0.999999999999993,13.,4.34950522916276));
#942=CARTESIAN_POINT('',(-3.99999999999999,13.,3.12983279654524));
#943=CARTESIAN_POINT('',(2.92500000000001,13.,3.12983279654524));
#944=CARTESIAN_POINT('',(-3.99999999999996,13.,25.9298327965452));
#945=CARTESIAN_POINT('',(-3.99999999999996,13.,-12.0701672034548));
#946=CARTESIAN_POINT('',(-0.999999999999954,13.,25.9298327965452));
#947=CARTESIAN_POINT('',(4.42500000000003,13.,25.9298327965452));
#948=CARTESIAN_POINT('',(-0.999999999999953,13.,30.9298327965452));
#949=CARTESIAN_POINT('',(-0.999999999999956,13.,18.2495052291628));
#950=CARTESIAN_POINT('',(1.00000000000005,13.,30.9298327965452));
#951=CARTESIAN_POINT('',(-3.99999999999994,13.,30.9298327965452));
#952=CARTESIAN_POINT('',(1.00000000000005,13.,25.9298327965452));
#953=CARTESIAN_POINT('',(1.00000000000005,13.,30.9298327965452));
#954=CARTESIAN_POINT('',(22.,13.,25.9298327965452));
#955=CARTESIAN_POINT('',(1.00000000000005,13.,25.9298327965452));
#956=CARTESIAN_POINT('',(22.,13.,25.9298327965452));
#957=CARTESIAN_POINT('',(9.00000000000004,13.,8.72983279654537));
#958=CARTESIAN_POINT('Origin',(10.,13.,8.72983279654537));
#959=CARTESIAN_POINT('',(-0.399999999999992,13.,-10.2701672034546));
#960=CARTESIAN_POINT('Origin',(0.600000000000008,13.,-10.2701672034546));
#961=CARTESIAN_POINT('Origin',(19.4610787745306,0.,-14.5701672034546));
#962=CARTESIAN_POINT('',(17.4610787745306,0.,-14.5701672034546));
#963=CARTESIAN_POINT('Origin',(19.4610787745306,0.,-14.5701672034546));
#964=CARTESIAN_POINT('',(17.4610787745306,6.,-14.5701672034546));
#965=CARTESIAN_POINT('',(17.4610787745306,0.,-14.5701672034546));
#966=CARTESIAN_POINT('Origin',(19.4610787745306,6.,-14.5701672034546));
#967=CARTESIAN_POINT('Origin',(19.4610787745306,6.,-14.5701672034546));
#968=CARTESIAN_POINT('Origin',(0.600000000000008,13.,-10.2701672034546));
#969=CARTESIAN_POINT('',(-0.399999999999992,0.,-10.2701672034546));
#970=CARTESIAN_POINT('',(-0.399999999999992,13.,-10.2701672034546));
#971=CARTESIAN_POINT('Origin',(0.600000000000008,0.,-10.2701672034546));
#972=CARTESIAN_POINT('Origin',(19.4,13.,-10.2701672034546));
#973=CARTESIAN_POINT('',(18.4,0.,-10.2701672034546));
#974=CARTESIAN_POINT('',(18.4,13.,-10.2701672034546));
#975=CARTESIAN_POINT('Origin',(19.4,0.,-10.2701672034546));
#976=CARTESIAN_POINT('Origin',(10.,13.,8.72983279654537));
#977=CARTESIAN_POINT('',(9.00000000000004,0.,8.72983279654537));
#978=CARTESIAN_POINT('',(9.00000000000004,13.,8.72983279654537));
#979=CARTESIAN_POINT('Origin',(10.,0.,8.72983279654537));
#980=CARTESIAN_POINT('Origin',(-0.999999999999962,19.15,0.62983279654524));
#981=CARTESIAN_POINT('',(-0.999999999999993,19.15,1.62983279654524));
#982=CARTESIAN_POINT('Origin',(-0.999999999999993,19.15,0.62983279654524));
#983=CARTESIAN_POINT('',(-3.99999999999996,19.15,1.62983279654524));
#984=CARTESIAN_POINT('',(-0.999999999999961,19.15,1.62983279654524));
#985=CARTESIAN_POINT('Origin',(-3.99999999999996,19.15,0.629832796545241));
#986=CARTESIAN_POINT('Origin',(-0.999999999999954,19.15,28.4298327965452));
#987=CARTESIAN_POINT('',(-0.999999999999954,19.15,29.4298327965452));
#988=CARTESIAN_POINT('Origin',(-0.999999999999954,19.15,28.4298327965452));
#989=CARTESIAN_POINT('',(-3.99999999999995,19.15,29.4298327965452));
#990=CARTESIAN_POINT('',(-0.999999999999953,19.15,29.4298327965452));
#991=CARTESIAN_POINT('Origin',(-3.99999999999995,19.15,28.4298327965452));
#992=CARTESIAN_POINT('Origin',(-0.999999999999993,13.,-1.87016720345476));
#993=CARTESIAN_POINT('',(-3.99999999999999,25.3,-1.87016720345476));
#994=CARTESIAN_POINT('',(-3.99999999999999,13.,-1.87016720345476));
#995=CARTESIAN_POINT('',(-0.999999999999993,25.3,-1.87016720345476));
#996=CARTESIAN_POINT('',(-0.999999999999993,25.3,-1.87016720345476));
#997=CARTESIAN_POINT('',(-0.999999999999993,13.,-1.87016720345476));
#998=CARTESIAN_POINT('Origin',(-0.999999999999993,13.,3.12983279654524));
#999=CARTESIAN_POINT('',(-0.999999999999993,25.3,3.12983279654524));
#1000=CARTESIAN_POINT('',(-0.999999999999993,25.3,3.12983279654524));
#1001=CARTESIAN_POINT('',(-0.999999999999993,13.,3.12983279654524));
#1002=CARTESIAN_POINT('Origin',(-3.99999999999999,13.,3.12983279654524));
#1003=CARTESIAN_POINT('',(-3.99999999999999,25.3,3.12983279654524));
#1004=CARTESIAN_POINT('',(-3.99999999999999,25.3,3.12983279654524));
#1005=CARTESIAN_POINT('',(-3.99999999999999,13.,3.12983279654524));
#1006=CARTESIAN_POINT('Origin',(-2.49999999999999,25.3,0.62983279654524));
#1007=CARTESIAN_POINT('',(-3.99999999999999,25.3,-1.87016720345476));
#1008=CARTESIAN_POINT('Origin',(-0.999999999999954,13.,25.9298327965452));
#1009=CARTESIAN_POINT('',(-3.99999999999996,25.3,25.9298327965452));
#1010=CARTESIAN_POINT('',(-3.99999999999996,13.,25.9298327965452));
#1011=CARTESIAN_POINT('',(-0.999999999999955,25.3,25.9298327965452));
#1012=CARTESIAN_POINT('',(-0.999999999999955,25.3,25.9298327965452));
#1013=CARTESIAN_POINT('',(-0.999999999999954,13.,25.9298327965452));
#1014=CARTESIAN_POINT('Origin',(-0.999999999999953,13.,30.9298327965452));
#1015=CARTESIAN_POINT('',(-0.999999999999953,25.3,30.9298327965452));
#1016=CARTESIAN_POINT('',(-0.999999999999953,25.3,30.9298327965452));
#1017=CARTESIAN_POINT('',(-0.999999999999953,13.,30.9298327965452));
#1018=CARTESIAN_POINT('Origin',(-2.49999999999995,25.3,28.4298327965452));
#1019=CARTESIAN_POINT('',(-3.99999999999996,25.3,30.9298327965452));
#1020=CARTESIAN_POINT('',(-3.99999999999996,25.3,25.9298327965452));
#1021=CARTESIAN_POINT('',(-3.99999999999994,25.3,30.9298327965452));
#1022=CARTESIAN_POINT('Origin',(-3.99999999999996,0.,-12.0701672034548));
#1023=CARTESIAN_POINT('',(-3.99999999999996,0.,-12.0701672034548));
#1024=CARTESIAN_POINT('',(-3.99999999999994,0.,30.9298327965452));
#1025=CARTESIAN_POINT('',(-3.99999999999996,0.,-12.0701672034548));
#1026=CARTESIAN_POINT('',(-3.99999999999994,0.,30.9298327965452));
#1027=CARTESIAN_POINT('',(-3.99999999999996,0.,-12.0701672034548));
#1028=CARTESIAN_POINT('Origin',(5.00000000000001,0.,-12.0701672034548));
#1029=CARTESIAN_POINT('',(5.00000000000001,0.,-12.0701672034548));
#1030=CARTESIAN_POINT('',(5.00000000000001,0.,-12.0701672034548));
#1031=CARTESIAN_POINT('',(5.00000000000001,0.,-12.0701672034548));
#1032=CARTESIAN_POINT('Origin',(5.00000000000001,0.,-9.07016720345476));
#1033=CARTESIAN_POINT('',(5.00000000000001,0.,-9.07016720345476));
#1034=CARTESIAN_POINT('',(5.00000000000001,0.,-9.07016720345476));
#1035=CARTESIAN_POINT('',(5.00000000000001,0.,-9.07016720345476));
#1036=CARTESIAN_POINT('Origin',(16.,0.,-9.07016720345476));
#1037=CARTESIAN_POINT('',(16.,0.,-9.07016720345476));
#1038=CARTESIAN_POINT('',(16.,0.,-9.07016720345476));
#1039=CARTESIAN_POINT('',(16.,0.,-9.07016720345476));
#1040=CARTESIAN_POINT('Origin',(16.,0.,-11.4734669699596));
#1041=CARTESIAN_POINT('',(16.,0.,-11.4734669699596));
#1042=CARTESIAN_POINT('',(16.,0.,-11.4734669699596));
#1043=CARTESIAN_POINT('',(16.,0.,-11.4734669699596));
#1044=CARTESIAN_POINT('Origin',(19.,0.,-15.0914774729847));
#1045=CARTESIAN_POINT('',(22.,0.,-11.4734669699596));
#1046=CARTESIAN_POINT('',(22.,0.,-11.4734669699596));
#1047=CARTESIAN_POINT('Origin',(19.,0.,-15.0914774729847));
#1048=CARTESIAN_POINT('Origin',(22.,0.,25.9298327965452));
#1049=CARTESIAN_POINT('',(22.,0.,25.9298327965452));
#1050=CARTESIAN_POINT('',(22.,0.,25.9298327965452));
#1051=CARTESIAN_POINT('',(22.,0.,25.9298327965452));
#1052=CARTESIAN_POINT('Origin',(1.00000000000005,0.,25.9298327965452));
#1053=CARTESIAN_POINT('',(1.00000000000005,0.,25.9298327965452));
#1054=CARTESIAN_POINT('',(1.00000000000005,0.,25.9298327965452));
#1055=CARTESIAN_POINT('',(1.00000000000005,0.,25.9298327965452));
#1056=CARTESIAN_POINT('Origin',(1.00000000000005,0.,30.9298327965452));
#1057=CARTESIAN_POINT('',(1.00000000000005,0.,30.9298327965452));
#1058=CARTESIAN_POINT('',(1.00000000000005,0.,30.9298327965452));
#1059=CARTESIAN_POINT('',(1.00000000000005,0.,30.9298327965452));
#1060=CARTESIAN_POINT('Origin',(-3.99999999999994,0.,30.9298327965452));
#1061=CARTESIAN_POINT('',(-3.99999999999994,0.,30.9298327965452));
#1062=CARTESIAN_POINT('Origin',(9.85000000000002,0.,5.56917766178029));
#1063=CARTESIAN_POINT('',(0.,13.,0.));
#1064=UNCERTAINTY_MEASURE_WITH_UNIT(LENGTH_MEASURE(0.01),#1068,
'DISTANCE_ACCURACY_VALUE',
'Maximum model space distance between geometric entities at asserted c
onnectivities');
#1065=UNCERTAINTY_MEASURE_WITH_UNIT(LENGTH_MEASURE(0.01),#1068,
'DISTANCE_ACCURACY_VALUE',
'Maximum model space distance between geometric entities at asserted c
onnectivities');
#1066=(
GEOMETRIC_REPRESENTATION_CONTEXT(3)
GLOBAL_UNCERTAINTY_ASSIGNED_CONTEXT((#1064))
GLOBAL_UNIT_ASSIGNED_CONTEXT((#1068,#1070,#1071))
REPRESENTATION_CONTEXT('','3D')
);
#1067=(
GEOMETRIC_REPRESENTATION_CONTEXT(3)
GLOBAL_UNCERTAINTY_ASSIGNED_CONTEXT((#1065))
GLOBAL_UNIT_ASSIGNED_CONTEXT((#1068,#1070,#1071))
REPRESENTATION_CONTEXT('','3D')
);
#1068=(
LENGTH_UNIT()
NAMED_UNIT(*)
SI_UNIT(.MILLI.,.METRE.)
);
#1069=(
LENGTH_UNIT()
NAMED_UNIT(*)
SI_UNIT(.CENTI.,.METRE.)
);
#1070=(
NAMED_UNIT(*)
PLANE_ANGLE_UNIT()
SI_UNIT($,.RADIAN.)
);
#1071=(
NAMED_UNIT(*)
SI_UNIT($,.STERADIAN.)
SOLID_ANGLE_UNIT()
);
#1072=SHAPE_DEFINITION_REPRESENTATION(#1073,#1074);
#1073=PRODUCT_DEFINITION_SHAPE('',$,#1076);
#1074=SHAPE_REPRESENTATION('',(#663),#1066);
#1075=PRODUCT_DEFINITION_CONTEXT('part definition',#1080,'design');
#1076=PRODUCT_DEFINITION('4_2.(new).stl','4_1',#1077,#1075);
#1077=PRODUCT_DEFINITION_FORMATION('',$,#1082);
#1078=PRODUCT_RELATED_PRODUCT_CATEGORY('4_1','4_1',(#1082));
#1079=APPLICATION_PROTOCOL_DEFINITION('international standard',
'automotive_design',2009,#1080);
#1080=APPLICATION_CONTEXT(
'Core Data for Automotive Mechanical Design Process');
#1081=PRODUCT_CONTEXT('part definition',#1080,'mechanical');
#1082=PRODUCT('4_2.(new).stl','4_1',$,(#1081));
#1083=PRESENTATION_STYLE_ASSIGNMENT((#1086));
#1084=PRESENTATION_STYLE_ASSIGNMENT((#1087));
#1085=PRESENTATION_STYLE_ASSIGNMENT((#1088));
#1086=SURFACE_STYLE_USAGE(.BOTH.,#1093);
#1087=SURFACE_STYLE_USAGE(.BOTH.,#1094);
#1088=SURFACE_STYLE_USAGE(.BOTH.,#1095);
#1089=SURFACE_STYLE_RENDERING_WITH_PROPERTIES($,#1105,(#1091));
#1090=SURFACE_STYLE_RENDERING_WITH_PROPERTIES($,#1106,(#1092));
#1091=SURFACE_STYLE_TRANSPARENT(0.);
#1092=SURFACE_STYLE_TRANSPARENT(0.);
#1093=SURFACE_SIDE_STYLE('',(#1096,#1089));
#1094=SURFACE_SIDE_STYLE('',(#1097,#1090));
#1095=SURFACE_SIDE_STYLE('',(#1098));
#1096=SURFACE_STYLE_FILL_AREA(#1099);
#1097=SURFACE_STYLE_FILL_AREA(#1100);
#1098=SURFACE_STYLE_FILL_AREA(#1101);
#1099=FILL_AREA_STYLE('',(#1102));
#1100=FILL_AREA_STYLE('',(#1103));
#1101=FILL_AREA_STYLE('',(#1104));
#1102=FILL_AREA_STYLE_COLOUR('',#1105);
#1103=FILL_AREA_STYLE_COLOUR('',#1106);
#1104=FILL_AREA_STYLE_COLOUR('',#1107);
#1105=COLOUR_RGB('',0.749019607843137,0.749019607843137,0.749019607843137);
#1106=COLOUR_RGB('',0.0509803921568627,0.615686274509804,0.0509803921568627);
#1107=COLOUR_RGB('',1.,1.,0.);
ENDSEC;
END-ISO-10303-21;
