ISO-10303-21;
HEADER;
/* Generated by software containing ST-Developer
 * from STEP Tools, Inc. (www.steptools.com) 
 */

FILE_DESCRIPTION(
/* description */ (''),
/* implementation_level */ '2;1');

FILE_NAME(
/* name */ '4_2.stp',
/* time_stamp */ '2026-04-22T02:31:53+02:00',
/* author */ ('irach'),
/* organization */ (''),
/* preprocessor_version */ 'ST-DEVELOPER v20.1',
/* originating_system */ 'Autodesk Inventor 2026',
/* authorisation */ '');

FILE_SCHEMA (('AUTOMOTIVE_DESIGN { 1 0 10303 214 3 1 1 }'));
ENDSEC;

DATA;
#10=MECHANICAL_DESIGN_GEOMETRIC_PRESENTATION_REPRESENTATION('',(#430,#431,
#432,#433,#434,#435,#436,#437,#438,#439,#440,#441,#442,#443,#444,#445,#446,
#447,#448,#449,#450,#451,#452),#772);
#11=SHAPE_REPRESENTATION_RELATIONSHIP('SRR','None',#779,#12);
#12=ADVANCED_BREP_SHAPE_REPRESENTATION('',(#13),#771);
#13=MANIFOLD_SOLID_BREP('Solid1',#475);
#14=FACE_BOUND('',#66,.T.);
#15=FACE_BOUND('',#71,.T.);
#16=FACE_BOUND('',#78,.T.);
#17=FACE_BOUND('',#79,.T.);
#18=FACE_BOUND('',#88,.T.);
#19=FACE_BOUND('',#89,.T.);
#20=FACE_BOUND('',#90,.T.);
#21=FACE_BOUND('',#92,.T.);
#22=FACE_BOUND('',#93,.T.);
#23=FACE_BOUND('',#94,.T.);
#24=PLANE('',#504);
#25=PLANE('',#505);
#26=PLANE('',#506);
#27=PLANE('',#507);
#28=PLANE('',#508);
#29=PLANE('',#509);
#30=PLANE('',#510);
#31=PLANE('',#520);
#32=PLANE('',#521);
#33=PLANE('',#522);
#34=PLANE('',#523);
#35=PLANE('',#524);
#36=PLANE('',#525);
#37=PLANE('',#526);
#38=PLANE('',#527);
#39=PLANE('',#528);
#40=PLANE('',#529);
#41=FACE_OUTER_BOUND('',#63,.T.);
#42=FACE_OUTER_BOUND('',#64,.T.);
#43=FACE_OUTER_BOUND('',#65,.T.);
#44=FACE_OUTER_BOUND('',#67,.T.);
#45=FACE_OUTER_BOUND('',#68,.T.);
#46=FACE_OUTER_BOUND('',#69,.T.);
#47=FACE_OUTER_BOUND('',#70,.T.);
#48=FACE_OUTER_BOUND('',#72,.T.);
#49=FACE_OUTER_BOUND('',#73,.T.);
#50=FACE_OUTER_BOUND('',#74,.T.);
#51=FACE_OUTER_BOUND('',#75,.T.);
#52=FACE_OUTER_BOUND('',#76,.T.);
#53=FACE_OUTER_BOUND('',#77,.T.);
#54=FACE_OUTER_BOUND('',#80,.T.);
#55=FACE_OUTER_BOUND('',#81,.T.);
#56=FACE_OUTER_BOUND('',#82,.T.);
#57=FACE_OUTER_BOUND('',#83,.T.);
#58=FACE_OUTER_BOUND('',#84,.T.);
#59=FACE_OUTER_BOUND('',#85,.T.);
#60=FACE_OUTER_BOUND('',#86,.T.);
#61=FACE_OUTER_BOUND('',#87,.T.);
#62=FACE_OUTER_BOUND('',#91,.T.);
#63=EDGE_LOOP('',(#305,#306,#307,#308));
#64=EDGE_LOOP('',(#309,#310,#311,#312));
#65=EDGE_LOOP('',(#313,#314,#315,#316));
#66=EDGE_LOOP('',(#317));
#67=EDGE_LOOP('',(#318,#319,#320,#321));
#68=EDGE_LOOP('',(#322,#323,#324,#325));
#69=EDGE_LOOP('',(#326,#327,#328,#329));
#70=EDGE_LOOP('',(#330,#331,#332,#333));
#71=EDGE_LOOP('',(#334));
#72=EDGE_LOOP('',(#335,#336,#337,#338));
#73=EDGE_LOOP('',(#339,#340,#341,#342));
#74=EDGE_LOOP('',(#343,#344,#345,#346));
#75=EDGE_LOOP('',(#347,#348,#349,#350));
#76=EDGE_LOOP('',(#351,#352,#353,#354));
#77=EDGE_LOOP('',(#355,#356,#357,#358,#359,#360,#361,#362,#363,#364));
#78=EDGE_LOOP('',(#365));
#79=EDGE_LOOP('',(#366));
#80=EDGE_LOOP('',(#367,#368,#369,#370,#371,#372));
#81=EDGE_LOOP('',(#373,#374,#375,#376));
#82=EDGE_LOOP('',(#377,#378,#379,#380));
#83=EDGE_LOOP('',(#381,#382,#383,#384));
#84=EDGE_LOOP('',(#385,#386,#387,#388));
#85=EDGE_LOOP('',(#389,#390,#391,#392));
#86=EDGE_LOOP('',(#393,#394,#395,#396));
#87=EDGE_LOOP('',(#397,#398,#399,#400,#401,#402,#403,#404,#405,#406,#407,
#408,#409,#410));
#88=EDGE_LOOP('',(#411));
#89=EDGE_LOOP('',(#412));
#90=EDGE_LOOP('',(#413));
#91=EDGE_LOOP('',(#414,#415,#416,#417,#418,#419,#420,#421));
#92=EDGE_LOOP('',(#422));
#93=EDGE_LOOP('',(#423));
#94=EDGE_LOOP('',(#424));
#95=LINE('',#651,#145);
#96=LINE('',#657,#146);
#97=LINE('',#662,#147);
#98=LINE('',#664,#148);
#99=LINE('',#666,#149);
#100=LINE('',#667,#150);
#101=LINE('',#670,#151);
#102=LINE('',#672,#152);
#103=LINE('',#673,#153);
#104=LINE('',#676,#154);
#105=LINE('',#678,#155);
#106=LINE('',#679,#156);
#107=LINE('',#681,#157);
#108=LINE('',#685,#158);
#109=LINE('',#687,#159);
#110=LINE('',#689,#160);
#111=LINE('',#690,#161);
#112=LINE('',#693,#162);
#113=LINE('',#695,#163);
#114=LINE('',#696,#164);
#115=LINE('',#699,#165);
#116=LINE('',#700,#166);
#117=LINE('',#705,#167);
#118=LINE('',#711,#168);
#119=LINE('',#717,#169);
#120=LINE('',#722,#170);
#121=LINE('',#724,#171);
#122=LINE('',#725,#172);
#123=LINE('',#726,#173);
#124=LINE('',#727,#174);
#125=LINE('',#730,#175);
#126=LINE('',#732,#176);
#127=LINE('',#733,#177);
#128=LINE('',#736,#178);
#129=LINE('',#738,#179);
#130=LINE('',#739,#180);
#131=LINE('',#742,#181);
#132=LINE('',#744,#182);
#133=LINE('',#745,#183);
#134=LINE('',#748,#184);
#135=LINE('',#750,#185);
#136=LINE('',#751,#186);
#137=LINE('',#754,#187);
#138=LINE('',#756,#188);
#139=LINE('',#757,#189);
#140=LINE('',#760,#190);
#141=LINE('',#762,#191);
#142=LINE('',#763,#192);
#143=LINE('',#765,#193);
#144=LINE('',#766,#194);
#145=VECTOR('',#536,1.);
#146=VECTOR('',#543,1.);
#147=VECTOR('',#548,10.);
#148=VECTOR('',#549,10.);
#149=VECTOR('',#550,10.);
#150=VECTOR('',#551,10.);
#151=VECTOR('',#554,10.);
#152=VECTOR('',#555,10.);
#153=VECTOR('',#556,10.);
#154=VECTOR('',#559,10.);
#155=VECTOR('',#560,10.);
#156=VECTOR('',#561,10.);
#157=VECTOR('',#564,10.);
#158=VECTOR('',#567,10.);
#159=VECTOR('',#568,10.);
#160=VECTOR('',#569,10.);
#161=VECTOR('',#570,10.);
#162=VECTOR('',#573,10.);
#163=VECTOR('',#574,10.);
#164=VECTOR('',#575,10.);
#165=VECTOR('',#578,10.);
#166=VECTOR('',#579,10.);
#167=VECTOR('',#584,1.);
#168=VECTOR('',#591,1.);
#169=VECTOR('',#598,1.);
#170=VECTOR('',#603,10.);
#171=VECTOR('',#604,10.);
#172=VECTOR('',#605,10.);
#173=VECTOR('',#606,10.);
#174=VECTOR('',#607,10.);
#175=VECTOR('',#610,10.);
#176=VECTOR('',#611,10.);
#177=VECTOR('',#612,10.);
#178=VECTOR('',#615,10.);
#179=VECTOR('',#616,10.);
#180=VECTOR('',#617,10.);
#181=VECTOR('',#620,10.);
#182=VECTOR('',#621,10.);
#183=VECTOR('',#622,10.);
#184=VECTOR('',#625,10.);
#185=VECTOR('',#626,10.);
#186=VECTOR('',#627,10.);
#187=VECTOR('',#630,10.);
#188=VECTOR('',#631,10.);
#189=VECTOR('',#632,10.);
#190=VECTOR('',#635,10.);
#191=VECTOR('',#636,10.);
#192=VECTOR('',#637,10.);
#193=VECTOR('',#640,10.);
#194=VECTOR('',#641,10.);
#195=CIRCLE('',#499,1.);
#196=CIRCLE('',#500,1.);
#197=CIRCLE('',#502,1.);
#198=CIRCLE('',#503,1.);
#199=CIRCLE('',#512,1.);
#200=CIRCLE('',#513,1.);
#201=CIRCLE('',#515,1.);
#202=CIRCLE('',#516,1.);
#203=CIRCLE('',#518,1.);
#204=CIRCLE('',#519,1.);
#205=VERTEX_POINT('',#648);
#206=VERTEX_POINT('',#650);
#207=VERTEX_POINT('',#654);
#208=VERTEX_POINT('',#656);
#209=VERTEX_POINT('',#660);
#210=VERTEX_POINT('',#661);
#211=VERTEX_POINT('',#663);
#212=VERTEX_POINT('',#665);
#213=VERTEX_POINT('',#669);
#214=VERTEX_POINT('',#671);
#215=VERTEX_POINT('',#675);
#216=VERTEX_POINT('',#677);
#217=VERTEX_POINT('',#683);
#218=VERTEX_POINT('',#684);
#219=VERTEX_POINT('',#686);
#220=VERTEX_POINT('',#688);
#221=VERTEX_POINT('',#692);
#222=VERTEX_POINT('',#694);
#223=VERTEX_POINT('',#698);
#224=VERTEX_POINT('',#702);
#225=VERTEX_POINT('',#704);
#226=VERTEX_POINT('',#708);
#227=VERTEX_POINT('',#710);
#228=VERTEX_POINT('',#714);
#229=VERTEX_POINT('',#716);
#230=VERTEX_POINT('',#720);
#231=VERTEX_POINT('',#721);
#232=VERTEX_POINT('',#723);
#233=VERTEX_POINT('',#729);
#234=VERTEX_POINT('',#731);
#235=VERTEX_POINT('',#735);
#236=VERTEX_POINT('',#737);
#237=VERTEX_POINT('',#741);
#238=VERTEX_POINT('',#743);
#239=VERTEX_POINT('',#747);
#240=VERTEX_POINT('',#749);
#241=VERTEX_POINT('',#753);
#242=VERTEX_POINT('',#755);
#243=VERTEX_POINT('',#759);
#244=VERTEX_POINT('',#761);
#245=EDGE_CURVE('',#205,#205,#195,.T.);
#246=EDGE_CURVE('',#205,#206,#95,.T.);
#247=EDGE_CURVE('',#206,#206,#196,.T.);
#248=EDGE_CURVE('',#207,#207,#197,.T.);
#249=EDGE_CURVE('',#207,#208,#96,.T.);
#250=EDGE_CURVE('',#208,#208,#198,.T.);
#251=EDGE_CURVE('',#209,#210,#97,.T.);
#252=EDGE_CURVE('',#209,#211,#98,.T.);
#253=EDGE_CURVE('',#212,#211,#99,.T.);
#254=EDGE_CURVE('',#210,#212,#100,.T.);
#255=EDGE_CURVE('',#210,#213,#101,.T.);
#256=EDGE_CURVE('',#214,#212,#102,.T.);
#257=EDGE_CURVE('',#213,#214,#103,.T.);
#258=EDGE_CURVE('',#215,#209,#104,.T.);
#259=EDGE_CURVE('',#215,#216,#105,.T.);
#260=EDGE_CURVE('',#211,#216,#106,.T.);
#261=EDGE_CURVE('',#216,#214,#107,.T.);
#262=EDGE_CURVE('',#217,#218,#108,.T.);
#263=EDGE_CURVE('',#217,#219,#109,.T.);
#264=EDGE_CURVE('',#220,#219,#110,.T.);
#265=EDGE_CURVE('',#218,#220,#111,.T.);
#266=EDGE_CURVE('',#218,#221,#112,.T.);
#267=EDGE_CURVE('',#222,#220,#113,.T.);
#268=EDGE_CURVE('',#221,#222,#114,.T.);
#269=EDGE_CURVE('',#219,#223,#115,.T.);
#270=EDGE_CURVE('',#223,#222,#116,.T.);
#271=EDGE_CURVE('',#224,#224,#199,.T.);
#272=EDGE_CURVE('',#224,#225,#117,.T.);
#273=EDGE_CURVE('',#225,#225,#200,.T.);
#274=EDGE_CURVE('',#226,#226,#201,.T.);
#275=EDGE_CURVE('',#226,#227,#118,.T.);
#276=EDGE_CURVE('',#227,#227,#202,.T.);
#277=EDGE_CURVE('',#228,#228,#203,.T.);
#278=EDGE_CURVE('',#228,#229,#119,.T.);
#279=EDGE_CURVE('',#229,#229,#204,.T.);
#280=EDGE_CURVE('',#230,#231,#120,.T.);
#281=EDGE_CURVE('',#231,#232,#121,.T.);
#282=EDGE_CURVE('',#213,#232,#122,.T.);
#283=EDGE_CURVE('',#221,#215,#123,.T.);
#284=EDGE_CURVE('',#230,#223,#124,.T.);
#285=EDGE_CURVE('',#233,#230,#125,.T.);
#286=EDGE_CURVE('',#234,#217,#126,.T.);
#287=EDGE_CURVE('',#233,#234,#127,.T.);
#288=EDGE_CURVE('',#235,#233,#128,.T.);
#289=EDGE_CURVE('',#236,#234,#129,.T.);
#290=EDGE_CURVE('',#235,#236,#130,.T.);
#291=EDGE_CURVE('',#237,#235,#131,.T.);
#292=EDGE_CURVE('',#238,#236,#132,.T.);
#293=EDGE_CURVE('',#237,#238,#133,.T.);
#294=EDGE_CURVE('',#239,#237,#134,.T.);
#295=EDGE_CURVE('',#240,#238,#135,.T.);
#296=EDGE_CURVE('',#239,#240,#136,.T.);
#297=EDGE_CURVE('',#241,#239,#137,.T.);
#298=EDGE_CURVE('',#242,#240,#138,.T.);
#299=EDGE_CURVE('',#241,#242,#139,.T.);
#300=EDGE_CURVE('',#243,#241,#140,.T.);
#301=EDGE_CURVE('',#244,#242,#141,.T.);
#302=EDGE_CURVE('',#243,#244,#142,.T.);
#303=EDGE_CURVE('',#231,#243,#143,.T.);
#304=EDGE_CURVE('',#232,#244,#144,.T.);
#305=ORIENTED_EDGE('',*,*,#245,.F.);
#306=ORIENTED_EDGE('',*,*,#246,.T.);
#307=ORIENTED_EDGE('',*,*,#247,.F.);
#308=ORIENTED_EDGE('',*,*,#246,.F.);
#309=ORIENTED_EDGE('',*,*,#248,.F.);
#310=ORIENTED_EDGE('',*,*,#249,.T.);
#311=ORIENTED_EDGE('',*,*,#250,.F.);
#312=ORIENTED_EDGE('',*,*,#249,.F.);
#313=ORIENTED_EDGE('',*,*,#251,.F.);
#314=ORIENTED_EDGE('',*,*,#252,.T.);
#315=ORIENTED_EDGE('',*,*,#253,.F.);
#316=ORIENTED_EDGE('',*,*,#254,.F.);
#317=ORIENTED_EDGE('',*,*,#247,.T.);
#318=ORIENTED_EDGE('',*,*,#255,.F.);
#319=ORIENTED_EDGE('',*,*,#254,.T.);
#320=ORIENTED_EDGE('',*,*,#256,.F.);
#321=ORIENTED_EDGE('',*,*,#257,.F.);
#322=ORIENTED_EDGE('',*,*,#258,.F.);
#323=ORIENTED_EDGE('',*,*,#259,.T.);
#324=ORIENTED_EDGE('',*,*,#260,.F.);
#325=ORIENTED_EDGE('',*,*,#252,.F.);
#326=ORIENTED_EDGE('',*,*,#260,.T.);
#327=ORIENTED_EDGE('',*,*,#261,.T.);
#328=ORIENTED_EDGE('',*,*,#256,.T.);
#329=ORIENTED_EDGE('',*,*,#253,.T.);
#330=ORIENTED_EDGE('',*,*,#262,.F.);
#331=ORIENTED_EDGE('',*,*,#263,.T.);
#332=ORIENTED_EDGE('',*,*,#264,.F.);
#333=ORIENTED_EDGE('',*,*,#265,.F.);
#334=ORIENTED_EDGE('',*,*,#250,.T.);
#335=ORIENTED_EDGE('',*,*,#266,.F.);
#336=ORIENTED_EDGE('',*,*,#265,.T.);
#337=ORIENTED_EDGE('',*,*,#267,.F.);
#338=ORIENTED_EDGE('',*,*,#268,.F.);
#339=ORIENTED_EDGE('',*,*,#267,.T.);
#340=ORIENTED_EDGE('',*,*,#264,.T.);
#341=ORIENTED_EDGE('',*,*,#269,.T.);
#342=ORIENTED_EDGE('',*,*,#270,.T.);
#343=ORIENTED_EDGE('',*,*,#271,.F.);
#344=ORIENTED_EDGE('',*,*,#272,.T.);
#345=ORIENTED_EDGE('',*,*,#273,.F.);
#346=ORIENTED_EDGE('',*,*,#272,.F.);
#347=ORIENTED_EDGE('',*,*,#274,.F.);
#348=ORIENTED_EDGE('',*,*,#275,.T.);
#349=ORIENTED_EDGE('',*,*,#276,.F.);
#350=ORIENTED_EDGE('',*,*,#275,.F.);
#351=ORIENTED_EDGE('',*,*,#277,.F.);
#352=ORIENTED_EDGE('',*,*,#278,.T.);
#353=ORIENTED_EDGE('',*,*,#279,.F.);
#354=ORIENTED_EDGE('',*,*,#278,.F.);
#355=ORIENTED_EDGE('',*,*,#280,.T.);
#356=ORIENTED_EDGE('',*,*,#281,.T.);
#357=ORIENTED_EDGE('',*,*,#282,.F.);
#358=ORIENTED_EDGE('',*,*,#257,.T.);
#359=ORIENTED_EDGE('',*,*,#261,.F.);
#360=ORIENTED_EDGE('',*,*,#259,.F.);
#361=ORIENTED_EDGE('',*,*,#283,.F.);
#362=ORIENTED_EDGE('',*,*,#268,.T.);
#363=ORIENTED_EDGE('',*,*,#270,.F.);
#364=ORIENTED_EDGE('',*,*,#284,.F.);
#365=ORIENTED_EDGE('',*,*,#245,.T.);
#366=ORIENTED_EDGE('',*,*,#248,.T.);
#367=ORIENTED_EDGE('',*,*,#285,.T.);
#368=ORIENTED_EDGE('',*,*,#284,.T.);
#369=ORIENTED_EDGE('',*,*,#269,.F.);
#370=ORIENTED_EDGE('',*,*,#263,.F.);
#371=ORIENTED_EDGE('',*,*,#286,.F.);
#372=ORIENTED_EDGE('',*,*,#287,.F.);
#373=ORIENTED_EDGE('',*,*,#288,.T.);
#374=ORIENTED_EDGE('',*,*,#287,.T.);
#375=ORIENTED_EDGE('',*,*,#289,.F.);
#376=ORIENTED_EDGE('',*,*,#290,.F.);
#377=ORIENTED_EDGE('',*,*,#291,.T.);
#378=ORIENTED_EDGE('',*,*,#290,.T.);
#379=ORIENTED_EDGE('',*,*,#292,.F.);
#380=ORIENTED_EDGE('',*,*,#293,.F.);
#381=ORIENTED_EDGE('',*,*,#294,.T.);
#382=ORIENTED_EDGE('',*,*,#293,.T.);
#383=ORIENTED_EDGE('',*,*,#295,.F.);
#384=ORIENTED_EDGE('',*,*,#296,.F.);
#385=ORIENTED_EDGE('',*,*,#297,.T.);
#386=ORIENTED_EDGE('',*,*,#296,.T.);
#387=ORIENTED_EDGE('',*,*,#298,.F.);
#388=ORIENTED_EDGE('',*,*,#299,.F.);
#389=ORIENTED_EDGE('',*,*,#300,.T.);
#390=ORIENTED_EDGE('',*,*,#299,.T.);
#391=ORIENTED_EDGE('',*,*,#301,.F.);
#392=ORIENTED_EDGE('',*,*,#302,.F.);
#393=ORIENTED_EDGE('',*,*,#303,.T.);
#394=ORIENTED_EDGE('',*,*,#302,.T.);
#395=ORIENTED_EDGE('',*,*,#304,.F.);
#396=ORIENTED_EDGE('',*,*,#281,.F.);
#397=ORIENTED_EDGE('',*,*,#255,.T.);
#398=ORIENTED_EDGE('',*,*,#282,.T.);
#399=ORIENTED_EDGE('',*,*,#304,.T.);
#400=ORIENTED_EDGE('',*,*,#301,.T.);
#401=ORIENTED_EDGE('',*,*,#298,.T.);
#402=ORIENTED_EDGE('',*,*,#295,.T.);
#403=ORIENTED_EDGE('',*,*,#292,.T.);
#404=ORIENTED_EDGE('',*,*,#289,.T.);
#405=ORIENTED_EDGE('',*,*,#286,.T.);
#406=ORIENTED_EDGE('',*,*,#262,.T.);
#407=ORIENTED_EDGE('',*,*,#266,.T.);
#408=ORIENTED_EDGE('',*,*,#283,.T.);
#409=ORIENTED_EDGE('',*,*,#258,.T.);
#410=ORIENTED_EDGE('',*,*,#251,.T.);
#411=ORIENTED_EDGE('',*,*,#271,.T.);
#412=ORIENTED_EDGE('',*,*,#274,.T.);
#413=ORIENTED_EDGE('',*,*,#277,.T.);
#414=ORIENTED_EDGE('',*,*,#303,.F.);
#415=ORIENTED_EDGE('',*,*,#280,.F.);
#416=ORIENTED_EDGE('',*,*,#285,.F.);
#417=ORIENTED_EDGE('',*,*,#288,.F.);
#418=ORIENTED_EDGE('',*,*,#291,.F.);
#419=ORIENTED_EDGE('',*,*,#294,.F.);
#420=ORIENTED_EDGE('',*,*,#297,.F.);
#421=ORIENTED_EDGE('',*,*,#300,.F.);
#422=ORIENTED_EDGE('',*,*,#273,.T.);
#423=ORIENTED_EDGE('',*,*,#276,.T.);
#424=ORIENTED_EDGE('',*,*,#279,.T.);
#425=CYLINDRICAL_SURFACE('',#498,1.);
#426=CYLINDRICAL_SURFACE('',#501,1.);
#427=CYLINDRICAL_SURFACE('',#511,1.);
#428=CYLINDRICAL_SURFACE('',#514,1.);
#429=CYLINDRICAL_SURFACE('',#517,1.);
#430=STYLED_ITEM('',(#789),#453);
#431=STYLED_ITEM('',(#789),#454);
#432=STYLED_ITEM('',(#789),#455);
#433=STYLED_ITEM('',(#789),#456);
#434=STYLED_ITEM('',(#789),#457);
#435=STYLED_ITEM('',(#789),#458);
#436=STYLED_ITEM('',(#789),#459);
#437=STYLED_ITEM('',(#789),#460);
#438=STYLED_ITEM('',(#789),#461);
#439=STYLED_ITEM('',(#789),#462);
#440=STYLED_ITEM('',(#789),#463);
#441=STYLED_ITEM('',(#789),#464);
#442=STYLED_ITEM('',(#789),#465);
#443=STYLED_ITEM('',(#789),#466);
#444=STYLED_ITEM('',(#789),#467);
#445=STYLED_ITEM('',(#789),#468);
#446=STYLED_ITEM('',(#789),#469);
#447=STYLED_ITEM('',(#789),#470);
#448=STYLED_ITEM('',(#789),#471);
#449=STYLED_ITEM('',(#789),#472);
#450=STYLED_ITEM('',(#789),#473);
#451=STYLED_ITEM('',(#789),#474);
#452=STYLED_ITEM('',(#788),#13);
#453=ADVANCED_FACE('',(#41),#425,.F.);
#454=ADVANCED_FACE('',(#42),#426,.F.);
#455=ADVANCED_FACE('',(#43,#14),#24,.T.);
#456=ADVANCED_FACE('',(#44),#25,.T.);
#457=ADVANCED_FACE('',(#45),#26,.T.);
#458=ADVANCED_FACE('',(#46),#27,.T.);
#459=ADVANCED_FACE('',(#47,#15),#28,.T.);
#460=ADVANCED_FACE('',(#48),#29,.T.);
#461=ADVANCED_FACE('',(#49),#30,.T.);
#462=ADVANCED_FACE('',(#50),#427,.F.);
#463=ADVANCED_FACE('',(#51),#428,.F.);
#464=ADVANCED_FACE('',(#52),#429,.F.);
#465=ADVANCED_FACE('',(#53,#16,#17),#31,.T.);
#466=ADVANCED_FACE('',(#54),#32,.T.);
#467=ADVANCED_FACE('',(#55),#33,.T.);
#468=ADVANCED_FACE('',(#56),#34,.T.);
#469=ADVANCED_FACE('',(#57),#35,.T.);
#470=ADVANCED_FACE('',(#58),#36,.T.);
#471=ADVANCED_FACE('',(#59),#37,.T.);
#472=ADVANCED_FACE('',(#60),#38,.T.);
#473=ADVANCED_FACE('',(#61,#18,#19,#20),#39,.T.);
#474=ADVANCED_FACE('',(#62,#21,#22,#23),#40,.F.);
#475=CLOSED_SHELL('',(#453,#454,#455,#456,#457,#458,#459,#460,#461,#462,
#463,#464,#465,#466,#467,#468,#469,#470,#471,#472,#473,#474));
#476=DERIVED_UNIT_ELEMENT(#479,1.);
#477=DERIVED_UNIT_ELEMENT(#774,-3.);
#478=DIMENSIONAL_EXPONENTS(0.,1.,0.,0.,0.,0.,0.);
#479=(
CONVERSION_BASED_UNIT('gram',#481)
MASS_UNIT()
NAMED_UNIT(#478)
);
#480=(
MASS_UNIT()
NAMED_UNIT(*)
SI_UNIT(.KILO.,.GRAM.)
);
#481=MASS_MEASURE_WITH_UNIT(MASS_MEASURE(0.001),#480);
#482=DERIVED_UNIT((#476,#477));
#483=MEASURE_REPRESENTATION_ITEM('density measure',
POSITIVE_RATIO_MEASURE(1.),#482);
#484=PROPERTY_DEFINITION_REPRESENTATION(#489,#486);
#485=PROPERTY_DEFINITION_REPRESENTATION(#490,#487);
#486=REPRESENTATION('material name',(#488),#771);
#487=REPRESENTATION('density',(#483),#771);
#488=DESCRIPTIVE_REPRESENTATION_ITEM('Generic','Generic');
#489=PROPERTY_DEFINITION('material property','material name',#781);
#490=PROPERTY_DEFINITION('material property','density of part',#781);
#491=DATE_TIME_ROLE('creation_date');
#492=APPLIED_DATE_AND_TIME_ASSIGNMENT(#493,#491,(#781));
#493=DATE_AND_TIME(#494,#495);
#494=CALENDAR_DATE(2025,5,7);
#495=LOCAL_TIME(0,0,0.,#496);
#496=COORDINATED_UNIVERSAL_TIME_OFFSET(0,0,.BEHIND.);
#497=AXIS2_PLACEMENT_3D('',#646,#530,#531);
#498=AXIS2_PLACEMENT_3D('',#647,#532,#533);
#499=AXIS2_PLACEMENT_3D('',#649,#534,#535);
#500=AXIS2_PLACEMENT_3D('',#652,#537,#538);
#501=AXIS2_PLACEMENT_3D('',#653,#539,#540);
#502=AXIS2_PLACEMENT_3D('',#655,#541,#542);
#503=AXIS2_PLACEMENT_3D('',#658,#544,#545);
#504=AXIS2_PLACEMENT_3D('',#659,#546,#547);
#505=AXIS2_PLACEMENT_3D('',#668,#552,#553);
#506=AXIS2_PLACEMENT_3D('',#674,#557,#558);
#507=AXIS2_PLACEMENT_3D('',#680,#562,#563);
#508=AXIS2_PLACEMENT_3D('',#682,#565,#566);
#509=AXIS2_PLACEMENT_3D('',#691,#571,#572);
#510=AXIS2_PLACEMENT_3D('',#697,#576,#577);
#511=AXIS2_PLACEMENT_3D('',#701,#580,#581);
#512=AXIS2_PLACEMENT_3D('',#703,#582,#583);
#513=AXIS2_PLACEMENT_3D('',#706,#585,#586);
#514=AXIS2_PLACEMENT_3D('',#707,#587,#588);
#515=AXIS2_PLACEMENT_3D('',#709,#589,#590);
#516=AXIS2_PLACEMENT_3D('',#712,#592,#593);
#517=AXIS2_PLACEMENT_3D('',#713,#594,#595);
#518=AXIS2_PLACEMENT_3D('',#715,#596,#597);
#519=AXIS2_PLACEMENT_3D('',#718,#599,#600);
#520=AXIS2_PLACEMENT_3D('',#719,#601,#602);
#521=AXIS2_PLACEMENT_3D('',#728,#608,#609);
#522=AXIS2_PLACEMENT_3D('',#734,#613,#614);
#523=AXIS2_PLACEMENT_3D('',#740,#618,#619);
#524=AXIS2_PLACEMENT_3D('',#746,#623,#624);
#525=AXIS2_PLACEMENT_3D('',#752,#628,#629);
#526=AXIS2_PLACEMENT_3D('',#758,#633,#634);
#527=AXIS2_PLACEMENT_3D('',#764,#638,#639);
#528=AXIS2_PLACEMENT_3D('',#767,#642,#643);
#529=AXIS2_PLACEMENT_3D('',#768,#644,#645);
#530=DIRECTION('axis',(0.,0.,1.));
#531=DIRECTION('refdir',(1.,0.,0.));
#532=DIRECTION('center_axis',(1.,0.,-4.51310172611852E-16));
#533=DIRECTION('ref_axis',(4.51310172611852E-16,0.,1.));
#534=DIRECTION('center_axis',(1.,0.,-4.46320813919661E-16));
#535=DIRECTION('ref_axis',(4.51310172611852E-16,0.,1.));
#536=DIRECTION('',(1.,0.,-4.51310172611852E-16));
#537=DIRECTION('center_axis',(-1.,0.,-2.22044604925031E-16));
#538=DIRECTION('ref_axis',(4.51310172611852E-16,0.,1.));
#539=DIRECTION('center_axis',(1.,0.,-3.61048138089482E-16));
#540=DIRECTION('ref_axis',(3.61048138089482E-16,0.,1.));
#541=DIRECTION('center_axis',(1.,0.,-4.46320813919661E-16));
#542=DIRECTION('ref_axis',(3.61048138089482E-16,0.,1.));
#543=DIRECTION('',(1.,0.,-3.61048138089482E-16));
#544=DIRECTION('center_axis',(-1.,0.,4.44089209850063E-16));
#545=DIRECTION('ref_axis',(3.61048138089482E-16,0.,1.));
#546=DIRECTION('center_axis',(1.,0.,2.22044604925031E-16));
#547=DIRECTION('ref_axis',(2.22044604925031E-16,0.,-1.));
#548=DIRECTION('',(-2.22044604925031E-16,0.,1.));
#549=DIRECTION('',(0.,1.,0.));
#550=DIRECTION('',(2.22044604925031E-16,0.,-1.));
#551=DIRECTION('',(0.,1.,0.));
#552=DIRECTION('center_axis',(1.8503717077086E-16,0.,1.));
#553=DIRECTION('ref_axis',(1.,0.,-1.8503717077086E-16));
#554=DIRECTION('',(-1.,0.,1.8503717077086E-16));
#555=DIRECTION('',(1.,0.,-1.8503717077086E-16));
#556=DIRECTION('',(0.,1.,0.));
#557=DIRECTION('center_axis',(-1.8503717077086E-16,0.,-1.));
#558=DIRECTION('ref_axis',(-1.,0.,1.8503717077086E-16));
#559=DIRECTION('',(1.,0.,-1.8503717077086E-16));
#560=DIRECTION('',(0.,1.,0.));
#561=DIRECTION('',(-1.,0.,1.8503717077086E-16));
#562=DIRECTION('center_axis',(0.,1.,0.));
#563=DIRECTION('ref_axis',(0.,0.,1.));
#564=DIRECTION('',(4.46320813919661E-16,0.,1.));
#565=DIRECTION('center_axis',(1.,0.,-4.44089209850063E-16));
#566=DIRECTION('ref_axis',(-4.44089209850063E-16,0.,-1.));
#567=DIRECTION('',(4.44089209850063E-16,0.,1.));
#568=DIRECTION('',(0.,1.,0.));
#569=DIRECTION('',(-4.44089209850063E-16,0.,-1.));
#570=DIRECTION('',(0.,1.,0.));
#571=DIRECTION('center_axis',(0.,0.,1.));
#572=DIRECTION('ref_axis',(1.,0.,0.));
#573=DIRECTION('',(-1.,0.,0.));
#574=DIRECTION('',(1.,0.,0.));
#575=DIRECTION('',(0.,1.,0.));
#576=DIRECTION('center_axis',(0.,1.,0.));
#577=DIRECTION('ref_axis',(0.,0.,1.));
#578=DIRECTION('',(-1.,0.,8.88178419700125E-16));
#579=DIRECTION('',(4.44089209850063E-16,0.,1.));
#580=DIRECTION('center_axis',(0.,-1.,0.));
#581=DIRECTION('ref_axis',(1.,0.,0.));
#582=DIRECTION('center_axis',(0.,-1.,0.));
#583=DIRECTION('ref_axis',(1.,0.,0.));
#584=DIRECTION('',(0.,-1.,0.));
#585=DIRECTION('center_axis',(0.,1.,0.));
#586=DIRECTION('ref_axis',(1.,0.,0.));
#587=DIRECTION('center_axis',(0.,-1.,0.));
#588=DIRECTION('ref_axis',(1.,0.,0.));
#589=DIRECTION('center_axis',(0.,-1.,0.));
#590=DIRECTION('ref_axis',(1.,0.,0.));
#591=DIRECTION('',(0.,-1.,0.));
#592=DIRECTION('center_axis',(0.,1.,0.));
#593=DIRECTION('ref_axis',(1.,0.,0.));
#594=DIRECTION('center_axis',(0.,-1.,0.));
#595=DIRECTION('ref_axis',(1.,0.,0.));
#596=DIRECTION('center_axis',(0.,-1.,0.));
#597=DIRECTION('ref_axis',(1.,0.,0.));
#598=DIRECTION('',(0.,-1.,0.));
#599=DIRECTION('center_axis',(0.,1.,0.));
#600=DIRECTION('ref_axis',(1.,0.,0.));
#601=DIRECTION('center_axis',(-1.,0.,4.46320813919661E-16));
#602=DIRECTION('ref_axis',(4.46320813919661E-16,0.,1.));
#603=DIRECTION('',(4.46320813919661E-16,0.,1.));
#604=DIRECTION('',(0.,1.,0.));
#605=DIRECTION('',(4.46320813919661E-16,0.,1.));
#606=DIRECTION('',(4.46320813919661E-16,0.,1.));
#607=DIRECTION('',(0.,1.,0.));
#608=DIRECTION('center_axis',(-8.88178419700125E-16,0.,-1.));
#609=DIRECTION('ref_axis',(-1.,0.,8.88178419700125E-16));
#610=DIRECTION('',(-1.,0.,8.88178419700125E-16));
#611=DIRECTION('',(-1.,0.,8.88178419700125E-16));
#612=DIRECTION('',(0.,1.,0.));
#613=DIRECTION('center_axis',(1.,0.,0.));
#614=DIRECTION('ref_axis',(0.,0.,-1.));
#615=DIRECTION('',(0.,0.,-1.));
#616=DIRECTION('',(0.,0.,-1.));
#617=DIRECTION('',(0.,1.,0.));
#618=DIRECTION('center_axis',(-2.11471052309554E-16,0.,-1.));
#619=DIRECTION('ref_axis',(-1.,0.,2.11471052309554E-16));
#620=DIRECTION('',(-1.,0.,2.11471052309554E-16));
#621=DIRECTION('',(-1.,0.,2.11471052309554E-16));
#622=DIRECTION('',(0.,1.,0.));
#623=DIRECTION('center_axis',(1.,0.,-7.40148683083438E-17));
#624=DIRECTION('ref_axis',(-7.40148683083438E-17,0.,-1.));
#625=DIRECTION('',(-7.40148683083438E-17,0.,-1.));
#626=DIRECTION('',(-7.40148683083438E-17,0.,-1.));
#627=DIRECTION('',(0.,1.,0.));
#628=DIRECTION('center_axis',(0.,0.,-1.));
#629=DIRECTION('ref_axis',(-1.,0.,0.));
#630=DIRECTION('',(-1.,0.,0.));
#631=DIRECTION('',(-1.,0.,0.));
#632=DIRECTION('',(0.,1.,0.));
#633=DIRECTION('center_axis',(1.,0.,0.));
#634=DIRECTION('ref_axis',(0.,0.,-1.));
#635=DIRECTION('',(0.,0.,-1.));
#636=DIRECTION('',(0.,0.,-1.));
#637=DIRECTION('',(0.,1.,0.));
#638=DIRECTION('center_axis',(0.,0.,1.));
#639=DIRECTION('ref_axis',(1.,0.,0.));
#640=DIRECTION('',(1.,0.,0.));
#641=DIRECTION('',(1.,0.,0.));
#642=DIRECTION('center_axis',(0.,1.,0.));
#643=DIRECTION('ref_axis',(0.,0.,1.));
#644=DIRECTION('center_axis',(0.,1.,0.));
#645=DIRECTION('ref_axis',(0.,0.,1.));
#646=CARTESIAN_POINT('',(0.,0.,0.));
#647=CARTESIAN_POINT('Origin',(-8.99999999999998,19.15,2.08393476279493));
#648=CARTESIAN_POINT('',(-8.99999999999998,19.15,1.08393476279493));
#649=CARTESIAN_POINT('Origin',(-8.99999999999998,19.15,2.08393476279493));
#650=CARTESIAN_POINT('',(-5.99999999999999,19.15,1.08393476279493));
#651=CARTESIAN_POINT('',(-8.99999999999998,19.15,1.08393476279493));
#652=CARTESIAN_POINT('Origin',(-5.99999999999999,19.15,2.08393476279493));
#653=CARTESIAN_POINT('Origin',(-9.,19.15,-25.7160652372051));
#654=CARTESIAN_POINT('',(-9.,19.15,-26.7160652372051));
#655=CARTESIAN_POINT('Origin',(-9.,19.15,-25.7160652372051));
#656=CARTESIAN_POINT('',(-6.,19.15,-26.7160652372051));
#657=CARTESIAN_POINT('',(-9.,19.15,-26.7160652372051));
#658=CARTESIAN_POINT('Origin',(-6.,19.15,-25.7160652372051));
#659=CARTESIAN_POINT('Origin',(-5.99999999999999,13.,4.58393476279493));
#660=CARTESIAN_POINT('',(-5.99999999999999,13.,-0.416065237205068));
#661=CARTESIAN_POINT('',(-5.99999999999999,13.,4.58393476279493));
#662=CARTESIAN_POINT('',(-5.99999999999999,13.,-1.86606523720508));
#663=CARTESIAN_POINT('',(-5.99999999999999,25.3,-0.416065237205068));
#664=CARTESIAN_POINT('',(-5.99999999999999,13.,-0.416065237205068));
#665=CARTESIAN_POINT('',(-5.99999999999999,25.3,4.58393476279493));
#666=CARTESIAN_POINT('',(-5.99999999999999,25.3,4.58393476279493));
#667=CARTESIAN_POINT('',(-5.99999999999999,13.,4.58393476279493));
#668=CARTESIAN_POINT('Origin',(-8.99999999999998,13.,4.58393476279493));
#669=CARTESIAN_POINT('',(-8.99999999999998,13.,4.58393476279493));
#670=CARTESIAN_POINT('',(-1.24999999999999,13.,4.58393476279493));
#671=CARTESIAN_POINT('',(-8.99999999999998,25.3,4.58393476279493));
#672=CARTESIAN_POINT('',(-8.99999999999998,25.3,4.58393476279493));
#673=CARTESIAN_POINT('',(-8.99999999999998,13.,4.58393476279493));
#674=CARTESIAN_POINT('Origin',(-5.99999999999999,13.,-0.416065237205068));
#675=CARTESIAN_POINT('',(-8.99999999999998,13.,-0.416065237205068));
#676=CARTESIAN_POINT('',(0.250000000000008,13.,-0.416065237205069));
#677=CARTESIAN_POINT('',(-8.99999999999998,25.3,-0.416065237205068));
#678=CARTESIAN_POINT('',(-8.99999999999998,13.,-0.416065237205068));
#679=CARTESIAN_POINT('',(-5.99999999999999,25.3,-0.416065237205068));
#680=CARTESIAN_POINT('Origin',(-7.49999999999999,25.3,2.08393476279493));
#681=CARTESIAN_POINT('',(-9.,25.3,-28.2160652372051));
#682=CARTESIAN_POINT('Origin',(-5.99999999999999,13.,-23.2160652372051));
#683=CARTESIAN_POINT('',(-6.,13.,-28.2160652372051));
#684=CARTESIAN_POINT('',(-5.99999999999999,13.,-23.2160652372051));
#685=CARTESIAN_POINT('',(-5.99999999999999,13.,-15.7660652372051));
#686=CARTESIAN_POINT('',(-6.,25.3,-28.2160652372051));
#687=CARTESIAN_POINT('',(-6.,13.,-28.2160652372051));
#688=CARTESIAN_POINT('',(-5.99999999999999,25.3,-23.2160652372051));
#689=CARTESIAN_POINT('',(-5.99999999999999,25.3,-23.2160652372051));
#690=CARTESIAN_POINT('',(-5.99999999999999,13.,-23.2160652372051));
#691=CARTESIAN_POINT('Origin',(-8.99999999999999,13.,-23.2160652372051));
#692=CARTESIAN_POINT('',(-8.99999999999999,13.,-23.2160652372051));
#693=CARTESIAN_POINT('',(-1.24999999999999,13.,-23.2160652372051));
#694=CARTESIAN_POINT('',(-8.99999999999999,25.3,-23.2160652372051));
#695=CARTESIAN_POINT('',(-8.99999999999999,25.3,-23.2160652372051));
#696=CARTESIAN_POINT('',(-8.99999999999999,13.,-23.2160652372051));
#697=CARTESIAN_POINT('Origin',(-7.5,25.3,-25.7160652372051));
#698=CARTESIAN_POINT('',(-9.,25.3,-28.2160652372051));
#699=CARTESIAN_POINT('',(-4.,25.3,-28.2160652372051));
#700=CARTESIAN_POINT('',(-9.,25.3,-28.2160652372051));
#701=CARTESIAN_POINT('Origin',(20.,13.,9.78393476279491));
#702=CARTESIAN_POINT('',(19.,13.,9.78393476279491));
#703=CARTESIAN_POINT('Origin',(20.,13.,9.78393476279491));
#704=CARTESIAN_POINT('',(19.,0.,9.78393476279491));
#705=CARTESIAN_POINT('',(19.,13.,9.78393476279491));
#706=CARTESIAN_POINT('Origin',(20.,0.,9.78393476279491));
#707=CARTESIAN_POINT('Origin',(1.20000000000001,13.,9.78393476279492));
#708=CARTESIAN_POINT('',(0.200000000000006,13.,9.78393476279492));
#709=CARTESIAN_POINT('Origin',(1.20000000000001,13.,9.78393476279492));
#710=CARTESIAN_POINT('',(0.200000000000006,0.,9.78393476279492));
#711=CARTESIAN_POINT('',(0.200000000000006,13.,9.78393476279492));
#712=CARTESIAN_POINT('Origin',(1.20000000000001,0.,9.78393476279492));
#713=CARTESIAN_POINT('Origin',(10.6,13.,-9.21606523720508));
#714=CARTESIAN_POINT('',(9.6,13.,-9.21606523720508));
#715=CARTESIAN_POINT('Origin',(10.6,13.,-9.21606523720508));
#716=CARTESIAN_POINT('',(9.6,0.,-9.21606523720508));
#717=CARTESIAN_POINT('',(9.6,13.,-9.21606523720508));
#718=CARTESIAN_POINT('Origin',(10.6,0.,-9.21606523720508));
#719=CARTESIAN_POINT('Origin',(-9.,0.,-28.2160652372051));
#720=CARTESIAN_POINT('',(-9.,0.,-28.2160652372051));
#721=CARTESIAN_POINT('',(-8.99999999999998,0.,11.5839347627949));
#722=CARTESIAN_POINT('',(-9.,0.,-28.2160652372051));
#723=CARTESIAN_POINT('',(-8.99999999999998,13.,11.5839347627949));
#724=CARTESIAN_POINT('',(-8.99999999999998,0.,11.5839347627949));
#725=CARTESIAN_POINT('',(-9.,13.,-28.2160652372051));
#726=CARTESIAN_POINT('',(-9.,13.,-28.2160652372051));
#727=CARTESIAN_POINT('',(-9.,0.,-28.2160652372051));
#728=CARTESIAN_POINT('Origin',(-4.,0.,-28.2160652372051));
#729=CARTESIAN_POINT('',(-4.,0.,-28.2160652372051));
#730=CARTESIAN_POINT('',(-4.,0.,-28.2160652372051));
#731=CARTESIAN_POINT('',(-4.,13.,-28.2160652372051));
#732=CARTESIAN_POINT('',(-4.,13.,-28.2160652372051));
#733=CARTESIAN_POINT('',(-4.,0.,-28.2160652372051));
#734=CARTESIAN_POINT('Origin',(-4.,0.,-23.2160652372051));
#735=CARTESIAN_POINT('',(-4.,0.,-23.2160652372051));
#736=CARTESIAN_POINT('',(-4.,0.,-23.2160652372051));
#737=CARTESIAN_POINT('',(-4.,13.,-23.2160652372051));
#738=CARTESIAN_POINT('',(-4.,13.,-23.2160652372051));
#739=CARTESIAN_POINT('',(-4.,0.,-23.2160652372051));
#740=CARTESIAN_POINT('Origin',(17.,0.,-23.2160652372051));
#741=CARTESIAN_POINT('',(17.,0.,-23.2160652372051));
#742=CARTESIAN_POINT('',(17.,0.,-23.2160652372051));
#743=CARTESIAN_POINT('',(17.,13.,-23.2160652372051));
#744=CARTESIAN_POINT('',(17.,13.,-23.2160652372051));
#745=CARTESIAN_POINT('',(17.,0.,-23.2160652372051));
#746=CARTESIAN_POINT('Origin',(17.,0.,6.78393476279492));
#747=CARTESIAN_POINT('',(17.,0.,6.78393476279492));
#748=CARTESIAN_POINT('',(17.,0.,6.78393476279492));
#749=CARTESIAN_POINT('',(17.,13.,6.78393476279492));
#750=CARTESIAN_POINT('',(17.,13.,6.78393476279492));
#751=CARTESIAN_POINT('',(17.,0.,6.78393476279492));
#752=CARTESIAN_POINT('Origin',(22.,0.,6.78393476279492));
#753=CARTESIAN_POINT('',(22.,0.,6.78393476279492));
#754=CARTESIAN_POINT('',(22.,0.,6.78393476279492));
#755=CARTESIAN_POINT('',(22.,13.,6.78393476279492));
#756=CARTESIAN_POINT('',(22.,13.,6.78393476279492));
#757=CARTESIAN_POINT('',(22.,0.,6.78393476279492));
#758=CARTESIAN_POINT('Origin',(22.,0.,11.5839347627949));
#759=CARTESIAN_POINT('',(22.,0.,11.5839347627949));
#760=CARTESIAN_POINT('',(22.,0.,11.5839347627949));
#761=CARTESIAN_POINT('',(22.,13.,11.5839347627949));
#762=CARTESIAN_POINT('',(22.,13.,11.5839347627949));
#763=CARTESIAN_POINT('',(22.,0.,11.5839347627949));
#764=CARTESIAN_POINT('Origin',(-8.99999999999998,0.,11.5839347627949));
#765=CARTESIAN_POINT('',(-8.99999999999998,0.,11.5839347627949));
#766=CARTESIAN_POINT('',(-8.99999999999998,13.,11.5839347627949));
#767=CARTESIAN_POINT('Origin',(6.50000000000001,13.,-8.31606523720508));
#768=CARTESIAN_POINT('Origin',(6.50000000000001,0.,-8.31606523720508));
#769=UNCERTAINTY_MEASURE_WITH_UNIT(LENGTH_MEASURE(0.01),#773,
'DISTANCE_ACCURACY_VALUE',
'Maximum model space distance between geometric entities at asserted c
onnectivities');
#770=UNCERTAINTY_MEASURE_WITH_UNIT(LENGTH_MEASURE(0.01),#773,
'DISTANCE_ACCURACY_VALUE',
'Maximum model space distance between geometric entities at asserted c
onnectivities');
#771=(
GEOMETRIC_REPRESENTATION_CONTEXT(3)
GLOBAL_UNCERTAINTY_ASSIGNED_CONTEXT((#769))
GLOBAL_UNIT_ASSIGNED_CONTEXT((#773,#775,#776))
REPRESENTATION_CONTEXT('','3D')
);
#772=(
GEOMETRIC_REPRESENTATION_CONTEXT(3)
GLOBAL_UNCERTAINTY_ASSIGNED_CONTEXT((#770))
GLOBAL_UNIT_ASSIGNED_CONTEXT((#773,#775,#776))
REPRESENTATION_CONTEXT('','3D')
);
#773=(
LENGTH_UNIT()
NAMED_UNIT(*)
SI_UNIT(.MILLI.,.METRE.)
);
#774=(
LENGTH_UNIT()
NAMED_UNIT(*)
SI_UNIT(.CENTI.,.METRE.)
);
#775=(
NAMED_UNIT(*)
PLANE_ANGLE_UNIT()
SI_UNIT($,.RADIAN.)
);
#776=(
NAMED_UNIT(*)
SI_UNIT($,.STERADIAN.)
SOLID_ANGLE_UNIT()
);
#777=SHAPE_DEFINITION_REPRESENTATION(#778,#779);
#778=PRODUCT_DEFINITION_SHAPE('',$,#781);
#779=SHAPE_REPRESENTATION('',(#497),#771);
#780=PRODUCT_DEFINITION_CONTEXT('part definition',#785,'design');
#781=PRODUCT_DEFINITION('spojene 2','4_2',#782,#780);
#782=PRODUCT_DEFINITION_FORMATION('',$,#787);
#783=PRODUCT_RELATED_PRODUCT_CATEGORY('4_2','4_2',(#787));
#784=APPLICATION_PROTOCOL_DEFINITION('international standard',
'automotive_design',2009,#785);
#785=APPLICATION_CONTEXT(
'Core Data for Automotive Mechanical Design Process');
#786=PRODUCT_CONTEXT('part definition',#785,'mechanical');
#787=PRODUCT('spojene 2','4_2',$,(#786));
#788=PRESENTATION_STYLE_ASSIGNMENT((#790));
#789=PRESENTATION_STYLE_ASSIGNMENT((#791));
#790=SURFACE_STYLE_USAGE(.BOTH.,#796);
#791=SURFACE_STYLE_USAGE(.BOTH.,#797);
#792=SURFACE_STYLE_RENDERING_WITH_PROPERTIES($,#804,(#794));
#793=SURFACE_STYLE_RENDERING_WITH_PROPERTIES($,#805,(#795));
#794=SURFACE_STYLE_TRANSPARENT(0.);
#795=SURFACE_STYLE_TRANSPARENT(0.);
#796=SURFACE_SIDE_STYLE('',(#798,#792));
#797=SURFACE_SIDE_STYLE('',(#799,#793));
#798=SURFACE_STYLE_FILL_AREA(#800);
#799=SURFACE_STYLE_FILL_AREA(#801);
#800=FILL_AREA_STYLE('',(#802));
#801=FILL_AREA_STYLE('',(#803));
#802=FILL_AREA_STYLE_COLOUR('',#804);
#803=FILL_AREA_STYLE_COLOUR('',#805);
#804=COLOUR_RGB('',0.749019607843137,0.749019607843137,0.749019607843137);
#805=COLOUR_RGB('',0.0509803921568627,0.615686274509804,0.0509803921568627);
ENDSEC;
END-ISO-10303-21;
