ISO-10303-21;
HEADER;
/* Generated by software containing ST-Developer
 * from STEP Tools, Inc. (www.steptools.com) 
 */

FILE_DESCRIPTION(
/* description */ (''),
/* implementation_level */ '2;1');

FILE_NAME(
/* name */ '8.stp',
/* time_stamp */ '2026-04-09T01:19:44+02:00',
/* author */ ('irach'),
/* organization */ (''),
/* preprocessor_version */ 'ST-DEVELOPER v20.1',
/* originating_system */ 'Autodesk Inventor 2026',
/* authorisation */ '');

FILE_SCHEMA (('AUTOMOTIVE_DESIGN { 1 0 10303 214 3 1 1 }'));
ENDSEC;

DATA;
#10=MECHANICAL_DESIGN_GEOMETRIC_PRESENTATION_REPRESENTATION('',(#714,#715,
#716,#717,#718,#719,#720,#721,#722,#723,#724,#725,#726,#727,#728,#729,#730,
#731,#732,#733,#734,#735,#736,#737,#738,#739,#740,#741,#742,#743,#744,#745,
#746,#747,#748,#749,#750,#751,#752),#1260);
#11=SHAPE_REPRESENTATION_RELATIONSHIP('SRR','None',#1267,#12);
#12=ADVANCED_BREP_SHAPE_REPRESENTATION('',(#13),#1259);
#13=MANIFOLD_SOLID_BREP('Solid2',#791);
#14=FACE_BOUND('',#115,.T.);
#15=FACE_BOUND('',#116,.T.);
#16=FACE_BOUND('',#121,.T.);
#17=FACE_BOUND('',#124,.T.);
#18=FACE_BOUND('',#136,.T.);
#19=FACE_BOUND('',#137,.T.);
#20=FACE_BOUND('',#138,.T.);
#21=FACE_BOUND('',#139,.T.);
#22=PLANE('',#817);
#23=PLANE('',#818);
#24=PLANE('',#819);
#25=PLANE('',#820);
#26=PLANE('',#821);
#27=PLANE('',#822);
#28=PLANE('',#823);
#29=PLANE('',#824);
#30=PLANE('',#825);
#31=PLANE('',#826);
#32=PLANE('',#830);
#33=PLANE('',#831);
#34=PLANE('',#832);
#35=PLANE('',#833);
#36=PLANE('',#834);
#37=PLANE('',#835);
#38=PLANE('',#836);
#39=PLANE('',#837);
#40=PLANE('',#838);
#41=PLANE('',#845);
#42=PLANE('',#846);
#43=PLANE('',#847);
#44=PLANE('',#848);
#45=PLANE('',#849);
#46=PLANE('',#850);
#47=PLANE('',#851);
#48=PLANE('',#852);
#49=PLANE('',#853);
#50=PLANE('',#854);
#51=PLANE('',#855);
#52=PLANE('',#856);
#53=PLANE('',#857);
#54=PLANE('',#858);
#55=PLANE('',#859);
#56=FACE_OUTER_BOUND('',#94,.T.);
#57=FACE_OUTER_BOUND('',#95,.T.);
#58=FACE_OUTER_BOUND('',#96,.T.);
#59=FACE_OUTER_BOUND('',#97,.T.);
#60=FACE_OUTER_BOUND('',#98,.T.);
#61=FACE_OUTER_BOUND('',#99,.T.);
#62=FACE_OUTER_BOUND('',#100,.T.);
#63=FACE_OUTER_BOUND('',#101,.T.);
#64=FACE_OUTER_BOUND('',#102,.T.);
#65=FACE_OUTER_BOUND('',#103,.T.);
#66=FACE_OUTER_BOUND('',#104,.T.);
#67=FACE_OUTER_BOUND('',#105,.T.);
#68=FACE_OUTER_BOUND('',#106,.T.);
#69=FACE_OUTER_BOUND('',#107,.T.);
#70=FACE_OUTER_BOUND('',#108,.T.);
#71=FACE_OUTER_BOUND('',#109,.T.);
#72=FACE_OUTER_BOUND('',#110,.T.);
#73=FACE_OUTER_BOUND('',#111,.T.);
#74=FACE_OUTER_BOUND('',#112,.T.);
#75=FACE_OUTER_BOUND('',#113,.T.);
#76=FACE_OUTER_BOUND('',#114,.T.);
#77=FACE_OUTER_BOUND('',#117,.T.);
#78=FACE_OUTER_BOUND('',#118,.T.);
#79=FACE_OUTER_BOUND('',#119,.T.);
#80=FACE_OUTER_BOUND('',#120,.T.);
#81=FACE_OUTER_BOUND('',#122,.T.);
#82=FACE_OUTER_BOUND('',#123,.T.);
#83=FACE_OUTER_BOUND('',#125,.T.);
#84=FACE_OUTER_BOUND('',#126,.T.);
#85=FACE_OUTER_BOUND('',#127,.T.);
#86=FACE_OUTER_BOUND('',#128,.T.);
#87=FACE_OUTER_BOUND('',#129,.T.);
#88=FACE_OUTER_BOUND('',#130,.T.);
#89=FACE_OUTER_BOUND('',#131,.T.);
#90=FACE_OUTER_BOUND('',#132,.T.);
#91=FACE_OUTER_BOUND('',#133,.T.);
#92=FACE_OUTER_BOUND('',#134,.T.);
#93=FACE_OUTER_BOUND('',#135,.T.);
#94=EDGE_LOOP('',(#506,#507,#508,#509));
#95=EDGE_LOOP('',(#510));
#96=EDGE_LOOP('',(#511,#512,#513,#514));
#97=EDGE_LOOP('',(#515,#516,#517,#518));
#98=EDGE_LOOP('',(#519,#520,#521,#522));
#99=EDGE_LOOP('',(#523,#524,#525,#526));
#100=EDGE_LOOP('',(#527,#528,#529,#530,#531,#532,#533,#534,#535,#536,#537,
#538,#539,#540));
#101=EDGE_LOOP('',(#541,#542,#543,#544));
#102=EDGE_LOOP('',(#545,#546,#547,#548));
#103=EDGE_LOOP('',(#549,#550,#551,#552,#553,#554,#555,#556,#557,#558));
#104=EDGE_LOOP('',(#559,#560,#561,#562));
#105=EDGE_LOOP('',(#563,#564,#565,#566));
#106=EDGE_LOOP('',(#567,#568,#569,#570));
#107=EDGE_LOOP('',(#571,#572,#573,#574));
#108=EDGE_LOOP('',(#575,#576,#577,#578));
#109=EDGE_LOOP('',(#579,#580,#581,#582));
#110=EDGE_LOOP('',(#583,#584,#585,#586));
#111=EDGE_LOOP('',(#587,#588,#589,#590));
#112=EDGE_LOOP('',(#591,#592,#593,#594));
#113=EDGE_LOOP('',(#595,#596,#597,#598));
#114=EDGE_LOOP('',(#599,#600,#601,#602,#603,#604,#605,#606,#607,#608,#609,
#610));
#115=EDGE_LOOP('',(#611));
#116=EDGE_LOOP('',(#612));
#117=EDGE_LOOP('',(#613,#614,#615,#616));
#118=EDGE_LOOP('',(#617,#618,#619,#620));
#119=EDGE_LOOP('',(#621,#622,#623,#624));
#120=EDGE_LOOP('',(#625,#626,#627,#628));
#121=EDGE_LOOP('',(#629));
#122=EDGE_LOOP('',(#630,#631,#632,#633));
#123=EDGE_LOOP('',(#634,#635,#636,#637));
#124=EDGE_LOOP('',(#638));
#125=EDGE_LOOP('',(#639,#640,#641,#642));
#126=EDGE_LOOP('',(#643,#644,#645,#646));
#127=EDGE_LOOP('',(#647,#648,#649,#650));
#128=EDGE_LOOP('',(#651,#652,#653,#654));
#129=EDGE_LOOP('',(#655,#656,#657,#658,#659,#660,#661,#662,#663,#664,#665,
#666));
#130=EDGE_LOOP('',(#667,#668,#669,#670));
#131=EDGE_LOOP('',(#671,#672,#673,#674,#675,#676,#677,#678));
#132=EDGE_LOOP('',(#679,#680,#681,#682));
#133=EDGE_LOOP('',(#683,#684,#685,#686,#687,#688,#689,#690,#691,#692,#693,
#694));
#134=EDGE_LOOP('',(#695,#696,#697,#698));
#135=EDGE_LOOP('',(#699,#700,#701,#702));
#136=EDGE_LOOP('',(#703));
#137=EDGE_LOOP('',(#704));
#138=EDGE_LOOP('',(#705));
#139=EDGE_LOOP('',(#706,#707,#708,#709));
#140=LINE('',#1053,#234);
#141=LINE('',#1059,#235);
#142=LINE('',#1061,#236);
#143=LINE('',#1063,#237);
#144=LINE('',#1064,#238);
#145=LINE('',#1067,#239);
#146=LINE('',#1069,#240);
#147=LINE('',#1070,#241);
#148=LINE('',#1073,#242);
#149=LINE('',#1075,#243);
#150=LINE('',#1076,#244);
#151=LINE('',#1079,#245);
#152=LINE('',#1081,#246);
#153=LINE('',#1082,#247);
#154=LINE('',#1085,#248);
#155=LINE('',#1087,#249);
#156=LINE('',#1089,#250);
#157=LINE('',#1091,#251);
#158=LINE('',#1093,#252);
#159=LINE('',#1095,#253);
#160=LINE('',#1097,#254);
#161=LINE('',#1099,#255);
#162=LINE('',#1101,#256);
#163=LINE('',#1102,#257);
#164=LINE('',#1106,#258);
#165=LINE('',#1107,#259);
#166=LINE('',#1108,#260);
#167=LINE('',#1111,#261);
#168=LINE('',#1112,#262);
#169=LINE('',#1115,#263);
#170=LINE('',#1116,#264);
#171=LINE('',#1118,#265);
#172=LINE('',#1119,#266);
#173=LINE('',#1121,#267);
#174=LINE('',#1126,#268);
#175=LINE('',#1131,#269);
#176=LINE('',#1133,#270);
#177=LINE('',#1135,#271);
#178=LINE('',#1136,#272);
#179=LINE('',#1139,#273);
#180=LINE('',#1141,#274);
#181=LINE('',#1142,#275);
#182=LINE('',#1145,#276);
#183=LINE('',#1147,#277);
#184=LINE('',#1148,#278);
#185=LINE('',#1150,#279);
#186=LINE('',#1154,#280);
#187=LINE('',#1156,#281);
#188=LINE('',#1158,#282);
#189=LINE('',#1159,#283);
#190=LINE('',#1163,#284);
#191=LINE('',#1165,#285);
#192=LINE('',#1167,#286);
#193=LINE('',#1168,#287);
#194=LINE('',#1170,#288);
#195=LINE('',#1171,#289);
#196=LINE('',#1174,#290);
#197=LINE('',#1176,#291);
#198=LINE('',#1177,#292);
#199=LINE('',#1179,#293);
#200=LINE('',#1181,#294);
#201=LINE('',#1182,#295);
#202=LINE('',#1184,#296);
#203=LINE('',#1186,#297);
#204=LINE('',#1188,#298);
#205=LINE('',#1189,#299);
#206=LINE('',#1197,#300);
#207=LINE('',#1201,#301);
#208=LINE('',#1205,#302);
#209=LINE('',#1207,#303);
#210=LINE('',#1209,#304);
#211=LINE('',#1210,#305);
#212=LINE('',#1213,#306);
#213=LINE('',#1215,#307);
#214=LINE('',#1216,#308);
#215=LINE('',#1219,#309);
#216=LINE('',#1221,#310);
#217=LINE('',#1222,#311);
#218=LINE('',#1224,#312);
#219=LINE('',#1225,#313);
#220=LINE('',#1229,#314);
#221=LINE('',#1230,#315);
#222=LINE('',#1233,#316);
#223=LINE('',#1234,#317);
#224=LINE('',#1237,#318);
#225=LINE('',#1238,#319);
#226=LINE('',#1241,#320);
#227=LINE('',#1242,#321);
#228=LINE('',#1245,#322);
#229=LINE('',#1246,#323);
#230=LINE('',#1249,#324);
#231=LINE('',#1250,#325);
#232=LINE('',#1252,#326);
#233=LINE('',#1255,#327);
#234=VECTOR('',#866,1.4);
#235=VECTOR('',#873,10.);
#236=VECTOR('',#874,10.);
#237=VECTOR('',#875,10.);
#238=VECTOR('',#876,10.);
#239=VECTOR('',#879,10.);
#240=VECTOR('',#880,10.);
#241=VECTOR('',#881,10.);
#242=VECTOR('',#884,10.);
#243=VECTOR('',#885,10.);
#244=VECTOR('',#886,10.);
#245=VECTOR('',#889,10.);
#246=VECTOR('',#890,10.);
#247=VECTOR('',#891,10.);
#248=VECTOR('',#894,10.);
#249=VECTOR('',#895,10.);
#250=VECTOR('',#896,10.);
#251=VECTOR('',#897,10.);
#252=VECTOR('',#898,10.);
#253=VECTOR('',#899,10.);
#254=VECTOR('',#900,10.);
#255=VECTOR('',#901,10.);
#256=VECTOR('',#902,10.);
#257=VECTOR('',#903,10.);
#258=VECTOR('',#906,10.);
#259=VECTOR('',#907,10.);
#260=VECTOR('',#908,10.);
#261=VECTOR('',#911,10.);
#262=VECTOR('',#912,10.);
#263=VECTOR('',#915,10.);
#264=VECTOR('',#916,10.);
#265=VECTOR('',#917,10.);
#266=VECTOR('',#918,10.);
#267=VECTOR('',#921,10.);
#268=VECTOR('',#926,1.75);
#269=VECTOR('',#931,10.);
#270=VECTOR('',#932,10.);
#271=VECTOR('',#933,10.);
#272=VECTOR('',#934,10.);
#273=VECTOR('',#937,10.);
#274=VECTOR('',#938,10.);
#275=VECTOR('',#939,10.);
#276=VECTOR('',#942,10.);
#277=VECTOR('',#943,10.);
#278=VECTOR('',#944,10.);
#279=VECTOR('',#947,10.);
#280=VECTOR('',#950,10.);
#281=VECTOR('',#951,10.);
#282=VECTOR('',#952,10.);
#283=VECTOR('',#953,10.);
#284=VECTOR('',#956,10.);
#285=VECTOR('',#957,10.);
#286=VECTOR('',#958,10.);
#287=VECTOR('',#959,10.);
#288=VECTOR('',#962,10.);
#289=VECTOR('',#963,10.);
#290=VECTOR('',#966,10.);
#291=VECTOR('',#967,10.);
#292=VECTOR('',#968,10.);
#293=VECTOR('',#971,10.);
#294=VECTOR('',#972,10.);
#295=VECTOR('',#973,10.);
#296=VECTOR('',#974,10.);
#297=VECTOR('',#975,10.);
#298=VECTOR('',#976,10.);
#299=VECTOR('',#977,10.);
#300=VECTOR('',#986,1.);
#301=VECTOR('',#991,1.);
#302=VECTOR('',#994,10.);
#303=VECTOR('',#995,10.);
#304=VECTOR('',#996,10.);
#305=VECTOR('',#997,10.);
#306=VECTOR('',#1000,10.);
#307=VECTOR('',#1001,10.);
#308=VECTOR('',#1002,10.);
#309=VECTOR('',#1005,10.);
#310=VECTOR('',#1006,10.);
#311=VECTOR('',#1007,10.);
#312=VECTOR('',#1010,10.);
#313=VECTOR('',#1011,10.);
#314=VECTOR('',#1016,10.);
#315=VECTOR('',#1017,10.);
#316=VECTOR('',#1020,10.);
#317=VECTOR('',#1021,10.);
#318=VECTOR('',#1024,10.);
#319=VECTOR('',#1025,10.);
#320=VECTOR('',#1028,10.);
#321=VECTOR('',#1029,10.);
#322=VECTOR('',#1032,10.);
#323=VECTOR('',#1033,10.);
#324=VECTOR('',#1036,10.);
#325=VECTOR('',#1037,10.);
#326=VECTOR('',#1040,10.);
#327=VECTOR('',#1045,10.);
#328=CIRCLE('',#815,1.4);
#329=CIRCLE('',#816,1.4);
#330=CIRCLE('',#828,1.75);
#331=CIRCLE('',#829,1.75);
#332=CIRCLE('',#839,1.);
#333=CIRCLE('',#840,1.);
#334=CIRCLE('',#842,1.);
#335=CIRCLE('',#844,1.);
#336=VERTEX_POINT('',#1050);
#337=VERTEX_POINT('',#1052);
#338=VERTEX_POINT('',#1057);
#339=VERTEX_POINT('',#1058);
#340=VERTEX_POINT('',#1060);
#341=VERTEX_POINT('',#1062);
#342=VERTEX_POINT('',#1066);
#343=VERTEX_POINT('',#1068);
#344=VERTEX_POINT('',#1072);
#345=VERTEX_POINT('',#1074);
#346=VERTEX_POINT('',#1078);
#347=VERTEX_POINT('',#1080);
#348=VERTEX_POINT('',#1084);
#349=VERTEX_POINT('',#1086);
#350=VERTEX_POINT('',#1088);
#351=VERTEX_POINT('',#1090);
#352=VERTEX_POINT('',#1092);
#353=VERTEX_POINT('',#1094);
#354=VERTEX_POINT('',#1096);
#355=VERTEX_POINT('',#1098);
#356=VERTEX_POINT('',#1100);
#357=VERTEX_POINT('',#1104);
#358=VERTEX_POINT('',#1105);
#359=VERTEX_POINT('',#1110);
#360=VERTEX_POINT('',#1114);
#361=VERTEX_POINT('',#1117);
#362=VERTEX_POINT('',#1123);
#363=VERTEX_POINT('',#1125);
#364=VERTEX_POINT('',#1129);
#365=VERTEX_POINT('',#1130);
#366=VERTEX_POINT('',#1132);
#367=VERTEX_POINT('',#1134);
#368=VERTEX_POINT('',#1138);
#369=VERTEX_POINT('',#1140);
#370=VERTEX_POINT('',#1144);
#371=VERTEX_POINT('',#1146);
#372=VERTEX_POINT('',#1152);
#373=VERTEX_POINT('',#1153);
#374=VERTEX_POINT('',#1155);
#375=VERTEX_POINT('',#1157);
#376=VERTEX_POINT('',#1161);
#377=VERTEX_POINT('',#1162);
#378=VERTEX_POINT('',#1164);
#379=VERTEX_POINT('',#1166);
#380=VERTEX_POINT('',#1173);
#381=VERTEX_POINT('',#1175);
#382=VERTEX_POINT('',#1180);
#383=VERTEX_POINT('',#1183);
#384=VERTEX_POINT('',#1185);
#385=VERTEX_POINT('',#1187);
#386=VERTEX_POINT('',#1190);
#387=VERTEX_POINT('',#1192);
#388=VERTEX_POINT('',#1195);
#389=VERTEX_POINT('',#1199);
#390=VERTEX_POINT('',#1203);
#391=VERTEX_POINT('',#1204);
#392=VERTEX_POINT('',#1206);
#393=VERTEX_POINT('',#1208);
#394=VERTEX_POINT('',#1212);
#395=VERTEX_POINT('',#1214);
#396=VERTEX_POINT('',#1218);
#397=VERTEX_POINT('',#1220);
#398=VERTEX_POINT('',#1228);
#399=VERTEX_POINT('',#1232);
#400=VERTEX_POINT('',#1236);
#401=VERTEX_POINT('',#1240);
#402=VERTEX_POINT('',#1244);
#403=VERTEX_POINT('',#1248);
#404=EDGE_CURVE('',#336,#336,#328,.T.);
#405=EDGE_CURVE('',#336,#337,#140,.T.);
#406=EDGE_CURVE('',#337,#337,#329,.T.);
#407=EDGE_CURVE('',#338,#339,#141,.T.);
#408=EDGE_CURVE('',#340,#338,#142,.T.);
#409=EDGE_CURVE('',#341,#340,#143,.T.);
#410=EDGE_CURVE('',#339,#341,#144,.T.);
#411=EDGE_CURVE('',#342,#338,#145,.T.);
#412=EDGE_CURVE('',#343,#342,#146,.T.);
#413=EDGE_CURVE('',#340,#343,#147,.T.);
#414=EDGE_CURVE('',#342,#344,#148,.T.);
#415=EDGE_CURVE('',#345,#344,#149,.T.);
#416=EDGE_CURVE('',#343,#345,#150,.T.);
#417=EDGE_CURVE('',#346,#341,#151,.T.);
#418=EDGE_CURVE('',#346,#347,#152,.T.);
#419=EDGE_CURVE('',#347,#339,#153,.T.);
#420=EDGE_CURVE('',#348,#345,#154,.T.);
#421=EDGE_CURVE('',#349,#348,#155,.T.);
#422=EDGE_CURVE('',#350,#349,#156,.T.);
#423=EDGE_CURVE('',#350,#351,#157,.T.);
#424=EDGE_CURVE('',#352,#351,#158,.T.);
#425=EDGE_CURVE('',#353,#352,#159,.T.);
#426=EDGE_CURVE('',#353,#354,#160,.T.);
#427=EDGE_CURVE('',#354,#355,#161,.T.);
#428=EDGE_CURVE('',#356,#355,#162,.T.);
#429=EDGE_CURVE('',#356,#346,#163,.T.);
#430=EDGE_CURVE('',#357,#358,#164,.T.);
#431=EDGE_CURVE('',#354,#357,#165,.T.);
#432=EDGE_CURVE('',#358,#353,#166,.T.);
#433=EDGE_CURVE('',#359,#357,#167,.T.);
#434=EDGE_CURVE('',#355,#359,#168,.T.);
#435=EDGE_CURVE('',#347,#360,#169,.T.);
#436=EDGE_CURVE('',#360,#359,#170,.T.);
#437=EDGE_CURVE('',#358,#361,#171,.T.);
#438=EDGE_CURVE('',#344,#361,#172,.T.);
#439=EDGE_CURVE('',#361,#352,#173,.T.);
#440=EDGE_CURVE('',#362,#362,#330,.T.);
#441=EDGE_CURVE('',#362,#363,#174,.T.);
#442=EDGE_CURVE('',#363,#363,#331,.T.);
#443=EDGE_CURVE('',#364,#365,#175,.T.);
#444=EDGE_CURVE('',#364,#366,#176,.T.);
#445=EDGE_CURVE('',#367,#366,#177,.T.);
#446=EDGE_CURVE('',#365,#367,#178,.T.);
#447=EDGE_CURVE('',#365,#368,#179,.T.);
#448=EDGE_CURVE('',#369,#367,#180,.T.);
#449=EDGE_CURVE('',#368,#369,#181,.T.);
#450=EDGE_CURVE('',#370,#364,#182,.T.);
#451=EDGE_CURVE('',#371,#370,#183,.T.);
#452=EDGE_CURVE('',#366,#371,#184,.T.);
#453=EDGE_CURVE('',#369,#371,#185,.T.);
#454=EDGE_CURVE('',#372,#373,#186,.T.);
#455=EDGE_CURVE('',#374,#372,#187,.T.);
#456=EDGE_CURVE('',#375,#374,#188,.T.);
#457=EDGE_CURVE('',#373,#375,#189,.T.);
#458=EDGE_CURVE('',#376,#377,#190,.T.);
#459=EDGE_CURVE('',#378,#376,#191,.T.);
#460=EDGE_CURVE('',#379,#378,#192,.T.);
#461=EDGE_CURVE('',#377,#379,#193,.T.);
#462=EDGE_CURVE('',#379,#374,#194,.T.);
#463=EDGE_CURVE('',#375,#378,#195,.T.);
#464=EDGE_CURVE('',#373,#380,#196,.T.);
#465=EDGE_CURVE('',#380,#381,#197,.T.);
#466=EDGE_CURVE('',#381,#372,#198,.T.);
#467=EDGE_CURVE('',#368,#376,#199,.T.);
#468=EDGE_CURVE('',#377,#382,#200,.T.);
#469=EDGE_CURVE('',#382,#350,#201,.T.);
#470=EDGE_CURVE('',#349,#383,#202,.T.);
#471=EDGE_CURVE('',#383,#384,#203,.T.);
#472=EDGE_CURVE('',#384,#385,#204,.T.);
#473=EDGE_CURVE('',#385,#370,#205,.T.);
#474=EDGE_CURVE('',#386,#386,#332,.T.);
#475=EDGE_CURVE('',#387,#387,#333,.T.);
#476=EDGE_CURVE('',#388,#388,#334,.T.);
#477=EDGE_CURVE('',#388,#387,#206,.T.);
#478=EDGE_CURVE('',#389,#389,#335,.T.);
#479=EDGE_CURVE('',#389,#386,#207,.T.);
#480=EDGE_CURVE('',#390,#391,#208,.T.);
#481=EDGE_CURVE('',#390,#392,#209,.T.);
#482=EDGE_CURVE('',#393,#392,#210,.T.);
#483=EDGE_CURVE('',#391,#393,#211,.T.);
#484=EDGE_CURVE('',#391,#394,#212,.T.);
#485=EDGE_CURVE('',#395,#393,#213,.T.);
#486=EDGE_CURVE('',#394,#395,#214,.T.);
#487=EDGE_CURVE('',#394,#396,#215,.T.);
#488=EDGE_CURVE('',#397,#395,#216,.T.);
#489=EDGE_CURVE('',#396,#397,#217,.T.);
#490=EDGE_CURVE('',#396,#390,#218,.T.);
#491=EDGE_CURVE('',#392,#397,#219,.T.);
#492=EDGE_CURVE('',#398,#348,#220,.T.);
#493=EDGE_CURVE('',#383,#398,#221,.T.);
#494=EDGE_CURVE('',#399,#398,#222,.T.);
#495=EDGE_CURVE('',#384,#399,#223,.T.);
#496=EDGE_CURVE('',#400,#399,#224,.T.);
#497=EDGE_CURVE('',#385,#400,#225,.T.);
#498=EDGE_CURVE('',#401,#400,#226,.T.);
#499=EDGE_CURVE('',#380,#401,#227,.T.);
#500=EDGE_CURVE('',#402,#401,#228,.T.);
#501=EDGE_CURVE('',#381,#402,#229,.T.);
#502=EDGE_CURVE('',#403,#402,#230,.T.);
#503=EDGE_CURVE('',#382,#403,#231,.T.);
#504=EDGE_CURVE('',#351,#403,#232,.T.);
#505=EDGE_CURVE('',#360,#356,#233,.T.);
#506=ORIENTED_EDGE('',*,*,#404,.F.);
#507=ORIENTED_EDGE('',*,*,#405,.T.);
#508=ORIENTED_EDGE('',*,*,#406,.F.);
#509=ORIENTED_EDGE('',*,*,#405,.F.);
#510=ORIENTED_EDGE('',*,*,#404,.T.);
#511=ORIENTED_EDGE('',*,*,#407,.F.);
#512=ORIENTED_EDGE('',*,*,#408,.F.);
#513=ORIENTED_EDGE('',*,*,#409,.F.);
#514=ORIENTED_EDGE('',*,*,#410,.F.);
#515=ORIENTED_EDGE('',*,*,#411,.F.);
#516=ORIENTED_EDGE('',*,*,#412,.F.);
#517=ORIENTED_EDGE('',*,*,#413,.F.);
#518=ORIENTED_EDGE('',*,*,#408,.T.);
#519=ORIENTED_EDGE('',*,*,#412,.T.);
#520=ORIENTED_EDGE('',*,*,#414,.T.);
#521=ORIENTED_EDGE('',*,*,#415,.F.);
#522=ORIENTED_EDGE('',*,*,#416,.F.);
#523=ORIENTED_EDGE('',*,*,#410,.T.);
#524=ORIENTED_EDGE('',*,*,#417,.F.);
#525=ORIENTED_EDGE('',*,*,#418,.T.);
#526=ORIENTED_EDGE('',*,*,#419,.T.);
#527=ORIENTED_EDGE('',*,*,#409,.T.);
#528=ORIENTED_EDGE('',*,*,#413,.T.);
#529=ORIENTED_EDGE('',*,*,#416,.T.);
#530=ORIENTED_EDGE('',*,*,#420,.F.);
#531=ORIENTED_EDGE('',*,*,#421,.F.);
#532=ORIENTED_EDGE('',*,*,#422,.F.);
#533=ORIENTED_EDGE('',*,*,#423,.T.);
#534=ORIENTED_EDGE('',*,*,#424,.F.);
#535=ORIENTED_EDGE('',*,*,#425,.F.);
#536=ORIENTED_EDGE('',*,*,#426,.T.);
#537=ORIENTED_EDGE('',*,*,#427,.T.);
#538=ORIENTED_EDGE('',*,*,#428,.F.);
#539=ORIENTED_EDGE('',*,*,#429,.T.);
#540=ORIENTED_EDGE('',*,*,#417,.T.);
#541=ORIENTED_EDGE('',*,*,#430,.F.);
#542=ORIENTED_EDGE('',*,*,#431,.F.);
#543=ORIENTED_EDGE('',*,*,#426,.F.);
#544=ORIENTED_EDGE('',*,*,#432,.F.);
#545=ORIENTED_EDGE('',*,*,#433,.F.);
#546=ORIENTED_EDGE('',*,*,#434,.F.);
#547=ORIENTED_EDGE('',*,*,#427,.F.);
#548=ORIENTED_EDGE('',*,*,#431,.T.);
#549=ORIENTED_EDGE('',*,*,#407,.T.);
#550=ORIENTED_EDGE('',*,*,#419,.F.);
#551=ORIENTED_EDGE('',*,*,#435,.T.);
#552=ORIENTED_EDGE('',*,*,#436,.T.);
#553=ORIENTED_EDGE('',*,*,#433,.T.);
#554=ORIENTED_EDGE('',*,*,#430,.T.);
#555=ORIENTED_EDGE('',*,*,#437,.T.);
#556=ORIENTED_EDGE('',*,*,#438,.F.);
#557=ORIENTED_EDGE('',*,*,#414,.F.);
#558=ORIENTED_EDGE('',*,*,#411,.T.);
#559=ORIENTED_EDGE('',*,*,#432,.T.);
#560=ORIENTED_EDGE('',*,*,#425,.T.);
#561=ORIENTED_EDGE('',*,*,#439,.F.);
#562=ORIENTED_EDGE('',*,*,#437,.F.);
#563=ORIENTED_EDGE('',*,*,#440,.F.);
#564=ORIENTED_EDGE('',*,*,#441,.T.);
#565=ORIENTED_EDGE('',*,*,#442,.F.);
#566=ORIENTED_EDGE('',*,*,#441,.F.);
#567=ORIENTED_EDGE('',*,*,#443,.F.);
#568=ORIENTED_EDGE('',*,*,#444,.T.);
#569=ORIENTED_EDGE('',*,*,#445,.F.);
#570=ORIENTED_EDGE('',*,*,#446,.F.);
#571=ORIENTED_EDGE('',*,*,#447,.F.);
#572=ORIENTED_EDGE('',*,*,#446,.T.);
#573=ORIENTED_EDGE('',*,*,#448,.F.);
#574=ORIENTED_EDGE('',*,*,#449,.F.);
#575=ORIENTED_EDGE('',*,*,#450,.F.);
#576=ORIENTED_EDGE('',*,*,#451,.F.);
#577=ORIENTED_EDGE('',*,*,#452,.F.);
#578=ORIENTED_EDGE('',*,*,#444,.F.);
#579=ORIENTED_EDGE('',*,*,#452,.T.);
#580=ORIENTED_EDGE('',*,*,#453,.F.);
#581=ORIENTED_EDGE('',*,*,#448,.T.);
#582=ORIENTED_EDGE('',*,*,#445,.T.);
#583=ORIENTED_EDGE('',*,*,#454,.F.);
#584=ORIENTED_EDGE('',*,*,#455,.F.);
#585=ORIENTED_EDGE('',*,*,#456,.F.);
#586=ORIENTED_EDGE('',*,*,#457,.F.);
#587=ORIENTED_EDGE('',*,*,#458,.F.);
#588=ORIENTED_EDGE('',*,*,#459,.F.);
#589=ORIENTED_EDGE('',*,*,#460,.F.);
#590=ORIENTED_EDGE('',*,*,#461,.F.);
#591=ORIENTED_EDGE('',*,*,#462,.F.);
#592=ORIENTED_EDGE('',*,*,#460,.T.);
#593=ORIENTED_EDGE('',*,*,#463,.F.);
#594=ORIENTED_EDGE('',*,*,#456,.T.);
#595=ORIENTED_EDGE('',*,*,#454,.T.);
#596=ORIENTED_EDGE('',*,*,#464,.T.);
#597=ORIENTED_EDGE('',*,*,#465,.T.);
#598=ORIENTED_EDGE('',*,*,#466,.T.);
#599=ORIENTED_EDGE('',*,*,#450,.T.);
#600=ORIENTED_EDGE('',*,*,#443,.T.);
#601=ORIENTED_EDGE('',*,*,#447,.T.);
#602=ORIENTED_EDGE('',*,*,#467,.T.);
#603=ORIENTED_EDGE('',*,*,#458,.T.);
#604=ORIENTED_EDGE('',*,*,#468,.T.);
#605=ORIENTED_EDGE('',*,*,#469,.T.);
#606=ORIENTED_EDGE('',*,*,#422,.T.);
#607=ORIENTED_EDGE('',*,*,#470,.T.);
#608=ORIENTED_EDGE('',*,*,#471,.T.);
#609=ORIENTED_EDGE('',*,*,#472,.T.);
#610=ORIENTED_EDGE('',*,*,#473,.T.);
#611=ORIENTED_EDGE('',*,*,#474,.T.);
#612=ORIENTED_EDGE('',*,*,#475,.T.);
#613=ORIENTED_EDGE('',*,*,#476,.F.);
#614=ORIENTED_EDGE('',*,*,#477,.T.);
#615=ORIENTED_EDGE('',*,*,#475,.F.);
#616=ORIENTED_EDGE('',*,*,#477,.F.);
#617=ORIENTED_EDGE('',*,*,#478,.F.);
#618=ORIENTED_EDGE('',*,*,#479,.T.);
#619=ORIENTED_EDGE('',*,*,#474,.F.);
#620=ORIENTED_EDGE('',*,*,#479,.F.);
#621=ORIENTED_EDGE('',*,*,#480,.F.);
#622=ORIENTED_EDGE('',*,*,#481,.T.);
#623=ORIENTED_EDGE('',*,*,#482,.F.);
#624=ORIENTED_EDGE('',*,*,#483,.F.);
#625=ORIENTED_EDGE('',*,*,#484,.F.);
#626=ORIENTED_EDGE('',*,*,#483,.T.);
#627=ORIENTED_EDGE('',*,*,#485,.F.);
#628=ORIENTED_EDGE('',*,*,#486,.F.);
#629=ORIENTED_EDGE('',*,*,#442,.T.);
#630=ORIENTED_EDGE('',*,*,#487,.F.);
#631=ORIENTED_EDGE('',*,*,#486,.T.);
#632=ORIENTED_EDGE('',*,*,#488,.F.);
#633=ORIENTED_EDGE('',*,*,#489,.F.);
#634=ORIENTED_EDGE('',*,*,#490,.F.);
#635=ORIENTED_EDGE('',*,*,#489,.T.);
#636=ORIENTED_EDGE('',*,*,#491,.F.);
#637=ORIENTED_EDGE('',*,*,#481,.F.);
#638=ORIENTED_EDGE('',*,*,#440,.T.);
#639=ORIENTED_EDGE('',*,*,#491,.T.);
#640=ORIENTED_EDGE('',*,*,#488,.T.);
#641=ORIENTED_EDGE('',*,*,#485,.T.);
#642=ORIENTED_EDGE('',*,*,#482,.T.);
#643=ORIENTED_EDGE('',*,*,#470,.F.);
#644=ORIENTED_EDGE('',*,*,#421,.T.);
#645=ORIENTED_EDGE('',*,*,#492,.F.);
#646=ORIENTED_EDGE('',*,*,#493,.F.);
#647=ORIENTED_EDGE('',*,*,#471,.F.);
#648=ORIENTED_EDGE('',*,*,#493,.T.);
#649=ORIENTED_EDGE('',*,*,#494,.F.);
#650=ORIENTED_EDGE('',*,*,#495,.F.);
#651=ORIENTED_EDGE('',*,*,#472,.F.);
#652=ORIENTED_EDGE('',*,*,#495,.T.);
#653=ORIENTED_EDGE('',*,*,#496,.F.);
#654=ORIENTED_EDGE('',*,*,#497,.F.);
#655=ORIENTED_EDGE('',*,*,#451,.T.);
#656=ORIENTED_EDGE('',*,*,#473,.F.);
#657=ORIENTED_EDGE('',*,*,#497,.T.);
#658=ORIENTED_EDGE('',*,*,#498,.F.);
#659=ORIENTED_EDGE('',*,*,#499,.F.);
#660=ORIENTED_EDGE('',*,*,#464,.F.);
#661=ORIENTED_EDGE('',*,*,#457,.T.);
#662=ORIENTED_EDGE('',*,*,#463,.T.);
#663=ORIENTED_EDGE('',*,*,#459,.T.);
#664=ORIENTED_EDGE('',*,*,#467,.F.);
#665=ORIENTED_EDGE('',*,*,#449,.T.);
#666=ORIENTED_EDGE('',*,*,#453,.T.);
#667=ORIENTED_EDGE('',*,*,#465,.F.);
#668=ORIENTED_EDGE('',*,*,#499,.T.);
#669=ORIENTED_EDGE('',*,*,#500,.F.);
#670=ORIENTED_EDGE('',*,*,#501,.F.);
#671=ORIENTED_EDGE('',*,*,#455,.T.);
#672=ORIENTED_EDGE('',*,*,#466,.F.);
#673=ORIENTED_EDGE('',*,*,#501,.T.);
#674=ORIENTED_EDGE('',*,*,#502,.F.);
#675=ORIENTED_EDGE('',*,*,#503,.F.);
#676=ORIENTED_EDGE('',*,*,#468,.F.);
#677=ORIENTED_EDGE('',*,*,#461,.T.);
#678=ORIENTED_EDGE('',*,*,#462,.T.);
#679=ORIENTED_EDGE('',*,*,#469,.F.);
#680=ORIENTED_EDGE('',*,*,#503,.T.);
#681=ORIENTED_EDGE('',*,*,#504,.F.);
#682=ORIENTED_EDGE('',*,*,#423,.F.);
#683=ORIENTED_EDGE('',*,*,#438,.T.);
#684=ORIENTED_EDGE('',*,*,#439,.T.);
#685=ORIENTED_EDGE('',*,*,#424,.T.);
#686=ORIENTED_EDGE('',*,*,#504,.T.);
#687=ORIENTED_EDGE('',*,*,#502,.T.);
#688=ORIENTED_EDGE('',*,*,#500,.T.);
#689=ORIENTED_EDGE('',*,*,#498,.T.);
#690=ORIENTED_EDGE('',*,*,#496,.T.);
#691=ORIENTED_EDGE('',*,*,#494,.T.);
#692=ORIENTED_EDGE('',*,*,#492,.T.);
#693=ORIENTED_EDGE('',*,*,#420,.T.);
#694=ORIENTED_EDGE('',*,*,#415,.T.);
#695=ORIENTED_EDGE('',*,*,#434,.T.);
#696=ORIENTED_EDGE('',*,*,#436,.F.);
#697=ORIENTED_EDGE('',*,*,#505,.T.);
#698=ORIENTED_EDGE('',*,*,#428,.T.);
#699=ORIENTED_EDGE('',*,*,#429,.F.);
#700=ORIENTED_EDGE('',*,*,#505,.F.);
#701=ORIENTED_EDGE('',*,*,#435,.F.);
#702=ORIENTED_EDGE('',*,*,#418,.F.);
#703=ORIENTED_EDGE('',*,*,#406,.T.);
#704=ORIENTED_EDGE('',*,*,#476,.T.);
#705=ORIENTED_EDGE('',*,*,#478,.T.);
#706=ORIENTED_EDGE('',*,*,#480,.T.);
#707=ORIENTED_EDGE('',*,*,#484,.T.);
#708=ORIENTED_EDGE('',*,*,#487,.T.);
#709=ORIENTED_EDGE('',*,*,#490,.T.);
#710=CYLINDRICAL_SURFACE('',#814,1.4);
#711=CYLINDRICAL_SURFACE('',#827,1.75);
#712=CYLINDRICAL_SURFACE('',#841,1.);
#713=CYLINDRICAL_SURFACE('',#843,1.);
#714=STYLED_ITEM('',(#1277),#753);
#715=STYLED_ITEM('',(#1277),#754);
#716=STYLED_ITEM('',(#1277),#755);
#717=STYLED_ITEM('',(#1277),#756);
#718=STYLED_ITEM('',(#1277),#757);
#719=STYLED_ITEM('',(#1277),#758);
#720=STYLED_ITEM('',(#1277),#759);
#721=STYLED_ITEM('',(#1277),#760);
#722=STYLED_ITEM('',(#1277),#761);
#723=STYLED_ITEM('',(#1277),#762);
#724=STYLED_ITEM('',(#1277),#763);
#725=STYLED_ITEM('',(#1277),#764);
#726=STYLED_ITEM('',(#1277),#765);
#727=STYLED_ITEM('',(#1277),#766);
#728=STYLED_ITEM('',(#1277),#767);
#729=STYLED_ITEM('',(#1277),#768);
#730=STYLED_ITEM('',(#1277),#769);
#731=STYLED_ITEM('',(#1277),#770);
#732=STYLED_ITEM('',(#1277),#771);
#733=STYLED_ITEM('',(#1277),#772);
#734=STYLED_ITEM('',(#1277),#773);
#735=STYLED_ITEM('',(#1277),#774);
#736=STYLED_ITEM('',(#1277),#775);
#737=STYLED_ITEM('',(#1277),#776);
#738=STYLED_ITEM('',(#1277),#777);
#739=STYLED_ITEM('',(#1277),#778);
#740=STYLED_ITEM('',(#1277),#779);
#741=STYLED_ITEM('',(#1277),#780);
#742=STYLED_ITEM('',(#1277),#781);
#743=STYLED_ITEM('',(#1277),#782);
#744=STYLED_ITEM('',(#1277),#783);
#745=STYLED_ITEM('',(#1277),#784);
#746=STYLED_ITEM('',(#1277),#785);
#747=STYLED_ITEM('',(#1277),#786);
#748=STYLED_ITEM('',(#1277),#787);
#749=STYLED_ITEM('',(#1277),#788);
#750=STYLED_ITEM('',(#1277),#789);
#751=STYLED_ITEM('',(#1277),#790);
#752=STYLED_ITEM('',(#1276),#13);
#753=ADVANCED_FACE('',(#56),#710,.T.);
#754=ADVANCED_FACE('',(#57),#22,.T.);
#755=ADVANCED_FACE('',(#58),#23,.F.);
#756=ADVANCED_FACE('',(#59),#24,.F.);
#757=ADVANCED_FACE('',(#60),#25,.T.);
#758=ADVANCED_FACE('',(#61),#26,.T.);
#759=ADVANCED_FACE('',(#62),#27,.T.);
#760=ADVANCED_FACE('',(#63),#28,.F.);
#761=ADVANCED_FACE('',(#64),#29,.F.);
#762=ADVANCED_FACE('',(#65),#30,.T.);
#763=ADVANCED_FACE('',(#66),#31,.T.);
#764=ADVANCED_FACE('',(#67),#711,.F.);
#765=ADVANCED_FACE('',(#68),#32,.T.);
#766=ADVANCED_FACE('',(#69),#33,.T.);
#767=ADVANCED_FACE('',(#70),#34,.T.);
#768=ADVANCED_FACE('',(#71),#35,.T.);
#769=ADVANCED_FACE('',(#72),#36,.T.);
#770=ADVANCED_FACE('',(#73),#37,.T.);
#771=ADVANCED_FACE('',(#74),#38,.T.);
#772=ADVANCED_FACE('',(#75),#39,.T.);
#773=ADVANCED_FACE('',(#76,#14,#15),#40,.T.);
#774=ADVANCED_FACE('',(#77),#712,.F.);
#775=ADVANCED_FACE('',(#78),#713,.F.);
#776=ADVANCED_FACE('',(#79),#41,.T.);
#777=ADVANCED_FACE('',(#80,#16),#42,.T.);
#778=ADVANCED_FACE('',(#81),#43,.T.);
#779=ADVANCED_FACE('',(#82,#17),#44,.T.);
#780=ADVANCED_FACE('',(#83),#45,.T.);
#781=ADVANCED_FACE('',(#84),#46,.T.);
#782=ADVANCED_FACE('',(#85),#47,.T.);
#783=ADVANCED_FACE('',(#86),#48,.T.);
#784=ADVANCED_FACE('',(#87),#49,.T.);
#785=ADVANCED_FACE('',(#88),#50,.T.);
#786=ADVANCED_FACE('',(#89),#51,.T.);
#787=ADVANCED_FACE('',(#90),#52,.T.);
#788=ADVANCED_FACE('',(#91),#53,.T.);
#789=ADVANCED_FACE('',(#92),#54,.T.);
#790=ADVANCED_FACE('',(#93,#18,#19,#20,#21),#55,.F.);
#791=CLOSED_SHELL('',(#753,#754,#755,#756,#757,#758,#759,#760,#761,#762,
#763,#764,#765,#766,#767,#768,#769,#770,#771,#772,#773,#774,#775,#776,#777,
#778,#779,#780,#781,#782,#783,#784,#785,#786,#787,#788,#789,#790));
#792=DERIVED_UNIT_ELEMENT(#795,1.);
#793=DERIVED_UNIT_ELEMENT(#1262,-3.);
#794=DIMENSIONAL_EXPONENTS(0.,1.,0.,0.,0.,0.,0.);
#795=(
CONVERSION_BASED_UNIT('gram',#797)
MASS_UNIT()
NAMED_UNIT(#794)
);
#796=(
MASS_UNIT()
NAMED_UNIT(*)
SI_UNIT(.KILO.,.GRAM.)
);
#797=MASS_MEASURE_WITH_UNIT(MASS_MEASURE(0.001),#796);
#798=DERIVED_UNIT((#792,#793));
#799=MEASURE_REPRESENTATION_ITEM('density measure',
POSITIVE_RATIO_MEASURE(1.),#798);
#800=PROPERTY_DEFINITION_REPRESENTATION(#805,#802);
#801=PROPERTY_DEFINITION_REPRESENTATION(#806,#803);
#802=REPRESENTATION('material name',(#804),#1259);
#803=REPRESENTATION('density',(#799),#1259);
#804=DESCRIPTIVE_REPRESENTATION_ITEM('Generic','Generic');
#805=PROPERTY_DEFINITION('material property','material name',#1269);
#806=PROPERTY_DEFINITION('material property','density of part',#1269);
#807=DATE_TIME_ROLE('creation_date');
#808=APPLIED_DATE_AND_TIME_ASSIGNMENT(#809,#807,(#1269));
#809=DATE_AND_TIME(#810,#811);
#810=CALENDAR_DATE(2025,3,7);
#811=LOCAL_TIME(0,0,0.,#812);
#812=COORDINATED_UNIVERSAL_TIME_OFFSET(0,0,.BEHIND.);
#813=AXIS2_PLACEMENT_3D('',#1048,#860,#861);
#814=AXIS2_PLACEMENT_3D('',#1049,#862,#863);
#815=AXIS2_PLACEMENT_3D('',#1051,#864,#865);
#816=AXIS2_PLACEMENT_3D('',#1054,#867,#868);
#817=AXIS2_PLACEMENT_3D('',#1055,#869,#870);
#818=AXIS2_PLACEMENT_3D('',#1056,#871,#872);
#819=AXIS2_PLACEMENT_3D('',#1065,#877,#878);
#820=AXIS2_PLACEMENT_3D('',#1071,#882,#883);
#821=AXIS2_PLACEMENT_3D('',#1077,#887,#888);
#822=AXIS2_PLACEMENT_3D('',#1083,#892,#893);
#823=AXIS2_PLACEMENT_3D('',#1103,#904,#905);
#824=AXIS2_PLACEMENT_3D('',#1109,#909,#910);
#825=AXIS2_PLACEMENT_3D('',#1113,#913,#914);
#826=AXIS2_PLACEMENT_3D('',#1120,#919,#920);
#827=AXIS2_PLACEMENT_3D('',#1122,#922,#923);
#828=AXIS2_PLACEMENT_3D('',#1124,#924,#925);
#829=AXIS2_PLACEMENT_3D('',#1127,#927,#928);
#830=AXIS2_PLACEMENT_3D('',#1128,#929,#930);
#831=AXIS2_PLACEMENT_3D('',#1137,#935,#936);
#832=AXIS2_PLACEMENT_3D('',#1143,#940,#941);
#833=AXIS2_PLACEMENT_3D('',#1149,#945,#946);
#834=AXIS2_PLACEMENT_3D('',#1151,#948,#949);
#835=AXIS2_PLACEMENT_3D('',#1160,#954,#955);
#836=AXIS2_PLACEMENT_3D('',#1169,#960,#961);
#837=AXIS2_PLACEMENT_3D('',#1172,#964,#965);
#838=AXIS2_PLACEMENT_3D('',#1178,#969,#970);
#839=AXIS2_PLACEMENT_3D('',#1191,#978,#979);
#840=AXIS2_PLACEMENT_3D('',#1193,#980,#981);
#841=AXIS2_PLACEMENT_3D('',#1194,#982,#983);
#842=AXIS2_PLACEMENT_3D('',#1196,#984,#985);
#843=AXIS2_PLACEMENT_3D('',#1198,#987,#988);
#844=AXIS2_PLACEMENT_3D('',#1200,#989,#990);
#845=AXIS2_PLACEMENT_3D('',#1202,#992,#993);
#846=AXIS2_PLACEMENT_3D('',#1211,#998,#999);
#847=AXIS2_PLACEMENT_3D('',#1217,#1003,#1004);
#848=AXIS2_PLACEMENT_3D('',#1223,#1008,#1009);
#849=AXIS2_PLACEMENT_3D('',#1226,#1012,#1013);
#850=AXIS2_PLACEMENT_3D('',#1227,#1014,#1015);
#851=AXIS2_PLACEMENT_3D('',#1231,#1018,#1019);
#852=AXIS2_PLACEMENT_3D('',#1235,#1022,#1023);
#853=AXIS2_PLACEMENT_3D('',#1239,#1026,#1027);
#854=AXIS2_PLACEMENT_3D('',#1243,#1030,#1031);
#855=AXIS2_PLACEMENT_3D('',#1247,#1034,#1035);
#856=AXIS2_PLACEMENT_3D('',#1251,#1038,#1039);
#857=AXIS2_PLACEMENT_3D('',#1253,#1041,#1042);
#858=AXIS2_PLACEMENT_3D('',#1254,#1043,#1044);
#859=AXIS2_PLACEMENT_3D('',#1256,#1046,#1047);
#860=DIRECTION('axis',(0.,0.,1.));
#861=DIRECTION('refdir',(1.,0.,0.));
#862=DIRECTION('center_axis',(0.,-1.,0.));
#863=DIRECTION('ref_axis',(1.,0.,0.));
#864=DIRECTION('center_axis',(0.,-1.,0.));
#865=DIRECTION('ref_axis',(1.,0.,0.));
#866=DIRECTION('',(0.,1.,0.));
#867=DIRECTION('center_axis',(0.,1.,0.));
#868=DIRECTION('ref_axis',(1.,0.,0.));
#869=DIRECTION('center_axis',(0.,-1.,0.));
#870=DIRECTION('ref_axis',(0.,0.,-1.));
#871=DIRECTION('center_axis',(2.51214793389404E-16,-0.707106781186546,0.707106781186549));
#872=DIRECTION('ref_axis',(2.23302038568359E-16,0.707106781186549,0.707106781186546));
#873=DIRECTION('',(-1.11651019284179E-16,-0.707106781186549,-0.707106781186546));
#874=DIRECTION('',(-1.,0.,3.5527136788005E-16));
#875=DIRECTION('',(2.23302038568359E-16,0.707106781186549,0.707106781186546));
#876=DIRECTION('',(1.,2.35247257109764E-16,-1.20024110770287E-16));
#877=DIRECTION('center_axis',(2.51214793389404E-16,0.707106781186547,0.707106781186548));
#878=DIRECTION('ref_axis',(-2.23302038568359E-16,0.707106781186548,-0.707106781186547));
#879=DIRECTION('',(1.11651019284179E-16,-0.707106781186548,0.707106781186547));
#880=DIRECTION('',(-1.,2.35247257109763E-16,1.20024110770287E-16));
#881=DIRECTION('',(-2.23302038568359E-16,0.707106781186548,-0.707106781186547));
#882=DIRECTION('center_axis',(-1.20024110770287E-16,0.,-1.));
#883=DIRECTION('ref_axis',(-1.,0.,1.20024110770287E-16));
#884=DIRECTION('',(0.,1.,0.));
#885=DIRECTION('',(-1.,0.,0.));
#886=DIRECTION('',(0.,1.,0.));
#887=DIRECTION('center_axis',(-1.20024110770287E-16,0.,-1.));
#888=DIRECTION('ref_axis',(-1.,0.,1.20024110770287E-16));
#889=DIRECTION('',(0.,1.,0.));
#890=DIRECTION('',(-1.,0.,1.20024110770287E-16));
#891=DIRECTION('',(0.,1.,0.));
#892=DIRECTION('center_axis',(1.,0.,-3.15796771448933E-16));
#893=DIRECTION('ref_axis',(-3.15796771448933E-16,0.,-1.));
#894=DIRECTION('',(-3.15796771448933E-16,0.,-1.));
#895=DIRECTION('',(0.,1.,0.));
#896=DIRECTION('',(-3.15796771448933E-16,0.,-1.));
#897=DIRECTION('',(0.,1.,0.));
#898=DIRECTION('',(-3.15796771448933E-16,0.,-1.));
#899=DIRECTION('',(0.,1.,0.));
#900=DIRECTION('',(-2.23302038568359E-16,-0.707106781186548,-0.707106781186547));
#901=DIRECTION('',(2.23302038568359E-16,-0.707106781186547,0.707106781186548));
#902=DIRECTION('',(0.,1.,0.));
#903=DIRECTION('',(-3.15796771448933E-16,0.,-1.));
#904=DIRECTION('center_axis',(-2.09345661157837E-16,0.707106781186547,-0.707106781186548));
#905=DIRECTION('ref_axis',(-2.23302038568359E-16,-0.707106781186548,-0.707106781186547));
#906=DIRECTION('',(1.1165101928418E-16,0.707106781186548,0.707106781186547));
#907=DIRECTION('',(-1.,0.,2.96059473233375E-16));
#908=DIRECTION('',(1.,1.76035362463088E-16,-1.20024110770287E-16));
#909=DIRECTION('center_axis',(-2.09345661157837E-16,-0.707106781186548,
-0.707106781186547));
#910=DIRECTION('ref_axis',(2.23302038568359E-16,-0.707106781186547,0.707106781186548));
#911=DIRECTION('',(-1.1165101928418E-16,0.707106781186547,-0.707106781186548));
#912=DIRECTION('',(-1.,1.76035362463088E-16,1.20024110770287E-16));
#913=DIRECTION('center_axis',(-1.,0.,1.57898385724467E-16));
#914=DIRECTION('ref_axis',(1.57898385724467E-16,0.,1.));
#915=DIRECTION('',(1.57898385724467E-16,0.,1.));
#916=DIRECTION('',(0.,1.,0.));
#917=DIRECTION('',(0.,1.,0.));
#918=DIRECTION('',(1.57898385724467E-16,0.,1.));
#919=DIRECTION('center_axis',(1.20024110770287E-16,0.,1.));
#920=DIRECTION('ref_axis',(1.,0.,-1.20024110770287E-16));
#921=DIRECTION('',(1.,0.,-1.20024110770287E-16));
#922=DIRECTION('center_axis',(1.,0.,-2.22044604925031E-16));
#923=DIRECTION('ref_axis',(2.22044604925031E-16,-5.2245789394125E-16,1.));
#924=DIRECTION('center_axis',(1.,0.,0.));
#925=DIRECTION('ref_axis',(2.22044604925031E-16,-5.2245789394125E-16,1.));
#926=DIRECTION('',(1.,0.,-2.22044604925031E-16));
#927=DIRECTION('center_axis',(-1.,0.,-4.93432455388958E-16));
#928=DIRECTION('ref_axis',(2.22044604925031E-16,-5.2245789394125E-16,1.));
#929=DIRECTION('center_axis',(1.,0.,0.));
#930=DIRECTION('ref_axis',(0.,0.,-1.));
#931=DIRECTION('',(0.,0.,1.));
#932=DIRECTION('',(0.,1.,0.));
#933=DIRECTION('',(0.,0.,-1.));
#934=DIRECTION('',(0.,1.,0.));
#935=DIRECTION('center_axis',(1.29472072842584E-16,0.,1.));
#936=DIRECTION('ref_axis',(1.,0.,-1.29472072842584E-16));
#937=DIRECTION('',(-1.,0.,1.29472072842584E-16));
#938=DIRECTION('',(1.,0.,-1.29472072842584E-16));
#939=DIRECTION('',(0.,1.,0.));
#940=DIRECTION('center_axis',(0.,0.,-1.));
#941=DIRECTION('ref_axis',(-1.,0.,0.));
#942=DIRECTION('',(1.,0.,0.));
#943=DIRECTION('',(0.,-1.,0.));
#944=DIRECTION('',(-1.,0.,0.));
#945=DIRECTION('center_axis',(0.,1.,0.));
#946=DIRECTION('ref_axis',(0.,0.,1.));
#947=DIRECTION('',(-6.25477760352201E-16,0.,-1.));
#948=DIRECTION('center_axis',(6.53072367426563E-17,0.,1.));
#949=DIRECTION('ref_axis',(1.,0.,-6.53072367426563E-17));
#950=DIRECTION('',(-1.,0.,6.53072367426563E-17));
#951=DIRECTION('',(0.,-1.,0.));
#952=DIRECTION('',(1.,0.,-6.53072367426563E-17));
#953=DIRECTION('',(0.,1.,0.));
#954=DIRECTION('center_axis',(-1.30614473485313E-16,0.,-1.));
#955=DIRECTION('ref_axis',(-1.,0.,1.30614473485313E-16));
#956=DIRECTION('',(1.,0.,-1.30614473485313E-16));
#957=DIRECTION('',(0.,-1.,0.));
#958=DIRECTION('',(-1.,0.,1.30614473485313E-16));
#959=DIRECTION('',(0.,1.,0.));
#960=DIRECTION('center_axis',(0.,1.,0.));
#961=DIRECTION('ref_axis',(0.,0.,1.));
#962=DIRECTION('',(-1.20024110770287E-16,0.,1.));
#963=DIRECTION('',(-6.25477760352201E-16,0.,-1.));
#964=DIRECTION('center_axis',(0.,1.,0.));
#965=DIRECTION('ref_axis',(0.,0.,1.));
#966=DIRECTION('',(6.25477760352201E-16,0.,1.));
#967=DIRECTION('',(1.,0.,0.));
#968=DIRECTION('',(1.20024110770287E-16,0.,-1.));
#969=DIRECTION('center_axis',(0.,1.,0.));
#970=DIRECTION('ref_axis',(0.,0.,1.));
#971=DIRECTION('',(6.25477760352201E-16,0.,1.));
#972=DIRECTION('',(1.20024110770287E-16,0.,-1.));
#973=DIRECTION('',(1.,0.,0.));
#974=DIRECTION('',(-1.,0.,0.));
#975=DIRECTION('',(-1.0449157878825E-15,0.,-1.));
#976=DIRECTION('',(-1.,0.,5.2245789394125E-16));
#977=DIRECTION('',(6.25477760352201E-16,0.,1.));
#978=DIRECTION('center_axis',(0.,-1.,0.));
#979=DIRECTION('ref_axis',(1.,0.,0.));
#980=DIRECTION('center_axis',(0.,-1.,0.));
#981=DIRECTION('ref_axis',(1.,0.,0.));
#982=DIRECTION('center_axis',(0.,1.,0.));
#983=DIRECTION('ref_axis',(1.,0.,0.));
#984=DIRECTION('center_axis',(0.,1.,0.));
#985=DIRECTION('ref_axis',(1.,0.,0.));
#986=DIRECTION('',(0.,1.,0.));
#987=DIRECTION('center_axis',(0.,1.,0.));
#988=DIRECTION('ref_axis',(1.,0.,0.));
#989=DIRECTION('center_axis',(0.,1.,0.));
#990=DIRECTION('ref_axis',(1.,0.,0.));
#991=DIRECTION('',(0.,1.,0.));
#992=DIRECTION('center_axis',(0.,0.,1.));
#993=DIRECTION('ref_axis',(-1.,0.,0.));
#994=DIRECTION('',(1.,0.,0.));
#995=DIRECTION('',(0.,-1.,0.));
#996=DIRECTION('',(-1.,0.,0.));
#997=DIRECTION('',(0.,-1.,0.));
#998=DIRECTION('center_axis',(1.,0.,4.93432455388958E-16));
#999=DIRECTION('ref_axis',(-4.93432455388958E-16,0.,1.));
#1000=DIRECTION('',(4.93432455388958E-16,0.,-1.));
#1001=DIRECTION('',(-4.93432455388958E-16,0.,1.));
#1002=DIRECTION('',(0.,-1.,0.));
#1003=DIRECTION('center_axis',(1.48029736616687E-15,0.,-1.));
#1004=DIRECTION('ref_axis',(1.,0.,1.48029736616687E-15));
#1005=DIRECTION('',(-1.,0.,-1.48029736616687E-15));
#1006=DIRECTION('',(1.,0.,1.48029736616687E-15));
#1007=DIRECTION('',(0.,-1.,0.));
#1008=DIRECTION('center_axis',(-1.,0.,0.));
#1009=DIRECTION('ref_axis',(0.,0.,-1.));
#1010=DIRECTION('',(0.,0.,1.));
#1011=DIRECTION('',(0.,0.,-1.));
#1012=DIRECTION('center_axis',(0.,-1.,0.));
#1013=DIRECTION('ref_axis',(0.,0.,-1.));
#1014=DIRECTION('center_axis',(0.,0.,1.));
#1015=DIRECTION('ref_axis',(1.,0.,0.));
#1016=DIRECTION('',(1.,0.,0.));
#1017=DIRECTION('',(0.,1.,0.));
#1018=DIRECTION('center_axis',(-1.,0.,1.0449157878825E-15));
#1019=DIRECTION('ref_axis',(1.0449157878825E-15,0.,1.));
#1020=DIRECTION('',(1.0449157878825E-15,0.,1.));
#1021=DIRECTION('',(0.,1.,0.));
#1022=DIRECTION('center_axis',(5.2245789394125E-16,0.,1.));
#1023=DIRECTION('ref_axis',(1.,0.,-5.2245789394125E-16));
#1024=DIRECTION('',(1.,0.,-5.2245789394125E-16));
#1025=DIRECTION('',(0.,1.,0.));
#1026=DIRECTION('center_axis',(1.,0.,-6.25477760352201E-16));
#1027=DIRECTION('ref_axis',(-6.25477760352201E-16,0.,-1.));
#1028=DIRECTION('',(-6.25477760352201E-16,0.,-1.));
#1029=DIRECTION('',(0.,1.,0.));
#1030=DIRECTION('center_axis',(0.,0.,-1.));
#1031=DIRECTION('ref_axis',(-1.,0.,0.));
#1032=DIRECTION('',(-1.,0.,0.));
#1033=DIRECTION('',(0.,1.,0.));
#1034=DIRECTION('center_axis',(-1.,0.,-1.20024110770287E-16));
#1035=DIRECTION('ref_axis',(-1.20024110770287E-16,0.,1.));
#1036=DIRECTION('',(-1.20024110770287E-16,0.,1.));
#1037=DIRECTION('',(0.,1.,0.));
#1038=DIRECTION('center_axis',(0.,0.,-1.));
#1039=DIRECTION('ref_axis',(-1.,0.,0.));
#1040=DIRECTION('',(-1.,0.,0.));
#1041=DIRECTION('center_axis',(0.,1.,0.));
#1042=DIRECTION('ref_axis',(0.,0.,1.));
#1043=DIRECTION('center_axis',(1.20024110770287E-16,0.,1.));
#1044=DIRECTION('ref_axis',(1.,0.,-1.20024110770287E-16));
#1045=DIRECTION('',(1.,0.,-1.20024110770287E-16));
#1046=DIRECTION('center_axis',(0.,1.,0.));
#1047=DIRECTION('ref_axis',(0.,0.,1.));
#1048=CARTESIAN_POINT('',(0.,0.,0.));
#1049=CARTESIAN_POINT('Origin',(8.33833334225612,0.,-20.8520128279637));
#1050=CARTESIAN_POINT('',(6.93833334225612,-5.,-20.8520128279637));
#1051=CARTESIAN_POINT('Origin',(8.33833334225612,-5.,-20.8520128279637));
#1052=CARTESIAN_POINT('',(6.93833334225612,0.,-20.8520128279637));
#1053=CARTESIAN_POINT('',(6.93833334225612,0.,-20.8520128279637));
#1054=CARTESIAN_POINT('Origin',(8.33833334225612,0.,-20.8520128279637));
#1055=CARTESIAN_POINT('Origin',(8.33833334225612,-5.,-20.8520128279637));
#1056=CARTESIAN_POINT('Origin',(44.8383333422561,2.74999999999999,-76.3520128279637));
#1057=CARTESIAN_POINT('',(-29.1616666577439,4.25,-74.8520128279636));
#1058=CARTESIAN_POINT('',(-29.1616666577439,2.74999999999999,-76.3520128279636));
#1059=CARTESIAN_POINT('',(-29.1616666577439,2.06249999999999,-77.0395128279636));
#1060=CARTESIAN_POINT('',(44.8383333422561,4.25,-74.8520128279637));
#1061=CARTESIAN_POINT('',(44.8383333422561,4.25,-74.8520128279637));
#1062=CARTESIAN_POINT('',(44.8383333422561,2.74999999999999,-76.3520128279637));
#1063=CARTESIAN_POINT('',(44.8383333422561,30.1875,-48.9145128279638));
#1064=CARTESIAN_POINT('',(44.8383333422561,2.75000000000001,-76.3520128279637));
#1065=CARTESIAN_POINT('Origin',(44.8383333422561,4.25,-74.8520128279637));
#1066=CARTESIAN_POINT('',(-29.1616666577439,5.75000000000001,-76.3520128279636));
#1067=CARTESIAN_POINT('',(-29.1616666577439,3.5625,-74.1645128279637));
#1068=CARTESIAN_POINT('',(44.8383333422561,5.75000000000001,-76.3520128279637));
#1069=CARTESIAN_POINT('',(44.8383333422561,5.74999999999999,-76.3520128279637));
#1070=CARTESIAN_POINT('',(44.8383333422561,-24.5625,-46.0395128279637));
#1071=CARTESIAN_POINT('Origin',(44.8383333422561,0.,-76.3520128279637));
#1072=CARTESIAN_POINT('',(-29.1616666577439,8.5,-76.3520128279637));
#1073=CARTESIAN_POINT('',(-29.1616666577439,0.,-76.3520128279636));
#1074=CARTESIAN_POINT('',(44.8383333422561,8.5,-76.3520128279637));
#1075=CARTESIAN_POINT('',(44.8383333422561,8.5,-76.3520128279637));
#1076=CARTESIAN_POINT('',(44.8383333422561,0.,-76.3520128279637));
#1077=CARTESIAN_POINT('Origin',(44.8383333422561,0.,-76.3520128279637));
#1078=CARTESIAN_POINT('',(44.8383333422561,0.,-76.3520128279637));
#1079=CARTESIAN_POINT('',(44.8383333422561,0.,-76.3520128279637));
#1080=CARTESIAN_POINT('',(-29.1616666577439,0.,-76.3520128279636));
#1081=CARTESIAN_POINT('',(44.8383333422561,0.,-76.3520128279637));
#1082=CARTESIAN_POINT('',(-29.1616666577439,0.,-76.3520128279636));
#1083=CARTESIAN_POINT('Origin',(44.8383333422561,0.,36.1479871720363));
#1084=CARTESIAN_POINT('',(44.8383333422561,8.5,-64.8520128279637));
#1085=CARTESIAN_POINT('',(44.8383333422561,8.5,36.1479871720363));
#1086=CARTESIAN_POINT('',(44.8383333422561,3.,-64.8520128279637));
#1087=CARTESIAN_POINT('',(44.8383333422561,3.,-64.8520128279637));
#1088=CARTESIAN_POINT('',(44.8383333422561,3.,-40.8520128279637));
#1089=CARTESIAN_POINT('',(44.8383333422561,3.,36.1479871720363));
#1090=CARTESIAN_POINT('',(44.8383333422561,8.5,-40.8520128279637));
#1091=CARTESIAN_POINT('',(44.8383333422561,3.,-40.8520128279637));
#1092=CARTESIAN_POINT('',(44.8383333422561,8.5,36.1479871720363));
#1093=CARTESIAN_POINT('',(44.8383333422561,8.5,36.1479871720363));
#1094=CARTESIAN_POINT('',(44.8383333422561,5.75,36.1479871720363));
#1095=CARTESIAN_POINT('',(44.8383333422561,0.,36.1479871720363));
#1096=CARTESIAN_POINT('',(44.8383333422561,4.25,34.6479871720363));
#1097=CARTESIAN_POINT('',(44.8383333422561,4.3125,34.7104871720363));
#1098=CARTESIAN_POINT('',(44.8383333422561,2.75,36.1479871720363));
#1099=CARTESIAN_POINT('',(44.8383333422561,2.8125,36.0854871720363));
#1100=CARTESIAN_POINT('',(44.8383333422561,0.,36.1479871720363));
#1101=CARTESIAN_POINT('',(44.8383333422561,0.,36.1479871720363));
#1102=CARTESIAN_POINT('',(44.8383333422561,0.,36.1479871720363));
#1103=CARTESIAN_POINT('Origin',(44.8383333422561,5.75,36.1479871720363));
#1104=CARTESIAN_POINT('',(-29.1616666577439,4.25,34.6479871720363));
#1105=CARTESIAN_POINT('',(-29.1616666577439,5.75,36.1479871720363));
#1106=CARTESIAN_POINT('',(-29.1616666577439,-23.8125,6.58548717203636));
#1107=CARTESIAN_POINT('',(44.8383333422561,4.25,34.6479871720363));
#1108=CARTESIAN_POINT('',(7.83833334225613,5.75,36.1479871720363));
#1109=CARTESIAN_POINT('Origin',(44.8383333422561,4.25,34.6479871720363));
#1110=CARTESIAN_POINT('',(-29.1616666577439,2.75,36.1479871720363));
#1111=CARTESIAN_POINT('',(-29.1616666577439,30.9375,7.96048717203633));
#1112=CARTESIAN_POINT('',(7.83833334225613,2.75,36.1479871720363));
#1113=CARTESIAN_POINT('Origin',(-29.1616666577439,0.,-76.3520128279636));
#1114=CARTESIAN_POINT('',(-29.1616666577439,0.,36.1479871720363));
#1115=CARTESIAN_POINT('',(-29.1616666577439,0.,-76.3520128279636));
#1116=CARTESIAN_POINT('',(-29.1616666577439,0.,36.1479871720363));
#1117=CARTESIAN_POINT('',(-29.1616666577439,8.5,36.1479871720363));
#1118=CARTESIAN_POINT('',(-29.1616666577439,0.,36.1479871720363));
#1119=CARTESIAN_POINT('',(-29.1616666577439,8.5,-76.3520128279637));
#1120=CARTESIAN_POINT('Origin',(-29.1616666577439,0.,36.1479871720363));
#1121=CARTESIAN_POINT('',(-29.1616666577439,8.5,36.1479871720363));
#1122=CARTESIAN_POINT('Origin',(-29.1616666577439,-5.,-19.3520128279637));
#1123=CARTESIAN_POINT('',(-28.1616666577439,-5.,-21.1020128279637));
#1124=CARTESIAN_POINT('Origin',(-28.1616666577439,-5.,-19.3520128279637));
#1125=CARTESIAN_POINT('',(-25.1616666577439,-5.,-21.1020128279637));
#1126=CARTESIAN_POINT('',(-29.1616666577439,-5.,-21.1020128279637));
#1127=CARTESIAN_POINT('Origin',(-25.1616666577439,-5.,-19.3520128279637));
#1128=CARTESIAN_POINT('Origin',(42.4383333422561,3.,-54.3520128279637));
#1129=CARTESIAN_POINT('',(42.4383333422561,3.,-64.3520128279637));
#1130=CARTESIAN_POINT('',(42.4383333422561,3.,-54.3520128279637));
#1131=CARTESIAN_POINT('',(42.4383333422561,3.,-37.2270128279637));
#1132=CARTESIAN_POINT('',(42.4383333422561,6.,-64.3520128279637));
#1133=CARTESIAN_POINT('',(42.4383333422561,3.,-64.3520128279637));
#1134=CARTESIAN_POINT('',(42.4383333422561,6.,-54.3520128279637));
#1135=CARTESIAN_POINT('',(42.4383333422561,6.,-54.3520128279637));
#1136=CARTESIAN_POINT('',(42.4383333422561,3.,-54.3520128279637));
#1137=CARTESIAN_POINT('Origin',(-26.1616666577439,3.,-54.3520128279637));
#1138=CARTESIAN_POINT('',(-26.1616666577439,3.,-54.3520128279637));
#1139=CARTESIAN_POINT('',(-9.1616666577439,3.,-54.3520128279637));
#1140=CARTESIAN_POINT('',(-26.1616666577439,6.,-54.3520128279637));
#1141=CARTESIAN_POINT('',(-26.1616666577439,6.,-54.3520128279637));
#1142=CARTESIAN_POINT('',(-26.1616666577439,3.,-54.3520128279637));
#1143=CARTESIAN_POINT('Origin',(42.4383333422561,3.,-64.3520128279637));
#1144=CARTESIAN_POINT('',(-26.1616666577439,3.,-64.3520128279637));
#1145=CARTESIAN_POINT('',(25.1383333422561,3.,-64.3520128279637));
#1146=CARTESIAN_POINT('',(-26.1616666577439,6.,-64.3520128279637));
#1147=CARTESIAN_POINT('',(-26.1616666577439,3.,-64.3520128279637));
#1148=CARTESIAN_POINT('',(42.4383333422561,6.,-64.3520128279637));
#1149=CARTESIAN_POINT('Origin',(8.1383333422561,6.,-59.3520128279637));
#1150=CARTESIAN_POINT('',(-26.1616666577439,6.,-13.1020128279637));
#1151=CARTESIAN_POINT('Origin',(-26.1616666577439,3.,24.1479871720363));
#1152=CARTESIAN_POINT('',(41.8383333422561,3.,24.1479871720363));
#1153=CARTESIAN_POINT('',(-26.1616666577439,3.,24.1479871720363));
#1154=CARTESIAN_POINT('',(-9.16166665774387,3.,24.1479871720363));
#1155=CARTESIAN_POINT('',(41.8383333422561,6.,24.1479871720363));
#1156=CARTESIAN_POINT('',(41.8383333422561,3.,24.1479871720363));
#1157=CARTESIAN_POINT('',(-26.1616666577439,6.,24.1479871720363));
#1158=CARTESIAN_POINT('',(-26.1616666577439,6.,24.1479871720363));
#1159=CARTESIAN_POINT('',(-26.1616666577439,3.,24.1479871720363));
#1160=CARTESIAN_POINT('Origin',(41.8383333422561,3.,14.1479871720363));
#1161=CARTESIAN_POINT('',(-26.1616666577439,3.,14.1479871720363));
#1162=CARTESIAN_POINT('',(41.8383333422561,3.,14.1479871720363));
#1163=CARTESIAN_POINT('',(24.8383333422561,3.,14.1479871720363));
#1164=CARTESIAN_POINT('',(-26.1616666577439,6.,14.1479871720363));
#1165=CARTESIAN_POINT('',(-26.1616666577439,3.,14.1479871720363));
#1166=CARTESIAN_POINT('',(41.8383333422561,6.,14.1479871720363));
#1167=CARTESIAN_POINT('',(41.8383333422561,6.,14.1479871720363));
#1168=CARTESIAN_POINT('',(41.8383333422561,3.,14.1479871720363));
#1169=CARTESIAN_POINT('Origin',(7.83833334225613,6.,19.1479871720363));
#1170=CARTESIAN_POINT('',(41.8383333422561,6.,-10.8520128279637));
#1171=CARTESIAN_POINT('',(-26.1616666577439,6.,26.1479871720363));
#1172=CARTESIAN_POINT('Origin',(7.83833334225612,3.,-20.1020128279637));
#1173=CARTESIAN_POINT('',(-26.1616666577439,3.,33.1479871720363));
#1174=CARTESIAN_POINT('',(-26.1616666577439,3.,6.52298717203634));
#1175=CARTESIAN_POINT('',(41.8383333422561,3.,33.1479871720363));
#1176=CARTESIAN_POINT('',(24.8383333422561,3.,33.1479871720363));
#1177=CARTESIAN_POINT('',(41.8383333422561,3.,-30.4770128279637));
#1178=CARTESIAN_POINT('Origin',(7.83833334225612,3.,-20.1020128279637));
#1179=CARTESIAN_POINT('',(-26.1616666577439,3.,6.52298717203634));
#1180=CARTESIAN_POINT('',(41.8383333422561,3.,-40.8520128279637));
#1181=CARTESIAN_POINT('',(41.8383333422561,3.,-30.4770128279637));
#1182=CARTESIAN_POINT('',(26.3383333422561,3.,-40.8520128279637));
#1183=CARTESIAN_POINT('',(41.8383333422561,3.,-64.8520128279637));
#1184=CARTESIAN_POINT('',(24.8383333422561,3.,-64.8520128279637));
#1185=CARTESIAN_POINT('',(41.8383333422561,3.,-73.3520128279637));
#1186=CARTESIAN_POINT('',(41.8383333422561,3.,-46.7270128279637));
#1187=CARTESIAN_POINT('',(-26.1616666577439,3.,-73.3520128279637));
#1188=CARTESIAN_POINT('',(-9.16166665774392,3.,-73.3520128279637));
#1189=CARTESIAN_POINT('',(-26.1616666577439,3.,6.52298717203634));
#1190=CARTESIAN_POINT('',(23.8383333422561,3.,-37.3520128279637));
#1191=CARTESIAN_POINT('Origin',(24.8383333422561,3.,-37.3520128279637));
#1192=CARTESIAN_POINT('',(23.8383333422561,3.,-46.3520128279637));
#1193=CARTESIAN_POINT('Origin',(24.8383333422561,3.,-46.3520128279637));
#1194=CARTESIAN_POINT('Origin',(24.8383333422561,0.,-46.3520128279637));
#1195=CARTESIAN_POINT('',(23.8383333422561,0.,-46.3520128279637));
#1196=CARTESIAN_POINT('Origin',(24.8383333422561,0.,-46.3520128279637));
#1197=CARTESIAN_POINT('',(23.8383333422561,0.,-46.3520128279637));
#1198=CARTESIAN_POINT('Origin',(24.8383333422561,0.,-37.3520128279637));
#1199=CARTESIAN_POINT('',(23.8383333422561,0.,-37.3520128279637));
#1200=CARTESIAN_POINT('Origin',(24.8383333422561,0.,-37.3520128279637));
#1201=CARTESIAN_POINT('',(23.8383333422561,0.,-37.3520128279637));
#1202=CARTESIAN_POINT('Origin',(-25.1616666577439,0.,-14.8520128279637));
#1203=CARTESIAN_POINT('',(-28.1616666577439,0.,-14.8520128279637));
#1204=CARTESIAN_POINT('',(-25.1616666577439,0.,-14.8520128279637));
#1205=CARTESIAN_POINT('',(-8.66166665774388,0.,-14.8520128279637));
#1206=CARTESIAN_POINT('',(-28.1616666577439,-10.,-14.8520128279637));
#1207=CARTESIAN_POINT('',(-28.1616666577439,0.,-14.8520128279637));
#1208=CARTESIAN_POINT('',(-25.1616666577439,-10.,-14.8520128279637));
#1209=CARTESIAN_POINT('',(-25.1616666577439,-10.,-14.8520128279637));
#1210=CARTESIAN_POINT('',(-25.1616666577439,0.,-14.8520128279637));
#1211=CARTESIAN_POINT('Origin',(-25.1616666577439,0.,-23.8520128279637));
#1212=CARTESIAN_POINT('',(-25.1616666577439,0.,-23.8520128279637));
#1213=CARTESIAN_POINT('',(-25.1616666577439,0.,-21.9770128279637));
#1214=CARTESIAN_POINT('',(-25.1616666577439,-10.,-23.8520128279637));
#1215=CARTESIAN_POINT('',(-25.1616666577439,-10.,-23.8520128279637));
#1216=CARTESIAN_POINT('',(-25.1616666577439,0.,-23.8520128279637));
#1217=CARTESIAN_POINT('Origin',(-28.1616666577439,0.,-23.8520128279637));
#1218=CARTESIAN_POINT('',(-28.1616666577439,0.,-23.8520128279637));
#1219=CARTESIAN_POINT('',(-10.1616666577439,0.,-23.8520128279637));
#1220=CARTESIAN_POINT('',(-28.1616666577439,-10.,-23.8520128279637));
#1221=CARTESIAN_POINT('',(-28.1616666577439,-10.,-23.8520128279637));
#1222=CARTESIAN_POINT('',(-28.1616666577439,0.,-23.8520128279637));
#1223=CARTESIAN_POINT('Origin',(-28.1616666577439,0.,-14.8520128279637));
#1224=CARTESIAN_POINT('',(-28.1616666577439,0.,-17.4770128279637));
#1225=CARTESIAN_POINT('',(-28.1616666577439,-10.,-14.8520128279637));
#1226=CARTESIAN_POINT('Origin',(-26.6616666577439,-10.,-19.3520128279637));
#1227=CARTESIAN_POINT('Origin',(41.8383333422561,3.,-64.8520128279637));
#1228=CARTESIAN_POINT('',(41.8383333422561,8.5,-64.8520128279637));
#1229=CARTESIAN_POINT('',(41.8383333422561,8.5,-64.8520128279637));
#1230=CARTESIAN_POINT('',(41.8383333422561,3.,-64.8520128279637));
#1231=CARTESIAN_POINT('Origin',(41.8383333422561,3.,-73.3520128279637));
#1232=CARTESIAN_POINT('',(41.8383333422561,8.5,-73.3520128279637));
#1233=CARTESIAN_POINT('',(41.8383333422561,8.5,-73.3520128279637));
#1234=CARTESIAN_POINT('',(41.8383333422561,3.,-73.3520128279637));
#1235=CARTESIAN_POINT('Origin',(-26.1616666577439,3.,-73.3520128279637));
#1236=CARTESIAN_POINT('',(-26.1616666577439,8.5,-73.3520128279637));
#1237=CARTESIAN_POINT('',(-26.1616666577439,8.5,-73.3520128279637));
#1238=CARTESIAN_POINT('',(-26.1616666577439,3.,-73.3520128279637));
#1239=CARTESIAN_POINT('Origin',(-26.1616666577439,3.,33.1479871720363));
#1240=CARTESIAN_POINT('',(-26.1616666577439,8.5,33.1479871720363));
#1241=CARTESIAN_POINT('',(-26.1616666577439,8.5,33.1479871720363));
#1242=CARTESIAN_POINT('',(-26.1616666577439,3.,33.1479871720363));
#1243=CARTESIAN_POINT('Origin',(41.8383333422561,3.,33.1479871720363));
#1244=CARTESIAN_POINT('',(41.8383333422561,8.5,33.1479871720363));
#1245=CARTESIAN_POINT('',(41.8383333422561,8.5,33.1479871720363));
#1246=CARTESIAN_POINT('',(41.8383333422561,3.,33.1479871720363));
#1247=CARTESIAN_POINT('Origin',(41.8383333422561,3.,-40.8520128279637));
#1248=CARTESIAN_POINT('',(41.8383333422561,8.5,-40.8520128279637));
#1249=CARTESIAN_POINT('',(41.8383333422561,8.5,-40.8520128279637));
#1250=CARTESIAN_POINT('',(41.8383333422561,3.,-40.8520128279637));
#1251=CARTESIAN_POINT('Origin',(44.8383333422561,3.,-40.8520128279637));
#1252=CARTESIAN_POINT('',(44.8383333422561,8.5,-40.8520128279637));
#1253=CARTESIAN_POINT('Origin',(7.83833334225612,8.5,-20.1020128279637));
#1254=CARTESIAN_POINT('Origin',(-29.1616666577439,0.,36.1479871720363));
#1255=CARTESIAN_POINT('',(-29.1616666577439,0.,36.1479871720363));
#1256=CARTESIAN_POINT('Origin',(7.83833334225612,0.,-20.1020128279637));
#1257=UNCERTAINTY_MEASURE_WITH_UNIT(LENGTH_MEASURE(0.01),#1261,
'DISTANCE_ACCURACY_VALUE',
'Maximum model space distance between geometric entities at asserted c
onnectivities');
#1258=UNCERTAINTY_MEASURE_WITH_UNIT(LENGTH_MEASURE(0.01),#1261,
'DISTANCE_ACCURACY_VALUE',
'Maximum model space distance between geometric entities at asserted c
onnectivities');
#1259=(
GEOMETRIC_REPRESENTATION_CONTEXT(3)
GLOBAL_UNCERTAINTY_ASSIGNED_CONTEXT((#1257))
GLOBAL_UNIT_ASSIGNED_CONTEXT((#1261,#1263,#1264))
REPRESENTATION_CONTEXT('','3D')
);
#1260=(
GEOMETRIC_REPRESENTATION_CONTEXT(3)
GLOBAL_UNCERTAINTY_ASSIGNED_CONTEXT((#1258))
GLOBAL_UNIT_ASSIGNED_CONTEXT((#1261,#1263,#1264))
REPRESENTATION_CONTEXT('','3D')
);
#1261=(
LENGTH_UNIT()
NAMED_UNIT(*)
SI_UNIT(.MILLI.,.METRE.)
);
#1262=(
LENGTH_UNIT()
NAMED_UNIT(*)
SI_UNIT(.CENTI.,.METRE.)
);
#1263=(
NAMED_UNIT(*)
PLANE_ANGLE_UNIT()
SI_UNIT($,.RADIAN.)
);
#1264=(
NAMED_UNIT(*)
SI_UNIT($,.STERADIAN.)
SOLID_ANGLE_UNIT()
);
#1265=SHAPE_DEFINITION_REPRESENTATION(#1266,#1267);
#1266=PRODUCT_DEFINITION_SHAPE('',$,#1269);
#1267=SHAPE_REPRESENTATION('',(#813),#1259);
#1268=PRODUCT_DEFINITION_CONTEXT('part definition',#1273,'design');
#1269=PRODUCT_DEFINITION('plate','8',#1270,#1268);
#1270=PRODUCT_DEFINITION_FORMATION('',$,#1275);
#1271=PRODUCT_RELATED_PRODUCT_CATEGORY('8','8',(#1275));
#1272=APPLICATION_PROTOCOL_DEFINITION('international standard',
'automotive_design',2009,#1273);
#1273=APPLICATION_CONTEXT(
'Core Data for Automotive Mechanical Design Process');
#1274=PRODUCT_CONTEXT('part definition',#1273,'mechanical');
#1275=PRODUCT('plate','8',$,(#1274));
#1276=PRESENTATION_STYLE_ASSIGNMENT((#1278));
#1277=PRESENTATION_STYLE_ASSIGNMENT((#1279));
#1278=SURFACE_STYLE_USAGE(.BOTH.,#1284);
#1279=SURFACE_STYLE_USAGE(.BOTH.,#1285);
#1280=SURFACE_STYLE_RENDERING_WITH_PROPERTIES($,#1292,(#1282));
#1281=SURFACE_STYLE_RENDERING_WITH_PROPERTIES($,#1293,(#1283));
#1282=SURFACE_STYLE_TRANSPARENT(0.);
#1283=SURFACE_STYLE_TRANSPARENT(0.);
#1284=SURFACE_SIDE_STYLE('',(#1286,#1280));
#1285=SURFACE_SIDE_STYLE('',(#1287,#1281));
#1286=SURFACE_STYLE_FILL_AREA(#1288);
#1287=SURFACE_STYLE_FILL_AREA(#1289);
#1288=FILL_AREA_STYLE('',(#1290));
#1289=FILL_AREA_STYLE('',(#1291));
#1290=FILL_AREA_STYLE_COLOUR('',#1292);
#1291=FILL_AREA_STYLE_COLOUR('',#1293);
#1292=COLOUR_RGB('',0.749019607843137,0.749019607843137,0.749019607843137);
#1293=COLOUR_RGB('',0.0509803921568627,0.615686274509804,0.0509803921568627);
ENDSEC;
END-ISO-10303-21;
