ISO-10303-21;
HEADER;
/* Generated by software containing ST-Developer
 * from STEP Tools, Inc. (www.steptools.com) 
 */

FILE_DESCRIPTION(
/* description */ (''),
/* implementation_level */ '2;1');

FILE_NAME(
/* name */ '9.stp',
/* time_stamp */ '2026-03-17T17:31:47+01:00',
/* author */ ('irach'),
/* organization */ (''),
/* preprocessor_version */ 'ST-DEVELOPER v20.1',
/* originating_system */ 'Autodesk Inventor 2026',
/* authorisation */ '');

FILE_SCHEMA (('AUTOMOTIVE_DESIGN { 1 0 10303 214 3 1 1 }'));
ENDSEC;

DATA;
#10=MECHANICAL_DESIGN_GEOMETRIC_PRESENTATION_REPRESENTATION('',(#486,#487,
#488,#489,#490,#491,#492,#493,#494,#495,#496,#497,#498,#499,#500,#501,#502,
#503,#504,#505,#506,#507,#508,#509,#510,#511),#854);
#11=SHAPE_REPRESENTATION_RELATIONSHIP('SRR','None',#861,#12);
#12=ADVANCED_BREP_SHAPE_REPRESENTATION('',(#13),#853);
#13=MANIFOLD_SOLID_BREP('Solid1',#537);
#14=FACE_BOUND('',#69,.T.);
#15=FACE_BOUND('',#84,.T.);
#16=FACE_BOUND('',#92,.T.);
#17=FACE_BOUND('',#95,.T.);
#18=PLANE('',#563);
#19=PLANE('',#564);
#20=PLANE('',#565);
#21=PLANE('',#566);
#22=PLANE('',#567);
#23=PLANE('',#568);
#24=PLANE('',#569);
#25=PLANE('',#570);
#26=PLANE('',#571);
#27=PLANE('',#572);
#28=PLANE('',#573);
#29=PLANE('',#574);
#30=PLANE('',#575);
#31=PLANE('',#576);
#32=PLANE('',#577);
#33=PLANE('',#578);
#34=PLANE('',#579);
#35=PLANE('',#580);
#36=PLANE('',#581);
#37=PLANE('',#582);
#38=PLANE('',#583);
#39=PLANE('',#584);
#40=PLANE('',#585);
#41=PLANE('',#586);
#42=FACE_OUTER_BOUND('',#67,.T.);
#43=FACE_OUTER_BOUND('',#68,.T.);
#44=FACE_OUTER_BOUND('',#70,.T.);
#45=FACE_OUTER_BOUND('',#71,.T.);
#46=FACE_OUTER_BOUND('',#72,.T.);
#47=FACE_OUTER_BOUND('',#73,.T.);
#48=FACE_OUTER_BOUND('',#74,.T.);
#49=FACE_OUTER_BOUND('',#75,.T.);
#50=FACE_OUTER_BOUND('',#76,.T.);
#51=FACE_OUTER_BOUND('',#77,.T.);
#52=FACE_OUTER_BOUND('',#78,.T.);
#53=FACE_OUTER_BOUND('',#79,.T.);
#54=FACE_OUTER_BOUND('',#80,.T.);
#55=FACE_OUTER_BOUND('',#81,.T.);
#56=FACE_OUTER_BOUND('',#82,.T.);
#57=FACE_OUTER_BOUND('',#83,.T.);
#58=FACE_OUTER_BOUND('',#85,.T.);
#59=FACE_OUTER_BOUND('',#86,.T.);
#60=FACE_OUTER_BOUND('',#87,.T.);
#61=FACE_OUTER_BOUND('',#88,.T.);
#62=FACE_OUTER_BOUND('',#89,.T.);
#63=FACE_OUTER_BOUND('',#90,.T.);
#64=FACE_OUTER_BOUND('',#91,.T.);
#65=FACE_OUTER_BOUND('',#93,.T.);
#66=FACE_OUTER_BOUND('',#94,.T.);
#67=EDGE_LOOP('',(#347,#348,#349,#350));
#68=EDGE_LOOP('',(#351,#352,#353,#354));
#69=EDGE_LOOP('',(#355));
#70=EDGE_LOOP('',(#356,#357,#358,#359));
#71=EDGE_LOOP('',(#360,#361,#362,#363));
#72=EDGE_LOOP('',(#364,#365,#366,#367));
#73=EDGE_LOOP('',(#368,#369,#370,#371));
#74=EDGE_LOOP('',(#372,#373,#374,#375));
#75=EDGE_LOOP('',(#376,#377,#378,#379));
#76=EDGE_LOOP('',(#380,#381,#382,#383));
#77=EDGE_LOOP('',(#384,#385,#386,#387));
#78=EDGE_LOOP('',(#388,#389,#390,#391));
#79=EDGE_LOOP('',(#392,#393,#394,#395));
#80=EDGE_LOOP('',(#396,#397,#398,#399));
#81=EDGE_LOOP('',(#400,#401,#402,#403));
#82=EDGE_LOOP('',(#404,#405,#406,#407,#408,#409,#410,#411));
#83=EDGE_LOOP('',(#412,#413,#414,#415));
#84=EDGE_LOOP('',(#416,#417,#418,#419));
#85=EDGE_LOOP('',(#420,#421,#422,#423));
#86=EDGE_LOOP('',(#424,#425,#426,#427));
#87=EDGE_LOOP('',(#428,#429,#430,#431));
#88=EDGE_LOOP('',(#432,#433,#434,#435));
#89=EDGE_LOOP('',(#436,#437,#438,#439));
#90=EDGE_LOOP('',(#440,#441,#442,#443,#444,#445,#446,#447,#448,#449,#450,
#451,#452,#453));
#91=EDGE_LOOP('',(#454,#455,#456,#457,#458,#459,#460,#461));
#92=EDGE_LOOP('',(#462));
#93=EDGE_LOOP('',(#463,#464,#465,#466,#467,#468,#469,#470,#471,#472,#473,
#474,#475,#476));
#94=EDGE_LOOP('',(#477,#478,#479,#480));
#95=EDGE_LOOP('',(#481,#482,#483,#484));
#96=LINE('',#715,#163);
#97=LINE('',#720,#164);
#98=LINE('',#722,#165);
#99=LINE('',#724,#166);
#100=LINE('',#725,#167);
#101=LINE('',#728,#168);
#102=LINE('',#730,#169);
#103=LINE('',#731,#170);
#104=LINE('',#734,#171);
#105=LINE('',#736,#172);
#106=LINE('',#737,#173);
#107=LINE('',#739,#174);
#108=LINE('',#743,#175);
#109=LINE('',#745,#176);
#110=LINE('',#747,#177);
#111=LINE('',#748,#178);
#112=LINE('',#751,#179);
#113=LINE('',#753,#180);
#114=LINE('',#754,#181);
#115=LINE('',#758,#182);
#116=LINE('',#760,#183);
#117=LINE('',#762,#184);
#118=LINE('',#763,#185);
#119=LINE('',#766,#186);
#120=LINE('',#768,#187);
#121=LINE('',#769,#188);
#122=LINE('',#772,#189);
#123=LINE('',#774,#190);
#124=LINE('',#775,#191);
#125=LINE('',#778,#192);
#126=LINE('',#780,#193);
#127=LINE('',#781,#194);
#128=LINE('',#784,#195);
#129=LINE('',#786,#196);
#130=LINE('',#787,#197);
#131=LINE('',#790,#198);
#132=LINE('',#792,#199);
#133=LINE('',#793,#200);
#134=LINE('',#796,#201);
#135=LINE('',#798,#202);
#136=LINE('',#799,#203);
#137=LINE('',#802,#204);
#138=LINE('',#803,#205);
#139=LINE('',#805,#206);
#140=LINE('',#806,#207);
#141=LINE('',#808,#208);
#142=LINE('',#809,#209);
#143=LINE('',#812,#210);
#144=LINE('',#814,#211);
#145=LINE('',#816,#212);
#146=LINE('',#817,#213);
#147=LINE('',#821,#214);
#148=LINE('',#822,#215);
#149=LINE('',#823,#216);
#150=LINE('',#826,#217);
#151=LINE('',#827,#218);
#152=LINE('',#830,#219);
#153=LINE('',#831,#220);
#154=LINE('',#833,#221);
#155=LINE('',#837,#222);
#156=LINE('',#838,#223);
#157=LINE('',#839,#224);
#158=LINE('',#842,#225);
#159=LINE('',#843,#226);
#160=LINE('',#846,#227);
#161=LINE('',#847,#228);
#162=LINE('',#849,#229);
#163=VECTOR('',#593,1.5);
#164=VECTOR('',#598,10.);
#165=VECTOR('',#599,10.);
#166=VECTOR('',#600,10.);
#167=VECTOR('',#601,10.);
#168=VECTOR('',#604,10.);
#169=VECTOR('',#605,10.);
#170=VECTOR('',#606,10.);
#171=VECTOR('',#609,10.);
#172=VECTOR('',#610,10.);
#173=VECTOR('',#611,10.);
#174=VECTOR('',#614,10.);
#175=VECTOR('',#617,10.);
#176=VECTOR('',#618,10.);
#177=VECTOR('',#619,10.);
#178=VECTOR('',#620,10.);
#179=VECTOR('',#623,10.);
#180=VECTOR('',#624,10.);
#181=VECTOR('',#625,10.);
#182=VECTOR('',#628,10.);
#183=VECTOR('',#629,10.);
#184=VECTOR('',#630,10.);
#185=VECTOR('',#631,10.);
#186=VECTOR('',#634,10.);
#187=VECTOR('',#635,10.);
#188=VECTOR('',#636,10.);
#189=VECTOR('',#639,10.);
#190=VECTOR('',#640,10.);
#191=VECTOR('',#641,10.);
#192=VECTOR('',#644,10.);
#193=VECTOR('',#645,10.);
#194=VECTOR('',#646,10.);
#195=VECTOR('',#649,10.);
#196=VECTOR('',#650,10.);
#197=VECTOR('',#651,10.);
#198=VECTOR('',#654,10.);
#199=VECTOR('',#655,10.);
#200=VECTOR('',#656,10.);
#201=VECTOR('',#659,10.);
#202=VECTOR('',#660,10.);
#203=VECTOR('',#661,10.);
#204=VECTOR('',#664,10.);
#205=VECTOR('',#665,10.);
#206=VECTOR('',#666,10.);
#207=VECTOR('',#667,10.);
#208=VECTOR('',#670,10.);
#209=VECTOR('',#671,10.);
#210=VECTOR('',#672,10.);
#211=VECTOR('',#673,10.);
#212=VECTOR('',#674,10.);
#213=VECTOR('',#675,10.);
#214=VECTOR('',#678,10.);
#215=VECTOR('',#679,10.);
#216=VECTOR('',#680,10.);
#217=VECTOR('',#683,10.);
#218=VECTOR('',#684,10.);
#219=VECTOR('',#687,10.);
#220=VECTOR('',#688,10.);
#221=VECTOR('',#691,10.);
#222=VECTOR('',#694,10.);
#223=VECTOR('',#695,10.);
#224=VECTOR('',#696,10.);
#225=VECTOR('',#699,10.);
#226=VECTOR('',#700,10.);
#227=VECTOR('',#703,10.);
#228=VECTOR('',#704,10.);
#229=VECTOR('',#707,10.);
#230=CIRCLE('',#561,1.5);
#231=CIRCLE('',#562,1.5);
#232=VERTEX_POINT('',#712);
#233=VERTEX_POINT('',#714);
#234=VERTEX_POINT('',#718);
#235=VERTEX_POINT('',#719);
#236=VERTEX_POINT('',#721);
#237=VERTEX_POINT('',#723);
#238=VERTEX_POINT('',#727);
#239=VERTEX_POINT('',#729);
#240=VERTEX_POINT('',#733);
#241=VERTEX_POINT('',#735);
#242=VERTEX_POINT('',#741);
#243=VERTEX_POINT('',#742);
#244=VERTEX_POINT('',#744);
#245=VERTEX_POINT('',#746);
#246=VERTEX_POINT('',#750);
#247=VERTEX_POINT('',#752);
#248=VERTEX_POINT('',#756);
#249=VERTEX_POINT('',#757);
#250=VERTEX_POINT('',#759);
#251=VERTEX_POINT('',#761);
#252=VERTEX_POINT('',#765);
#253=VERTEX_POINT('',#767);
#254=VERTEX_POINT('',#771);
#255=VERTEX_POINT('',#773);
#256=VERTEX_POINT('',#777);
#257=VERTEX_POINT('',#779);
#258=VERTEX_POINT('',#783);
#259=VERTEX_POINT('',#785);
#260=VERTEX_POINT('',#789);
#261=VERTEX_POINT('',#791);
#262=VERTEX_POINT('',#795);
#263=VERTEX_POINT('',#797);
#264=VERTEX_POINT('',#801);
#265=VERTEX_POINT('',#804);
#266=VERTEX_POINT('',#810);
#267=VERTEX_POINT('',#811);
#268=VERTEX_POINT('',#813);
#269=VERTEX_POINT('',#815);
#270=VERTEX_POINT('',#819);
#271=VERTEX_POINT('',#820);
#272=VERTEX_POINT('',#825);
#273=VERTEX_POINT('',#829);
#274=VERTEX_POINT('',#835);
#275=VERTEX_POINT('',#836);
#276=VERTEX_POINT('',#841);
#277=VERTEX_POINT('',#845);
#278=EDGE_CURVE('',#232,#232,#230,.T.);
#279=EDGE_CURVE('',#232,#233,#96,.T.);
#280=EDGE_CURVE('',#233,#233,#231,.T.);
#281=EDGE_CURVE('',#234,#235,#97,.T.);
#282=EDGE_CURVE('',#234,#236,#98,.T.);
#283=EDGE_CURVE('',#237,#236,#99,.T.);
#284=EDGE_CURVE('',#235,#237,#100,.T.);
#285=EDGE_CURVE('',#235,#238,#101,.T.);
#286=EDGE_CURVE('',#239,#237,#102,.T.);
#287=EDGE_CURVE('',#238,#239,#103,.T.);
#288=EDGE_CURVE('',#240,#234,#104,.T.);
#289=EDGE_CURVE('',#240,#241,#105,.T.);
#290=EDGE_CURVE('',#236,#241,#106,.T.);
#291=EDGE_CURVE('',#241,#239,#107,.T.);
#292=EDGE_CURVE('',#242,#243,#108,.T.);
#293=EDGE_CURVE('',#244,#242,#109,.T.);
#294=EDGE_CURVE('',#245,#244,#110,.T.);
#295=EDGE_CURVE('',#243,#245,#111,.T.);
#296=EDGE_CURVE('',#243,#246,#112,.T.);
#297=EDGE_CURVE('',#247,#245,#113,.T.);
#298=EDGE_CURVE('',#246,#247,#114,.T.);
#299=EDGE_CURVE('',#248,#249,#115,.T.);
#300=EDGE_CURVE('',#250,#248,#116,.T.);
#301=EDGE_CURVE('',#251,#250,#117,.T.);
#302=EDGE_CURVE('',#249,#251,#118,.T.);
#303=EDGE_CURVE('',#249,#252,#119,.T.);
#304=EDGE_CURVE('',#253,#251,#120,.T.);
#305=EDGE_CURVE('',#252,#253,#121,.T.);
#306=EDGE_CURVE('',#247,#254,#122,.T.);
#307=EDGE_CURVE('',#255,#254,#123,.T.);
#308=EDGE_CURVE('',#246,#255,#124,.T.);
#309=EDGE_CURVE('',#256,#242,#125,.T.);
#310=EDGE_CURVE('',#257,#256,#126,.T.);
#311=EDGE_CURVE('',#257,#244,#127,.T.);
#312=EDGE_CURVE('',#258,#253,#128,.T.);
#313=EDGE_CURVE('',#259,#258,#129,.T.);
#314=EDGE_CURVE('',#259,#252,#130,.T.);
#315=EDGE_CURVE('',#248,#260,#131,.T.);
#316=EDGE_CURVE('',#261,#260,#132,.T.);
#317=EDGE_CURVE('',#250,#261,#133,.T.);
#318=EDGE_CURVE('',#262,#255,#134,.T.);
#319=EDGE_CURVE('',#254,#263,#135,.T.);
#320=EDGE_CURVE('',#263,#262,#136,.T.);
#321=EDGE_CURVE('',#238,#264,#137,.T.);
#322=EDGE_CURVE('',#264,#261,#138,.T.);
#323=EDGE_CURVE('',#260,#265,#139,.T.);
#324=EDGE_CURVE('',#265,#240,#140,.T.);
#325=EDGE_CURVE('',#256,#259,#141,.T.);
#326=EDGE_CURVE('',#258,#257,#142,.T.);
#327=EDGE_CURVE('',#266,#267,#143,.T.);
#328=EDGE_CURVE('',#267,#268,#144,.T.);
#329=EDGE_CURVE('',#268,#269,#145,.T.);
#330=EDGE_CURVE('',#269,#266,#146,.T.);
#331=EDGE_CURVE('',#270,#271,#147,.T.);
#332=EDGE_CURVE('',#270,#267,#148,.T.);
#333=EDGE_CURVE('',#271,#266,#149,.T.);
#334=EDGE_CURVE('',#272,#270,#150,.T.);
#335=EDGE_CURVE('',#272,#268,#151,.T.);
#336=EDGE_CURVE('',#273,#272,#152,.T.);
#337=EDGE_CURVE('',#273,#269,#153,.T.);
#338=EDGE_CURVE('',#271,#273,#154,.T.);
#339=EDGE_CURVE('',#274,#275,#155,.T.);
#340=EDGE_CURVE('',#274,#262,#156,.T.);
#341=EDGE_CURVE('',#275,#263,#157,.T.);
#342=EDGE_CURVE('',#275,#276,#158,.T.);
#343=EDGE_CURVE('',#276,#264,#159,.T.);
#344=EDGE_CURVE('',#276,#277,#160,.T.);
#345=EDGE_CURVE('',#277,#265,#161,.T.);
#346=EDGE_CURVE('',#277,#274,#162,.T.);
#347=ORIENTED_EDGE('',*,*,#278,.F.);
#348=ORIENTED_EDGE('',*,*,#279,.T.);
#349=ORIENTED_EDGE('',*,*,#280,.F.);
#350=ORIENTED_EDGE('',*,*,#279,.F.);
#351=ORIENTED_EDGE('',*,*,#281,.F.);
#352=ORIENTED_EDGE('',*,*,#282,.T.);
#353=ORIENTED_EDGE('',*,*,#283,.F.);
#354=ORIENTED_EDGE('',*,*,#284,.F.);
#355=ORIENTED_EDGE('',*,*,#280,.T.);
#356=ORIENTED_EDGE('',*,*,#285,.F.);
#357=ORIENTED_EDGE('',*,*,#284,.T.);
#358=ORIENTED_EDGE('',*,*,#286,.F.);
#359=ORIENTED_EDGE('',*,*,#287,.F.);
#360=ORIENTED_EDGE('',*,*,#288,.F.);
#361=ORIENTED_EDGE('',*,*,#289,.T.);
#362=ORIENTED_EDGE('',*,*,#290,.F.);
#363=ORIENTED_EDGE('',*,*,#282,.F.);
#364=ORIENTED_EDGE('',*,*,#290,.T.);
#365=ORIENTED_EDGE('',*,*,#291,.T.);
#366=ORIENTED_EDGE('',*,*,#286,.T.);
#367=ORIENTED_EDGE('',*,*,#283,.T.);
#368=ORIENTED_EDGE('',*,*,#292,.F.);
#369=ORIENTED_EDGE('',*,*,#293,.F.);
#370=ORIENTED_EDGE('',*,*,#294,.F.);
#371=ORIENTED_EDGE('',*,*,#295,.F.);
#372=ORIENTED_EDGE('',*,*,#296,.F.);
#373=ORIENTED_EDGE('',*,*,#295,.T.);
#374=ORIENTED_EDGE('',*,*,#297,.F.);
#375=ORIENTED_EDGE('',*,*,#298,.F.);
#376=ORIENTED_EDGE('',*,*,#299,.F.);
#377=ORIENTED_EDGE('',*,*,#300,.F.);
#378=ORIENTED_EDGE('',*,*,#301,.F.);
#379=ORIENTED_EDGE('',*,*,#302,.F.);
#380=ORIENTED_EDGE('',*,*,#303,.F.);
#381=ORIENTED_EDGE('',*,*,#302,.T.);
#382=ORIENTED_EDGE('',*,*,#304,.F.);
#383=ORIENTED_EDGE('',*,*,#305,.F.);
#384=ORIENTED_EDGE('',*,*,#298,.T.);
#385=ORIENTED_EDGE('',*,*,#306,.T.);
#386=ORIENTED_EDGE('',*,*,#307,.F.);
#387=ORIENTED_EDGE('',*,*,#308,.F.);
#388=ORIENTED_EDGE('',*,*,#293,.T.);
#389=ORIENTED_EDGE('',*,*,#309,.F.);
#390=ORIENTED_EDGE('',*,*,#310,.F.);
#391=ORIENTED_EDGE('',*,*,#311,.T.);
#392=ORIENTED_EDGE('',*,*,#305,.T.);
#393=ORIENTED_EDGE('',*,*,#312,.F.);
#394=ORIENTED_EDGE('',*,*,#313,.F.);
#395=ORIENTED_EDGE('',*,*,#314,.T.);
#396=ORIENTED_EDGE('',*,*,#300,.T.);
#397=ORIENTED_EDGE('',*,*,#315,.T.);
#398=ORIENTED_EDGE('',*,*,#316,.F.);
#399=ORIENTED_EDGE('',*,*,#317,.F.);
#400=ORIENTED_EDGE('',*,*,#318,.T.);
#401=ORIENTED_EDGE('',*,*,#307,.T.);
#402=ORIENTED_EDGE('',*,*,#319,.T.);
#403=ORIENTED_EDGE('',*,*,#320,.T.);
#404=ORIENTED_EDGE('',*,*,#285,.T.);
#405=ORIENTED_EDGE('',*,*,#321,.T.);
#406=ORIENTED_EDGE('',*,*,#322,.T.);
#407=ORIENTED_EDGE('',*,*,#316,.T.);
#408=ORIENTED_EDGE('',*,*,#323,.T.);
#409=ORIENTED_EDGE('',*,*,#324,.T.);
#410=ORIENTED_EDGE('',*,*,#288,.T.);
#411=ORIENTED_EDGE('',*,*,#281,.T.);
#412=ORIENTED_EDGE('',*,*,#310,.T.);
#413=ORIENTED_EDGE('',*,*,#325,.T.);
#414=ORIENTED_EDGE('',*,*,#313,.T.);
#415=ORIENTED_EDGE('',*,*,#326,.T.);
#416=ORIENTED_EDGE('',*,*,#327,.T.);
#417=ORIENTED_EDGE('',*,*,#328,.T.);
#418=ORIENTED_EDGE('',*,*,#329,.T.);
#419=ORIENTED_EDGE('',*,*,#330,.T.);
#420=ORIENTED_EDGE('',*,*,#331,.F.);
#421=ORIENTED_EDGE('',*,*,#332,.T.);
#422=ORIENTED_EDGE('',*,*,#327,.F.);
#423=ORIENTED_EDGE('',*,*,#333,.F.);
#424=ORIENTED_EDGE('',*,*,#334,.F.);
#425=ORIENTED_EDGE('',*,*,#335,.T.);
#426=ORIENTED_EDGE('',*,*,#328,.F.);
#427=ORIENTED_EDGE('',*,*,#332,.F.);
#428=ORIENTED_EDGE('',*,*,#336,.F.);
#429=ORIENTED_EDGE('',*,*,#337,.T.);
#430=ORIENTED_EDGE('',*,*,#329,.F.);
#431=ORIENTED_EDGE('',*,*,#335,.F.);
#432=ORIENTED_EDGE('',*,*,#338,.F.);
#433=ORIENTED_EDGE('',*,*,#333,.T.);
#434=ORIENTED_EDGE('',*,*,#330,.F.);
#435=ORIENTED_EDGE('',*,*,#337,.F.);
#436=ORIENTED_EDGE('',*,*,#339,.F.);
#437=ORIENTED_EDGE('',*,*,#340,.T.);
#438=ORIENTED_EDGE('',*,*,#320,.F.);
#439=ORIENTED_EDGE('',*,*,#341,.F.);
#440=ORIENTED_EDGE('',*,*,#342,.F.);
#441=ORIENTED_EDGE('',*,*,#341,.T.);
#442=ORIENTED_EDGE('',*,*,#319,.F.);
#443=ORIENTED_EDGE('',*,*,#306,.F.);
#444=ORIENTED_EDGE('',*,*,#297,.T.);
#445=ORIENTED_EDGE('',*,*,#294,.T.);
#446=ORIENTED_EDGE('',*,*,#311,.F.);
#447=ORIENTED_EDGE('',*,*,#326,.F.);
#448=ORIENTED_EDGE('',*,*,#312,.T.);
#449=ORIENTED_EDGE('',*,*,#304,.T.);
#450=ORIENTED_EDGE('',*,*,#301,.T.);
#451=ORIENTED_EDGE('',*,*,#317,.T.);
#452=ORIENTED_EDGE('',*,*,#322,.F.);
#453=ORIENTED_EDGE('',*,*,#343,.F.);
#454=ORIENTED_EDGE('',*,*,#344,.F.);
#455=ORIENTED_EDGE('',*,*,#343,.T.);
#456=ORIENTED_EDGE('',*,*,#321,.F.);
#457=ORIENTED_EDGE('',*,*,#287,.T.);
#458=ORIENTED_EDGE('',*,*,#291,.F.);
#459=ORIENTED_EDGE('',*,*,#289,.F.);
#460=ORIENTED_EDGE('',*,*,#324,.F.);
#461=ORIENTED_EDGE('',*,*,#345,.F.);
#462=ORIENTED_EDGE('',*,*,#278,.T.);
#463=ORIENTED_EDGE('',*,*,#346,.F.);
#464=ORIENTED_EDGE('',*,*,#345,.T.);
#465=ORIENTED_EDGE('',*,*,#323,.F.);
#466=ORIENTED_EDGE('',*,*,#315,.F.);
#467=ORIENTED_EDGE('',*,*,#299,.T.);
#468=ORIENTED_EDGE('',*,*,#303,.T.);
#469=ORIENTED_EDGE('',*,*,#314,.F.);
#470=ORIENTED_EDGE('',*,*,#325,.F.);
#471=ORIENTED_EDGE('',*,*,#309,.T.);
#472=ORIENTED_EDGE('',*,*,#292,.T.);
#473=ORIENTED_EDGE('',*,*,#296,.T.);
#474=ORIENTED_EDGE('',*,*,#308,.T.);
#475=ORIENTED_EDGE('',*,*,#318,.F.);
#476=ORIENTED_EDGE('',*,*,#340,.F.);
#477=ORIENTED_EDGE('',*,*,#346,.T.);
#478=ORIENTED_EDGE('',*,*,#339,.T.);
#479=ORIENTED_EDGE('',*,*,#342,.T.);
#480=ORIENTED_EDGE('',*,*,#344,.T.);
#481=ORIENTED_EDGE('',*,*,#331,.T.);
#482=ORIENTED_EDGE('',*,*,#338,.T.);
#483=ORIENTED_EDGE('',*,*,#336,.T.);
#484=ORIENTED_EDGE('',*,*,#334,.T.);
#485=CYLINDRICAL_SURFACE('',#560,1.5);
#486=STYLED_ITEM('',(#871),#512);
#487=STYLED_ITEM('',(#871),#513);
#488=STYLED_ITEM('',(#871),#514);
#489=STYLED_ITEM('',(#871),#515);
#490=STYLED_ITEM('',(#871),#516);
#491=STYLED_ITEM('',(#871),#517);
#492=STYLED_ITEM('',(#871),#518);
#493=STYLED_ITEM('',(#871),#519);
#494=STYLED_ITEM('',(#871),#520);
#495=STYLED_ITEM('',(#871),#521);
#496=STYLED_ITEM('',(#871),#522);
#497=STYLED_ITEM('',(#871),#523);
#498=STYLED_ITEM('',(#871),#524);
#499=STYLED_ITEM('',(#871),#525);
#500=STYLED_ITEM('',(#871),#526);
#501=STYLED_ITEM('',(#871),#527);
#502=STYLED_ITEM('',(#871),#528);
#503=STYLED_ITEM('',(#871),#529);
#504=STYLED_ITEM('',(#871),#530);
#505=STYLED_ITEM('',(#871),#531);
#506=STYLED_ITEM('',(#871),#532);
#507=STYLED_ITEM('',(#871),#533);
#508=STYLED_ITEM('',(#871),#534);
#509=STYLED_ITEM('',(#871),#535);
#510=STYLED_ITEM('',(#871),#536);
#511=STYLED_ITEM('',(#870),#13);
#512=ADVANCED_FACE('',(#42),#485,.F.);
#513=ADVANCED_FACE('',(#43,#14),#18,.T.);
#514=ADVANCED_FACE('',(#44),#19,.T.);
#515=ADVANCED_FACE('',(#45),#20,.T.);
#516=ADVANCED_FACE('',(#46),#21,.T.);
#517=ADVANCED_FACE('',(#47),#22,.T.);
#518=ADVANCED_FACE('',(#48),#23,.T.);
#519=ADVANCED_FACE('',(#49),#24,.T.);
#520=ADVANCED_FACE('',(#50),#25,.T.);
#521=ADVANCED_FACE('',(#51),#26,.T.);
#522=ADVANCED_FACE('',(#52),#27,.T.);
#523=ADVANCED_FACE('',(#53),#28,.T.);
#524=ADVANCED_FACE('',(#54),#29,.T.);
#525=ADVANCED_FACE('',(#55),#30,.T.);
#526=ADVANCED_FACE('',(#56),#31,.T.);
#527=ADVANCED_FACE('',(#57,#15),#32,.T.);
#528=ADVANCED_FACE('',(#58),#33,.F.);
#529=ADVANCED_FACE('',(#59),#34,.F.);
#530=ADVANCED_FACE('',(#60),#35,.F.);
#531=ADVANCED_FACE('',(#61),#36,.F.);
#532=ADVANCED_FACE('',(#62),#37,.T.);
#533=ADVANCED_FACE('',(#63),#38,.T.);
#534=ADVANCED_FACE('',(#64,#16),#39,.T.);
#535=ADVANCED_FACE('',(#65),#40,.T.);
#536=ADVANCED_FACE('',(#66,#17),#41,.T.);
#537=CLOSED_SHELL('',(#512,#513,#514,#515,#516,#517,#518,#519,#520,#521,
#522,#523,#524,#525,#526,#527,#528,#529,#530,#531,#532,#533,#534,#535,#536));
#538=DERIVED_UNIT_ELEMENT(#541,1.);
#539=DERIVED_UNIT_ELEMENT(#856,-3.);
#540=DIMENSIONAL_EXPONENTS(0.,1.,0.,0.,0.,0.,0.);
#541=(
CONVERSION_BASED_UNIT('gram',#543)
MASS_UNIT()
NAMED_UNIT(#540)
);
#542=(
MASS_UNIT()
NAMED_UNIT(*)
SI_UNIT(.KILO.,.GRAM.)
);
#543=MASS_MEASURE_WITH_UNIT(MASS_MEASURE(0.001),#542);
#544=DERIVED_UNIT((#538,#539));
#545=MEASURE_REPRESENTATION_ITEM('density measure',
POSITIVE_RATIO_MEASURE(1.),#544);
#546=PROPERTY_DEFINITION_REPRESENTATION(#551,#548);
#547=PROPERTY_DEFINITION_REPRESENTATION(#552,#549);
#548=REPRESENTATION('material name',(#550),#853);
#549=REPRESENTATION('density',(#545),#853);
#550=DESCRIPTIVE_REPRESENTATION_ITEM('Generic','Generic');
#551=PROPERTY_DEFINITION('material property','material name',#863);
#552=PROPERTY_DEFINITION('material property','density of part',#863);
#553=DATE_TIME_ROLE('creation_date');
#554=APPLIED_DATE_AND_TIME_ASSIGNMENT(#555,#553,(#863));
#555=DATE_AND_TIME(#556,#557);
#556=CALENDAR_DATE(2025,3,7);
#557=LOCAL_TIME(0,0,0.,#558);
#558=COORDINATED_UNIVERSAL_TIME_OFFSET(0,0,.BEHIND.);
#559=AXIS2_PLACEMENT_3D('',#710,#587,#588);
#560=AXIS2_PLACEMENT_3D('',#711,#589,#590);
#561=AXIS2_PLACEMENT_3D('',#713,#591,#592);
#562=AXIS2_PLACEMENT_3D('',#716,#594,#595);
#563=AXIS2_PLACEMENT_3D('',#717,#596,#597);
#564=AXIS2_PLACEMENT_3D('',#726,#602,#603);
#565=AXIS2_PLACEMENT_3D('',#732,#607,#608);
#566=AXIS2_PLACEMENT_3D('',#738,#612,#613);
#567=AXIS2_PLACEMENT_3D('',#740,#615,#616);
#568=AXIS2_PLACEMENT_3D('',#749,#621,#622);
#569=AXIS2_PLACEMENT_3D('',#755,#626,#627);
#570=AXIS2_PLACEMENT_3D('',#764,#632,#633);
#571=AXIS2_PLACEMENT_3D('',#770,#637,#638);
#572=AXIS2_PLACEMENT_3D('',#776,#642,#643);
#573=AXIS2_PLACEMENT_3D('',#782,#647,#648);
#574=AXIS2_PLACEMENT_3D('',#788,#652,#653);
#575=AXIS2_PLACEMENT_3D('',#794,#657,#658);
#576=AXIS2_PLACEMENT_3D('',#800,#662,#663);
#577=AXIS2_PLACEMENT_3D('',#807,#668,#669);
#578=AXIS2_PLACEMENT_3D('',#818,#676,#677);
#579=AXIS2_PLACEMENT_3D('',#824,#681,#682);
#580=AXIS2_PLACEMENT_3D('',#828,#685,#686);
#581=AXIS2_PLACEMENT_3D('',#832,#689,#690);
#582=AXIS2_PLACEMENT_3D('',#834,#692,#693);
#583=AXIS2_PLACEMENT_3D('',#840,#697,#698);
#584=AXIS2_PLACEMENT_3D('',#844,#701,#702);
#585=AXIS2_PLACEMENT_3D('',#848,#705,#706);
#586=AXIS2_PLACEMENT_3D('',#850,#708,#709);
#587=DIRECTION('axis',(0.,0.,1.));
#588=DIRECTION('refdir',(1.,0.,0.));
#589=DIRECTION('center_axis',(0.,0.,-1.));
#590=DIRECTION('ref_axis',(1.,0.,0.));
#591=DIRECTION('center_axis',(0.,0.,-1.));
#592=DIRECTION('ref_axis',(1.,0.,0.));
#593=DIRECTION('',(0.,0.,-1.));
#594=DIRECTION('center_axis',(-4.93432455388958E-16,0.,1.));
#595=DIRECTION('ref_axis',(1.,0.,0.));
#596=DIRECTION('center_axis',(4.93432455388958E-16,0.,-1.));
#597=DIRECTION('ref_axis',(1.,0.,4.93432455388958E-16));
#598=DIRECTION('',(-1.,0.,-4.93432455388958E-16));
#599=DIRECTION('',(0.,-1.,0.));
#600=DIRECTION('',(1.,0.,4.93432455388958E-16));
#601=DIRECTION('',(0.,-1.,0.));
#602=DIRECTION('center_axis',(-1.,0.,0.));
#603=DIRECTION('ref_axis',(0.,0.,-1.));
#604=DIRECTION('',(0.,0.,1.));
#605=DIRECTION('',(0.,0.,-1.));
#606=DIRECTION('',(0.,-1.,0.));
#607=DIRECTION('center_axis',(1.,0.,0.));
#608=DIRECTION('ref_axis',(0.,0.,1.));
#609=DIRECTION('',(0.,0.,-1.));
#610=DIRECTION('',(0.,-1.,0.));
#611=DIRECTION('',(0.,0.,1.));
#612=DIRECTION('center_axis',(0.,-1.,0.));
#613=DIRECTION('ref_axis',(0.,0.,-1.));
#614=DIRECTION('',(-1.,0.,0.));
#615=DIRECTION('center_axis',(1.69739725263111E-16,0.707106781186545,0.70710678118655));
#616=DIRECTION('ref_axis',(-2.10221584426279E-16,0.70710678118655,-0.707106781186545));
#617=DIRECTION('',(2.10221584426279E-16,-0.70710678118655,0.707106781186545));
#618=DIRECTION('',(1.,-2.40048221540576E-16,0.));
#619=DIRECTION('',(-2.10221584426279E-16,0.70710678118655,-0.707106781186545));
#620=DIRECTION('',(-1.,0.,2.40048221540574E-16));
#621=DIRECTION('center_axis',(1.69739725263111E-16,-0.707106781186545,0.70710678118655));
#622=DIRECTION('ref_axis',(2.10221584426279E-16,0.70710678118655,0.707106781186545));
#623=DIRECTION('',(-2.10221584426279E-16,-0.707106781186551,-0.707106781186545));
#624=DIRECTION('',(2.10221584426279E-16,0.707106781186551,0.707106781186545));
#625=DIRECTION('',(-1.,-2.40048221540576E-16,0.));
#626=DIRECTION('center_axis',(-2.12174656578889E-16,-0.707106781186547,
-0.707106781186548));
#627=DIRECTION('ref_axis',(2.10221584426279E-16,-0.707106781186548,0.707106781186547));
#628=DIRECTION('',(-2.10221584426279E-16,0.707106781186548,-0.707106781186547));
#629=DIRECTION('',(1.,-1.80036166155431E-16,-1.20024110770287E-16));
#630=DIRECTION('',(2.10221584426279E-16,-0.707106781186548,0.707106781186547));
#631=DIRECTION('',(-1.,0.,3.00060276925718E-16));
#632=DIRECTION('center_axis',(-2.12174656578888E-16,0.707106781186548,-0.707106781186547));
#633=DIRECTION('ref_axis',(-2.1022158442628E-16,-0.707106781186547,-0.707106781186548));
#634=DIRECTION('',(2.1022158442628E-16,0.707106781186547,0.707106781186548));
#635=DIRECTION('',(-2.1022158442628E-16,-0.707106781186547,-0.707106781186548));
#636=DIRECTION('',(-1.,-1.80036166155431E-16,1.20024110770287E-16));
#637=DIRECTION('center_axis',(0.,0.,1.));
#638=DIRECTION('ref_axis',(-1.,0.,0.));
#639=DIRECTION('',(0.,-1.,0.));
#640=DIRECTION('',(-1.,0.,0.));
#641=DIRECTION('',(0.,-1.,0.));
#642=DIRECTION('center_axis',(0.,0.,1.));
#643=DIRECTION('ref_axis',(-1.,0.,0.));
#644=DIRECTION('',(0.,-1.,0.));
#645=DIRECTION('',(1.,0.,0.));
#646=DIRECTION('',(0.,-1.,0.));
#647=DIRECTION('center_axis',(-1.20024110770287E-16,0.,-1.));
#648=DIRECTION('ref_axis',(1.,0.,-1.20024110770287E-16));
#649=DIRECTION('',(0.,-1.,0.));
#650=DIRECTION('',(-1.,0.,1.20024110770287E-16));
#651=DIRECTION('',(0.,-1.,0.));
#652=DIRECTION('center_axis',(-1.20024110770287E-16,0.,-1.));
#653=DIRECTION('ref_axis',(1.,0.,-1.20024110770287E-16));
#654=DIRECTION('',(0.,-1.,0.));
#655=DIRECTION('',(1.,0.,-1.20024110770287E-16));
#656=DIRECTION('',(0.,-1.,0.));
#657=DIRECTION('center_axis',(0.,-1.,0.));
#658=DIRECTION('ref_axis',(0.,0.,-1.));
#659=DIRECTION('',(2.97298215799205E-16,0.,1.));
#660=DIRECTION('',(0.,0.,-1.));
#661=DIRECTION('',(1.,0.,4.80096443081149E-16));
#662=DIRECTION('center_axis',(0.,-1.,0.));
#663=DIRECTION('ref_axis',(0.,0.,-1.));
#664=DIRECTION('',(-1.,0.,0.));
#665=DIRECTION('',(0.,0.,-1.));
#666=DIRECTION('',(2.53765262771464E-15,0.,1.));
#667=DIRECTION('',(-1.,0.,0.));
#668=DIRECTION('center_axis',(0.,-1.,0.));
#669=DIRECTION('ref_axis',(0.,0.,-1.));
#670=DIRECTION('',(2.97298215799205E-16,0.,1.));
#671=DIRECTION('',(0.,0.,-1.));
#672=DIRECTION('',(-1.,0.,0.));
#673=DIRECTION('',(0.,0.,1.));
#674=DIRECTION('',(1.,0.,-3.64007549057428E-16));
#675=DIRECTION('',(-3.46606212565903E-16,0.,-1.));
#676=DIRECTION('center_axis',(0.,0.,-1.));
#677=DIRECTION('ref_axis',(1.,0.,0.));
#678=DIRECTION('',(1.,0.,0.));
#679=DIRECTION('',(0.,-1.,0.));
#680=DIRECTION('',(0.,-1.,0.));
#681=DIRECTION('center_axis',(-1.,0.,0.));
#682=DIRECTION('ref_axis',(0.,0.,-1.));
#683=DIRECTION('',(0.,0.,-1.));
#684=DIRECTION('',(0.,-1.,0.));
#685=DIRECTION('center_axis',(3.64007549057428E-16,0.,1.));
#686=DIRECTION('ref_axis',(-1.,0.,3.64007549057428E-16));
#687=DIRECTION('',(-1.,0.,3.64007549057428E-16));
#688=DIRECTION('',(0.,-1.,0.));
#689=DIRECTION('center_axis',(1.,0.,-3.46606212565903E-16));
#690=DIRECTION('ref_axis',(3.46606212565903E-16,0.,1.));
#691=DIRECTION('',(3.46606212565903E-16,0.,1.));
#692=DIRECTION('center_axis',(-2.40048221540574E-16,0.,-1.));
#693=DIRECTION('ref_axis',(1.,0.,-2.40048221540574E-16));
#694=DIRECTION('',(-1.,0.,2.40048221540574E-16));
#695=DIRECTION('',(0.,-1.,0.));
#696=DIRECTION('',(0.,-1.,0.));
#697=DIRECTION('center_axis',(-1.,0.,0.));
#698=DIRECTION('ref_axis',(0.,0.,-1.));
#699=DIRECTION('',(0.,0.,1.));
#700=DIRECTION('',(0.,-1.,0.));
#701=DIRECTION('center_axis',(0.,0.,1.));
#702=DIRECTION('ref_axis',(-1.,0.,0.));
#703=DIRECTION('',(1.,0.,0.));
#704=DIRECTION('',(0.,-1.,0.));
#705=DIRECTION('center_axis',(1.,0.,-2.97298215799205E-16));
#706=DIRECTION('ref_axis',(2.97298215799205E-16,0.,1.));
#707=DIRECTION('',(-2.97298215799205E-16,0.,-1.));
#708=DIRECTION('center_axis',(0.,1.,0.));
#709=DIRECTION('ref_axis',(0.,0.,1.));
#710=CARTESIAN_POINT('',(0.,0.,0.));
#711=CARTESIAN_POINT('Origin',(14.5645156972198,-16.5,25.4949944382647));
#712=CARTESIAN_POINT('',(13.0645156972198,-16.5,25.4949944382647));
#713=CARTESIAN_POINT('Origin',(14.5645156972198,-16.5,25.4949944382647));
#714=CARTESIAN_POINT('',(13.0645156972198,-16.5,22.4949944382647));
#715=CARTESIAN_POINT('',(13.0645156972198,-16.5,25.4949944382647));
#716=CARTESIAN_POINT('Origin',(14.5645156972198,-16.5,22.4949944382647));
#717=CARTESIAN_POINT('Origin',(10.0645156972198,-11.5,22.4949944382647));
#718=CARTESIAN_POINT('',(19.0645156972198,-11.5,22.4949944382647));
#719=CARTESIAN_POINT('',(10.0645156972198,-11.5,22.4949944382647));
#720=CARTESIAN_POINT('',(12.5645156972198,-11.5,22.4949944382647));
#721=CARTESIAN_POINT('',(19.0645156972198,-21.5,22.4949944382647));
#722=CARTESIAN_POINT('',(19.0645156972198,-11.5,22.4949944382647));
#723=CARTESIAN_POINT('',(10.0645156972198,-21.5,22.4949944382647));
#724=CARTESIAN_POINT('',(10.0645156972198,-21.5,22.4949944382647));
#725=CARTESIAN_POINT('',(10.0645156972198,-11.5,22.4949944382647));
#726=CARTESIAN_POINT('Origin',(10.0645156972198,-11.5,25.4949944382647));
#727=CARTESIAN_POINT('',(10.0645156972198,-11.5,25.4949944382647));
#728=CARTESIAN_POINT('',(10.0645156972198,-11.5,24.6199944382647));
#729=CARTESIAN_POINT('',(10.0645156972198,-21.5,25.4949944382647));
#730=CARTESIAN_POINT('',(10.0645156972198,-21.5,25.4949944382647));
#731=CARTESIAN_POINT('',(10.0645156972198,-11.5,25.4949944382647));
#732=CARTESIAN_POINT('Origin',(19.0645156972198,-11.5,22.4949944382647));
#733=CARTESIAN_POINT('',(19.0645156972198,-11.5,25.4949944382647));
#734=CARTESIAN_POINT('',(19.0645156972198,-11.5,23.1199944382647));
#735=CARTESIAN_POINT('',(19.0645156972198,-21.5,25.4949944382647));
#736=CARTESIAN_POINT('',(19.0645156972198,-11.5,25.4949944382647));
#737=CARTESIAN_POINT('',(19.0645156972198,-21.5,22.4949944382647));
#738=CARTESIAN_POINT('Origin',(14.5645156972198,-21.5,23.9949944382647));
#739=CARTESIAN_POINT('',(52.0645156972198,-21.5,25.4949944382647));
#740=CARTESIAN_POINT('Origin',(52.0645156972198,-7.25,-89.0050055617353));
#741=CARTESIAN_POINT('',(52.0645156972198,-5.74999999999999,-90.5050055617353));
#742=CARTESIAN_POINT('',(52.0645156972198,-7.25,-89.0050055617353));
#743=CARTESIAN_POINT('',(52.0645156972198,-5.74999999999999,-90.5050055617353));
#744=CARTESIAN_POINT('',(-21.9354843027802,-5.74999999999999,-90.5050055617353));
#745=CARTESIAN_POINT('',(52.0645156972198,-5.75,-90.5050055617353));
#746=CARTESIAN_POINT('',(-21.9354843027802,-7.25,-89.0050055617353));
#747=CARTESIAN_POINT('',(-21.9354843027802,-5.74999999999999,-90.5050055617353));
#748=CARTESIAN_POINT('',(52.0645156972198,-7.25,-89.0050055617353));
#749=CARTESIAN_POINT('Origin',(52.0645156972198,-8.75000000000002,-90.5050055617353));
#750=CARTESIAN_POINT('',(52.0645156972198,-8.75000000000002,-90.5050055617353));
#751=CARTESIAN_POINT('',(52.0645156972198,-7.25,-89.0050055617353));
#752=CARTESIAN_POINT('',(-21.9354843027802,-8.75000000000002,-90.5050055617353));
#753=CARTESIAN_POINT('',(-21.9354843027802,-7.25,-89.0050055617353));
#754=CARTESIAN_POINT('',(52.0645156972198,-8.75,-90.5050055617353));
#755=CARTESIAN_POINT('Origin',(52.0645156972198,-7.25,20.4949944382647));
#756=CARTESIAN_POINT('',(52.0645156972198,-8.75,21.9949944382647));
#757=CARTESIAN_POINT('',(52.0645156972198,-7.25,20.4949944382647));
#758=CARTESIAN_POINT('',(52.0645156972198,-8.75,21.9949944382647));
#759=CARTESIAN_POINT('',(-21.9354843027802,-8.75,21.9949944382648));
#760=CARTESIAN_POINT('',(15.0645156972198,-8.75,21.9949944382647));
#761=CARTESIAN_POINT('',(-21.9354843027802,-7.25,20.4949944382648));
#762=CARTESIAN_POINT('',(-21.9354843027802,-8.75,21.9949944382648));
#763=CARTESIAN_POINT('',(52.0645156972198,-7.25,20.4949944382647));
#764=CARTESIAN_POINT('Origin',(52.0645156972198,-5.75,21.9949944382647));
#765=CARTESIAN_POINT('',(52.0645156972198,-5.75,21.9949944382647));
#766=CARTESIAN_POINT('',(52.0645156972198,-7.25,20.4949944382647));
#767=CARTESIAN_POINT('',(-21.9354843027802,-5.75,21.9949944382648));
#768=CARTESIAN_POINT('',(-21.9354843027802,-7.25,20.4949944382648));
#769=CARTESIAN_POINT('',(15.0645156972198,-5.75000000000001,21.9949944382647));
#770=CARTESIAN_POINT('Origin',(52.0645156972198,-3.,-90.5050055617353));
#771=CARTESIAN_POINT('',(-21.9354843027802,-11.5,-90.5050055617353));
#772=CARTESIAN_POINT('',(-21.9354843027802,-3.,-90.5050055617353));
#773=CARTESIAN_POINT('',(52.0645156972198,-11.5,-90.5050055617353));
#774=CARTESIAN_POINT('',(52.0645156972198,-11.5,-90.5050055617353));
#775=CARTESIAN_POINT('',(52.0645156972198,-3.,-90.5050055617353));
#776=CARTESIAN_POINT('Origin',(52.0645156972198,-3.,-90.5050055617353));
#777=CARTESIAN_POINT('',(52.0645156972198,-3.,-90.5050055617353));
#778=CARTESIAN_POINT('',(52.0645156972198,-3.,-90.5050055617353));
#779=CARTESIAN_POINT('',(-21.9354843027802,-3.,-90.5050055617353));
#780=CARTESIAN_POINT('',(33.5645156972198,-3.,-90.5050055617353));
#781=CARTESIAN_POINT('',(-21.9354843027802,-3.,-90.5050055617353));
#782=CARTESIAN_POINT('Origin',(-21.9354843027802,-3.,21.9949944382647));
#783=CARTESIAN_POINT('',(-21.9354843027802,-3.,21.9949944382647));
#784=CARTESIAN_POINT('',(-21.9354843027802,-3.,21.9949944382647));
#785=CARTESIAN_POINT('',(52.0645156972198,-3.,21.9949944382647));
#786=CARTESIAN_POINT('',(-3.43548430278023,-3.,21.9949944382647));
#787=CARTESIAN_POINT('',(52.0645156972198,-3.,21.9949944382647));
#788=CARTESIAN_POINT('Origin',(-21.9354843027802,-3.,21.9949944382647));
#789=CARTESIAN_POINT('',(52.0645156972198,-11.5,21.9949944382647));
#790=CARTESIAN_POINT('',(52.0645156972198,-3.,21.9949944382647));
#791=CARTESIAN_POINT('',(-21.9354843027802,-11.5,21.9949944382647));
#792=CARTESIAN_POINT('',(-21.9354843027802,-11.5,21.9949944382647));
#793=CARTESIAN_POINT('',(-21.9354843027802,-3.,21.9949944382647));
#794=CARTESIAN_POINT('Origin',(15.0645156972198,-11.5,-92.2550055617353));
#795=CARTESIAN_POINT('',(52.0645156972198,-11.5,-94.0050055617353));
#796=CARTESIAN_POINT('',(52.0645156972198,-11.5,-94.0050055617353));
#797=CARTESIAN_POINT('',(-21.9354843027802,-11.5,-94.0050055617353));
#798=CARTESIAN_POINT('',(-21.9354843027802,-11.5,-90.5050055617353));
#799=CARTESIAN_POINT('',(-21.9354843027802,-11.5,-94.0050055617353));
#800=CARTESIAN_POINT('Origin',(15.0645156972198,-11.5,23.7449944382647));
#801=CARTESIAN_POINT('',(-21.9354843027802,-11.5,25.4949944382647));
#802=CARTESIAN_POINT('',(52.0645156972198,-11.5,25.4949944382647));
#803=CARTESIAN_POINT('',(-21.9354843027802,-11.5,25.4949944382647));
#804=CARTESIAN_POINT('',(52.0645156972198,-11.5,25.4949944382647));
#805=CARTESIAN_POINT('',(52.0645156972198,-11.5,21.9949944382647));
#806=CARTESIAN_POINT('',(52.0645156972198,-11.5,25.4949944382647));
#807=CARTESIAN_POINT('Origin',(15.0645156972197,-3.,-34.2550055617353));
#808=CARTESIAN_POINT('',(52.0645156972198,-3.,25.4949944382647));
#809=CARTESIAN_POINT('',(-21.9354843027803,-3.,-94.0050055617353));
#810=CARTESIAN_POINT('',(47.0645156972198,-3.,-85.5050055617353));
#811=CARTESIAN_POINT('',(-13.9354843027803,-3.,-85.5050055617353));
#812=CARTESIAN_POINT('',(0.564515697219723,-3.,-85.5050055617353));
#813=CARTESIAN_POINT('',(-13.9354843027803,-3.,16.9949944382647));
#814=CARTESIAN_POINT('',(-13.9354843027803,-3.,-8.63000556173527));
#815=CARTESIAN_POINT('',(47.0645156972198,-3.,16.9949944382647));
#816=CARTESIAN_POINT('',(31.0645156972198,-3.,16.9949944382647));
#817=CARTESIAN_POINT('',(47.0645156972198,-3.,-59.8800055617353));
#818=CARTESIAN_POINT('Origin',(-13.9354843027803,0.,-85.5050055617353));
#819=CARTESIAN_POINT('',(-13.9354843027803,0.,-85.5050055617353));
#820=CARTESIAN_POINT('',(47.0645156972198,0.,-85.5050055617353));
#821=CARTESIAN_POINT('',(0.564515697219723,0.,-85.5050055617353));
#822=CARTESIAN_POINT('',(-13.9354843027803,0.,-85.5050055617353));
#823=CARTESIAN_POINT('',(47.0645156972198,0.,-85.5050055617353));
#824=CARTESIAN_POINT('Origin',(-13.9354843027803,0.,16.9949944382647));
#825=CARTESIAN_POINT('',(-13.9354843027803,0.,16.9949944382647));
#826=CARTESIAN_POINT('',(-13.9354843027803,0.,-8.63000556173527));
#827=CARTESIAN_POINT('',(-13.9354843027803,0.,16.9949944382647));
#828=CARTESIAN_POINT('Origin',(47.0645156972198,0.,16.9949944382647));
#829=CARTESIAN_POINT('',(47.0645156972198,0.,16.9949944382647));
#830=CARTESIAN_POINT('',(31.0645156972198,0.,16.9949944382647));
#831=CARTESIAN_POINT('',(47.0645156972198,0.,16.9949944382647));
#832=CARTESIAN_POINT('Origin',(47.0645156972198,0.,-85.5050055617353));
#833=CARTESIAN_POINT('',(47.0645156972198,0.,-59.8800055617353));
#834=CARTESIAN_POINT('Origin',(-21.9354843027803,0.,-94.0050055617353));
#835=CARTESIAN_POINT('',(52.0645156972198,0.,-94.0050055617353));
#836=CARTESIAN_POINT('',(-21.9354843027803,0.,-94.0050055617353));
#837=CARTESIAN_POINT('',(52.0645156972198,0.,-94.0050055617353));
#838=CARTESIAN_POINT('',(52.0645156972198,0.,-94.0050055617353));
#839=CARTESIAN_POINT('',(-21.9354843027803,0.,-94.0050055617353));
#840=CARTESIAN_POINT('Origin',(-21.9354843027803,0.,25.4949944382647));
#841=CARTESIAN_POINT('',(-21.9354843027803,0.,25.4949944382647));
#842=CARTESIAN_POINT('',(-21.9354843027803,0.,-94.0050055617353));
#843=CARTESIAN_POINT('',(-21.9354843027803,0.,25.4949944382647));
#844=CARTESIAN_POINT('Origin',(52.0645156972198,0.,25.4949944382647));
#845=CARTESIAN_POINT('',(52.0645156972198,0.,25.4949944382647));
#846=CARTESIAN_POINT('',(-21.9354843027803,0.,25.4949944382647));
#847=CARTESIAN_POINT('',(52.0645156972198,0.,25.4949944382647));
#848=CARTESIAN_POINT('Origin',(52.0645156972198,0.,-94.0050055617353));
#849=CARTESIAN_POINT('',(52.0645156972198,0.,25.4949944382647));
#850=CARTESIAN_POINT('Origin',(15.0645156972197,0.,-34.2550055617353));
#851=UNCERTAINTY_MEASURE_WITH_UNIT(LENGTH_MEASURE(0.01),#855,
'DISTANCE_ACCURACY_VALUE',
'Maximum model space distance between geometric entities at asserted c
onnectivities');
#852=UNCERTAINTY_MEASURE_WITH_UNIT(LENGTH_MEASURE(0.01),#855,
'DISTANCE_ACCURACY_VALUE',
'Maximum model space distance between geometric entities at asserted c
onnectivities');
#853=(
GEOMETRIC_REPRESENTATION_CONTEXT(3)
GLOBAL_UNCERTAINTY_ASSIGNED_CONTEXT((#851))
GLOBAL_UNIT_ASSIGNED_CONTEXT((#855,#857,#858))
REPRESENTATION_CONTEXT('','3D')
);
#854=(
GEOMETRIC_REPRESENTATION_CONTEXT(3)
GLOBAL_UNCERTAINTY_ASSIGNED_CONTEXT((#852))
GLOBAL_UNIT_ASSIGNED_CONTEXT((#855,#857,#858))
REPRESENTATION_CONTEXT('','3D')
);
#855=(
LENGTH_UNIT()
NAMED_UNIT(*)
SI_UNIT(.MILLI.,.METRE.)
);
#856=(
LENGTH_UNIT()
NAMED_UNIT(*)
SI_UNIT(.CENTI.,.METRE.)
);
#857=(
NAMED_UNIT(*)
PLANE_ANGLE_UNIT()
SI_UNIT($,.RADIAN.)
);
#858=(
NAMED_UNIT(*)
SI_UNIT($,.STERADIAN.)
SOLID_ANGLE_UNIT()
);
#859=SHAPE_DEFINITION_REPRESENTATION(#860,#861);
#860=PRODUCT_DEFINITION_SHAPE('',$,#863);
#861=SHAPE_REPRESENTATION('',(#559),#853);
#862=PRODUCT_DEFINITION_CONTEXT('part definition',#867,'design');
#863=PRODUCT_DEFINITION('plate top','9',#864,#862);
#864=PRODUCT_DEFINITION_FORMATION('',$,#869);
#865=PRODUCT_RELATED_PRODUCT_CATEGORY('9','9',(#869));
#866=APPLICATION_PROTOCOL_DEFINITION('international standard',
'automotive_design',2009,#867);
#867=APPLICATION_CONTEXT(
'Core Data for Automotive Mechanical Design Process');
#868=PRODUCT_CONTEXT('part definition',#867,'mechanical');
#869=PRODUCT('plate top','9',$,(#868));
#870=PRESENTATION_STYLE_ASSIGNMENT((#872));
#871=PRESENTATION_STYLE_ASSIGNMENT((#873));
#872=SURFACE_STYLE_USAGE(.BOTH.,#878);
#873=SURFACE_STYLE_USAGE(.BOTH.,#879);
#874=SURFACE_STYLE_RENDERING_WITH_PROPERTIES($,#886,(#876));
#875=SURFACE_STYLE_RENDERING_WITH_PROPERTIES($,#887,(#877));
#876=SURFACE_STYLE_TRANSPARENT(0.);
#877=SURFACE_STYLE_TRANSPARENT(0.);
#878=SURFACE_SIDE_STYLE('',(#880,#874));
#879=SURFACE_SIDE_STYLE('',(#881,#875));
#880=SURFACE_STYLE_FILL_AREA(#882);
#881=SURFACE_STYLE_FILL_AREA(#883);
#882=FILL_AREA_STYLE('',(#884));
#883=FILL_AREA_STYLE('',(#885));
#884=FILL_AREA_STYLE_COLOUR('',#886);
#885=FILL_AREA_STYLE_COLOUR('',#887);
#886=COLOUR_RGB('',0.749019607843137,0.749019607843137,0.749019607843137);
#887=COLOUR_RGB('',0.0509803921568627,0.615686274509804,0.0509803921568627);
ENDSEC;
END-ISO-10303-21;
